<svg width="313" height="153" viewBox="0 0 313 153" fill="none" xmlns="http://www.w3.org/2000/svg">
<g filter="url(#filter0_d_1_23)">
<rect x="187" y="5" width="120" height="120" rx="10" fill="white"/>
</g>
<path d="M249.729 48.3824H237.308C237.091 48.3824 236.915 48.5584 236.915 48.7752V84.7605C236.915 88.8658 240.275 92.2247 244.381 92.2247H249.729C253.835 92.2247 257.195 88.8658 257.195 84.7605V55.8466C257.195 51.7412 253.835 48.3824 249.729 48.3824Z" fill="#429488"/>
<path d="M272.838 37.7753H260.417C260.201 37.7753 260.025 37.9513 260.025 38.1682V84.7605C260.025 88.8658 263.384 92.2247 267.49 92.2247H272.838C276.944 92.2247 280.304 88.8658 280.304 84.7605V45.2395C280.304 41.1342 276.944 37.7753 272.838 37.7753Z" fill="#429488"/>
<path d="M226.51 61.1107H214.089C213.872 61.1107 213.696 61.2867 213.696 61.5036V84.7605C213.696 88.8658 217.056 92.2247 221.162 92.2247H226.51C230.616 92.2247 233.975 88.8658 233.975 84.7605V68.5749C233.975 64.4696 230.616 61.1107 226.51 61.1107Z" fill="#6AB4AC"/>
<path d="M216.132 37.7753H214.089C213.872 37.7753 213.696 37.9513 213.696 38.1682V39.8629C213.696 43.9855 217.038 47.3271 221.162 47.3271H223.205C223.422 47.3271 223.598 47.1511 223.598 46.9343V45.2395C223.598 41.1169 220.255 37.7753 216.132 37.7753Z" fill="#6AB4AC"/>
<g filter="url(#filter1_d_1_23)">
<rect x="6" y="5" width="120" height="120" rx="10" fill="white"/>
</g>
<g clip-path="url(#clip0_1_23)">
<path d="M66 53.0003C64.8954 53.0003 63.9997 52.1046 63.9997 51V48.1109C63.9997 41.9747 59.0257 37 52.8888 37H49.1109C42.9747 37 38 41.9747 38 48.1109V81.8883C38 88.0245 42.9747 92.9992 49.1109 92.9992H52.8888C59.025 92.9992 63.9997 88.0245 63.9997 81.8883V79.1198C63.9997 76.5948 62.5732 74.2865 60.3147 73.1573L59.2101 72.6049C57.1545 71.5771 55.592 69.775 54.8653 67.5949C54.2922 65.8757 54.0003 64.0759 54.0003 62.2645V61.0001C54.0003 59.8955 54.896 58.9998 56.0007 58.9998C57.1053 58.9998 58.001 59.8955 58.001 61.0001V65C58.001 69.4185 61.583 71.0002 66.0008 71.0002C70.4193 71.0002 74.0005 69.4185 74.0005 65V61.0001C74.0005 59.8955 74.8962 58.9998 76.0009 58.9998C77.1055 58.9998 78.0012 59.8955 78.0012 61.0001V62.2645C77.9943 66.3074 76.7015 70.7383 72.7907 72.6049L71.686 73.1573C69.4276 74.2865 68.0011 76.5948 68.0011 79.1198V81.8883C68.0011 88.0245 72.9758 92.9992 79.112 92.9992H82.8899C89.0261 92.9992 94.0008 88.0245 94.0008 81.8883V48.1109C94 41.9747 89.0253 37 82.8891 37H79.1112C72.975 37 68.0003 41.9747 68.0003 48.1109V51C68.0003 52.1046 67.1046 53.0003 66 53.0003Z" fill="#FF871A"/>
</g>
<path d="M149 58.0006L149 76.0006C149.001 76.1828 149.051 76.3614 149.145 76.5172C149.24 76.673 149.375 76.8001 149.537 76.8848C149.698 76.9694 149.879 77.0085 150.061 76.9977C150.243 76.9869 150.419 76.9267 150.569 76.8236L163.569 67.8236C164.108 67.4506 164.108 66.5526 163.569 66.1786L150.569 57.1786C150.419 57.0744 150.243 57.0133 150.061 57.0019C149.879 56.9906 149.697 57.0294 149.535 57.1141C149.374 57.1988 149.238 57.3262 149.144 57.4825C149.049 57.6388 149 57.818 149 58.0006Z" fill="#AFAFAF"/>
<path d="M48.3779 146.421C48.3779 146.971 48.3096 147.472 48.1729 147.925C48.0361 148.374 47.8278 148.761 47.5479 149.087C47.2712 149.412 46.9196 149.663 46.4932 149.839C46.0667 150.011 45.5622 150.098 44.9795 150.098C44.3968 150.098 43.8923 150.011 43.4658 149.839C43.0394 149.663 42.6862 149.412 42.4062 149.087C42.1296 148.761 41.9229 148.372 41.7861 147.92C41.6494 147.467 41.5811 146.965 41.5811 146.411C41.5811 145.672 41.7015 145.029 41.9424 144.482C42.1865 143.932 42.5609 143.506 43.0654 143.203C43.57 142.9 44.2113 142.749 44.9893 142.749C45.764 142.749 46.4004 142.9 46.8984 143.203C47.3997 143.506 47.7708 143.932 48.0117 144.482C48.2559 145.033 48.3779 145.679 48.3779 146.421ZM43.168 146.421C43.168 146.919 43.2298 147.349 43.3535 147.71C43.4805 148.068 43.6774 148.345 43.9443 148.54C44.2113 148.732 44.5563 148.828 44.9795 148.828C45.4092 148.828 45.7575 148.732 46.0244 148.54C46.2913 148.345 46.485 148.068 46.6055 147.71C46.7292 147.349 46.791 146.919 46.791 146.421C46.791 145.672 46.651 145.083 46.3711 144.653C46.0911 144.224 45.6305 144.009 44.9893 144.009C44.5628 144.009 44.2145 144.106 43.9443 144.302C43.6774 144.494 43.4805 144.771 43.3535 145.132C43.2298 145.49 43.168 145.92 43.168 146.421ZM51.2295 150H49.7402V142.402H51.2295V150ZM54.5254 150.098C53.9167 150.098 53.4202 149.86 53.0361 149.385C52.6553 148.906 52.4648 148.205 52.4648 147.28C52.4648 146.346 52.6585 145.64 53.0459 145.161C53.4333 144.679 53.9395 144.438 54.5645 144.438C54.8249 144.438 55.0544 144.474 55.2529 144.546C55.4515 144.618 55.6224 144.714 55.7656 144.834C55.9121 144.954 56.0358 145.09 56.1367 145.239H56.1855C56.166 145.135 56.1416 144.982 56.1123 144.78C56.0863 144.575 56.0732 144.365 56.0732 144.15V142.402H57.5674V150H56.4248L56.1367 149.292H56.0732C55.9788 149.442 55.86 149.578 55.7168 149.702C55.5768 149.823 55.4092 149.919 55.2139 149.99C55.0186 150.062 54.7891 150.098 54.5254 150.098ZM55.0479 148.911C55.4548 148.911 55.7412 148.791 55.9072 148.55C56.0765 148.306 56.166 147.939 56.1758 147.451V147.29C56.1758 146.759 56.0944 146.354 55.9316 146.074C55.7689 145.791 55.4661 145.649 55.0234 145.649C54.6947 145.649 54.4375 145.791 54.252 146.074C54.0664 146.357 53.9736 146.766 53.9736 147.3C53.9736 147.834 54.0664 148.236 54.252 148.506C54.4408 148.776 54.7061 148.911 55.0479 148.911ZM61.8398 150V142.861H63.3535V148.75H66.249V150H61.8398ZM72.3379 147.261C72.3379 147.716 72.276 148.12 72.1523 148.472C72.0319 148.823 71.8545 149.121 71.6201 149.365C71.389 149.606 71.109 149.788 70.7803 149.912C70.4548 150.036 70.0869 150.098 69.6768 150.098C69.2926 150.098 68.9395 150.036 68.6172 149.912C68.2982 149.788 68.0199 149.606 67.7822 149.365C67.5479 149.121 67.3656 148.823 67.2354 148.472C67.1084 148.12 67.0449 147.716 67.0449 147.261C67.0449 146.655 67.1523 146.143 67.3672 145.723C67.582 145.303 67.888 144.984 68.2852 144.766C68.6823 144.548 69.1559 144.438 69.7061 144.438C70.2171 144.438 70.6696 144.548 71.0635 144.766C71.4606 144.984 71.7715 145.303 71.9961 145.723C72.224 146.143 72.3379 146.655 72.3379 147.261ZM68.5635 147.261C68.5635 147.619 68.6025 147.92 68.6807 148.164C68.7588 148.408 68.8809 148.592 69.0469 148.716C69.2129 148.84 69.4294 148.901 69.6963 148.901C69.96 148.901 70.1732 148.84 70.3359 148.716C70.502 148.592 70.6224 148.408 70.6973 148.164C70.7754 147.92 70.8145 147.619 70.8145 147.261C70.8145 146.899 70.7754 146.6 70.6973 146.362C70.6224 146.121 70.502 145.941 70.3359 145.82C70.1699 145.7 69.9535 145.64 69.6865 145.64C69.2926 145.64 69.0062 145.775 68.8271 146.045C68.6514 146.315 68.5635 146.72 68.5635 147.261ZM75.165 152.402C74.4033 152.402 73.8206 152.269 73.417 152.002C73.0166 151.738 72.8164 151.367 72.8164 150.889C72.8164 150.56 72.9189 150.285 73.124 150.063C73.3291 149.842 73.6302 149.684 74.0273 149.59C73.8743 149.525 73.7409 149.419 73.627 149.272C73.513 149.123 73.4561 148.965 73.4561 148.799C73.4561 148.59 73.5163 148.418 73.6367 148.281C73.7572 148.141 73.9313 148.005 74.1592 147.871C73.8727 147.747 73.6449 147.549 73.4756 147.275C73.3096 147.002 73.2266 146.68 73.2266 146.309C73.2266 145.911 73.3128 145.575 73.4854 145.298C73.6611 145.018 73.915 144.805 74.2471 144.658C74.5824 144.512 74.9893 144.438 75.4678 144.438C75.5687 144.438 75.6859 144.445 75.8193 144.458C75.9528 144.471 76.0749 144.486 76.1855 144.502C76.2995 144.518 76.376 144.531 76.415 144.541H78.3193V145.298L77.4648 145.518C77.543 145.638 77.6016 145.767 77.6406 145.903C77.6797 146.04 77.6992 146.185 77.6992 146.338C77.6992 146.924 77.4941 147.381 77.084 147.71C76.6771 148.035 76.1107 148.198 75.3848 148.198C75.2122 148.188 75.0495 148.175 74.8965 148.159C74.8216 148.218 74.7646 148.28 74.7256 148.345C74.6865 148.41 74.667 148.478 74.667 148.55C74.667 148.621 74.6963 148.682 74.7549 148.73C74.8167 148.776 74.9079 148.812 75.0283 148.838C75.152 148.861 75.305 148.872 75.4873 148.872H76.415C77.014 148.872 77.4697 149.001 77.7822 149.258C78.098 149.515 78.2559 149.893 78.2559 150.391C78.2559 151.029 77.9889 151.523 77.4551 151.875C76.9245 152.227 76.1611 152.402 75.165 152.402ZM75.2285 151.431C75.5833 151.431 75.8877 151.396 76.1416 151.328C76.3988 151.263 76.5957 151.169 76.7324 151.045C76.8691 150.924 76.9375 150.78 76.9375 150.61C76.9375 150.474 76.8968 150.365 76.8154 150.283C76.7373 150.205 76.6169 150.15 76.4541 150.117C76.2946 150.085 76.0895 150.068 75.8389 150.068H75.0674C74.8851 150.068 74.7207 150.098 74.5742 150.156C74.431 150.215 74.3171 150.296 74.2324 150.4C74.1478 150.508 74.1055 150.632 74.1055 150.771C74.1055 150.977 74.2031 151.138 74.3984 151.255C74.597 151.372 74.8737 151.431 75.2285 151.431ZM75.4678 147.29C75.7477 147.29 75.9528 147.204 76.083 147.031C76.2132 146.859 76.2783 146.624 76.2783 146.328C76.2783 145.999 76.21 145.754 76.0732 145.591C75.9398 145.425 75.738 145.342 75.4678 145.342C75.1943 145.342 74.9893 145.425 74.8525 145.591C74.7158 145.754 74.6475 145.999 74.6475 146.328C74.6475 146.624 74.7142 146.859 74.8477 147.031C74.9844 147.204 75.1911 147.29 75.4678 147.29ZM84.1836 147.261C84.1836 147.716 84.1217 148.12 83.998 148.472C83.8776 148.823 83.7002 149.121 83.4658 149.365C83.2347 149.606 82.9548 149.788 82.626 149.912C82.3005 150.036 81.9326 150.098 81.5225 150.098C81.1383 150.098 80.7852 150.036 80.4629 149.912C80.1439 149.788 79.8656 149.606 79.6279 149.365C79.3936 149.121 79.2113 148.823 79.0811 148.472C78.9541 148.12 78.8906 147.716 78.8906 147.261C78.8906 146.655 78.998 146.143 79.2129 145.723C79.4277 145.303 79.7337 144.984 80.1309 144.766C80.528 144.548 81.0016 144.438 81.5518 144.438C82.0628 144.438 82.5153 144.548 82.9092 144.766C83.3063 144.984 83.6172 145.303 83.8418 145.723C84.0697 146.143 84.1836 146.655 84.1836 147.261ZM80.4092 147.261C80.4092 147.619 80.4482 147.92 80.5264 148.164C80.6045 148.408 80.7266 148.592 80.8926 148.716C81.0586 148.84 81.2751 148.901 81.542 148.901C81.8057 148.901 82.0189 148.84 82.1816 148.716C82.3477 148.592 82.4681 148.408 82.543 148.164C82.6211 147.92 82.6602 147.619 82.6602 147.261C82.6602 146.899 82.6211 146.6 82.543 146.362C82.4681 146.121 82.3477 145.941 82.1816 145.82C82.0156 145.7 81.7992 145.64 81.5322 145.64C81.1383 145.64 80.8519 145.775 80.6729 146.045C80.4971 146.315 80.4092 146.72 80.4092 147.261Z" fill="#AFAFAF"/>
<path d="M229.231 150H227.308L224.202 144.6H224.158C224.171 144.824 224.183 145.05 224.192 145.278C224.202 145.506 224.212 145.734 224.222 145.962C224.231 146.187 224.241 146.413 224.251 146.641V150H222.898V142.861H224.808L227.908 148.208H227.942C227.936 147.987 227.928 147.767 227.918 147.549C227.908 147.331 227.898 147.113 227.889 146.895C227.882 146.676 227.876 146.458 227.869 146.24V142.861H229.231V150ZM233.167 144.438C233.672 144.438 234.106 144.536 234.471 144.731C234.835 144.924 235.117 145.203 235.315 145.571C235.514 145.939 235.613 146.388 235.613 146.919V147.642H232.093C232.109 148.062 232.234 148.392 232.469 148.633C232.706 148.87 233.035 148.989 233.455 148.989C233.803 148.989 234.122 148.953 234.412 148.882C234.702 148.81 235 148.703 235.306 148.56V149.712C235.035 149.845 234.752 149.943 234.456 150.005C234.163 150.067 233.807 150.098 233.387 150.098C232.84 150.098 232.355 149.997 231.932 149.795C231.512 149.593 231.181 149.285 230.94 148.872C230.703 148.459 230.584 147.938 230.584 147.31C230.584 146.672 230.691 146.141 230.906 145.718C231.124 145.291 231.427 144.972 231.814 144.761C232.202 144.546 232.653 144.438 233.167 144.438ZM233.177 145.498C232.887 145.498 232.646 145.591 232.454 145.776C232.265 145.962 232.156 146.253 232.127 146.65H234.217C234.214 146.429 234.173 146.232 234.095 146.06C234.02 145.887 233.906 145.75 233.753 145.649C233.603 145.549 233.411 145.498 233.177 145.498ZM241.312 150L240.892 148.091C240.869 147.977 240.831 147.809 240.779 147.588C240.727 147.363 240.67 147.124 240.608 146.87C240.55 146.613 240.494 146.375 240.442 146.157C240.394 145.939 240.358 145.78 240.335 145.679H240.291C240.268 145.78 240.232 145.939 240.184 146.157C240.135 146.375 240.079 146.613 240.018 146.87C239.959 147.127 239.904 147.37 239.852 147.598C239.799 147.822 239.76 147.993 239.734 148.11L239.295 150H237.693L236.141 144.541H237.625L238.255 146.958C238.297 147.127 238.338 147.329 238.377 147.563C238.416 147.795 238.45 148.019 238.479 148.237C238.512 148.452 238.536 148.623 238.553 148.75H238.592C238.598 148.656 238.611 148.53 238.631 148.374C238.654 148.218 238.678 148.057 238.704 147.891C238.733 147.721 238.759 147.57 238.782 147.437C238.808 147.3 238.828 147.207 238.841 147.158L239.515 144.541H241.155L241.795 147.158C241.818 147.253 241.847 147.402 241.883 147.607C241.922 147.812 241.956 148.024 241.985 148.242C242.015 148.457 242.031 148.626 242.034 148.75H242.073C242.086 148.639 242.109 148.475 242.142 148.257C242.174 148.039 242.212 147.811 242.254 147.573C242.299 147.332 242.345 147.127 242.391 146.958L243.045 144.541H244.505L242.933 150H241.312ZM248.104 150V142.861H249.617V148.75H252.513V150H248.104ZM258.602 147.261C258.602 147.716 258.54 148.12 258.416 148.472C258.296 148.823 258.118 149.121 257.884 149.365C257.653 149.606 257.373 149.788 257.044 149.912C256.718 150.036 256.351 150.098 255.94 150.098C255.556 150.098 255.203 150.036 254.881 149.912C254.562 149.788 254.284 149.606 254.046 149.365C253.812 149.121 253.629 148.823 253.499 148.472C253.372 148.12 253.309 147.716 253.309 147.261C253.309 146.655 253.416 146.143 253.631 145.723C253.846 145.303 254.152 144.984 254.549 144.766C254.946 144.548 255.42 144.438 255.97 144.438C256.481 144.438 256.933 144.548 257.327 144.766C257.724 144.984 258.035 145.303 258.26 145.723C258.488 146.143 258.602 146.655 258.602 147.261ZM254.827 147.261C254.827 147.619 254.866 147.92 254.944 148.164C255.022 148.408 255.145 148.592 255.311 148.716C255.477 148.84 255.693 148.901 255.96 148.901C256.224 148.901 256.437 148.84 256.6 148.716C256.766 148.592 256.886 148.408 256.961 148.164C257.039 147.92 257.078 147.619 257.078 147.261C257.078 146.899 257.039 146.6 256.961 146.362C256.886 146.121 256.766 145.941 256.6 145.82C256.434 145.7 256.217 145.64 255.95 145.64C255.556 145.64 255.27 145.775 255.091 146.045C254.915 146.315 254.827 146.72 254.827 147.261ZM261.429 152.402C260.667 152.402 260.084 152.269 259.681 152.002C259.28 151.738 259.08 151.367 259.08 150.889C259.08 150.56 259.183 150.285 259.388 150.063C259.593 149.842 259.894 149.684 260.291 149.59C260.138 149.525 260.005 149.419 259.891 149.272C259.777 149.123 259.72 148.965 259.72 148.799C259.72 148.59 259.78 148.418 259.9 148.281C260.021 148.141 260.195 148.005 260.423 147.871C260.136 147.747 259.909 147.549 259.739 147.275C259.573 147.002 259.49 146.68 259.49 146.309C259.49 145.911 259.576 145.575 259.749 145.298C259.925 145.018 260.179 144.805 260.511 144.658C260.846 144.512 261.253 144.438 261.731 144.438C261.832 144.438 261.95 144.445 262.083 144.458C262.216 144.471 262.339 144.486 262.449 144.502C262.563 144.518 262.64 144.531 262.679 144.541H264.583V145.298L263.729 145.518C263.807 145.638 263.865 145.767 263.904 145.903C263.943 146.04 263.963 146.185 263.963 146.338C263.963 146.924 263.758 147.381 263.348 147.71C262.941 148.035 262.374 148.198 261.648 148.198C261.476 148.188 261.313 148.175 261.16 148.159C261.085 148.218 261.028 148.28 260.989 148.345C260.95 148.41 260.931 148.478 260.931 148.55C260.931 148.621 260.96 148.682 261.019 148.73C261.08 148.776 261.172 148.812 261.292 148.838C261.416 148.861 261.569 148.872 261.751 148.872H262.679C263.278 148.872 263.733 149.001 264.046 149.258C264.362 149.515 264.52 149.893 264.52 150.391C264.52 151.029 264.253 151.523 263.719 151.875C263.188 152.227 262.425 152.402 261.429 152.402ZM261.492 151.431C261.847 151.431 262.151 151.396 262.405 151.328C262.662 151.263 262.859 151.169 262.996 151.045C263.133 150.924 263.201 150.78 263.201 150.61C263.201 150.474 263.16 150.365 263.079 150.283C263.001 150.205 262.881 150.15 262.718 150.117C262.558 150.085 262.353 150.068 262.103 150.068H261.331C261.149 150.068 260.984 150.098 260.838 150.156C260.695 150.215 260.581 150.296 260.496 150.4C260.411 150.508 260.369 150.632 260.369 150.771C260.369 150.977 260.467 151.138 260.662 151.255C260.861 151.372 261.137 151.431 261.492 151.431ZM261.731 147.29C262.011 147.29 262.216 147.204 262.347 147.031C262.477 146.859 262.542 146.624 262.542 146.328C262.542 145.999 262.474 145.754 262.337 145.591C262.203 145.425 262.002 145.342 261.731 145.342C261.458 145.342 261.253 145.425 261.116 145.591C260.979 145.754 260.911 145.999 260.911 146.328C260.911 146.624 260.978 146.859 261.111 147.031C261.248 147.204 261.455 147.29 261.731 147.29ZM270.447 147.261C270.447 147.716 270.385 148.12 270.262 148.472C270.141 148.823 269.964 149.121 269.729 149.365C269.498 149.606 269.218 149.788 268.89 149.912C268.564 150.036 268.196 150.098 267.786 150.098C267.402 150.098 267.049 150.036 266.727 149.912C266.408 149.788 266.129 149.606 265.892 149.365C265.657 149.121 265.475 148.823 265.345 148.472C265.218 148.12 265.154 147.716 265.154 147.261C265.154 146.655 265.262 146.143 265.477 145.723C265.691 145.303 265.997 144.984 266.395 144.766C266.792 144.548 267.265 144.438 267.815 144.438C268.326 144.438 268.779 144.548 269.173 144.766C269.57 144.984 269.881 145.303 270.105 145.723C270.333 146.143 270.447 146.655 270.447 147.261ZM266.673 147.261C266.673 147.619 266.712 147.92 266.79 148.164C266.868 148.408 266.99 148.592 267.156 148.716C267.322 148.84 267.539 148.901 267.806 148.901C268.069 148.901 268.283 148.84 268.445 148.716C268.611 148.592 268.732 148.408 268.807 148.164C268.885 147.92 268.924 147.619 268.924 147.261C268.924 146.899 268.885 146.6 268.807 146.362C268.732 146.121 268.611 145.941 268.445 145.82C268.279 145.7 268.063 145.64 267.796 145.64C267.402 145.64 267.116 145.775 266.937 146.045C266.761 146.315 266.673 146.72 266.673 147.261Z" fill="#454545"/>
<defs>
<filter id="filter0_d_1_23" x="181" y="0" width="132" height="132" filterUnits="userSpaceOnUse" color-interpolation-filters="sRGB">
<feFlood flood-opacity="0" result="BackgroundImageFix"/>
<feColorMatrix in="SourceAlpha" type="matrix" values="0 0 0 0 0 0 0 0 0 0 0 0 0 0 0 0 0 0 127 0" result="hardAlpha"/>
<feMorphology radius="1" operator="dilate" in="SourceAlpha" result="effect1_dropShadow_1_23"/>
<feOffset dy="1"/>
<feGaussianBlur stdDeviation="2.5"/>
<feComposite in2="hardAlpha" operator="out"/>
<feColorMatrix type="matrix" values="0 0 0 0 0 0 0 0 0 0 0 0 0 0 0 0 0 0 0.1 0"/>
<feBlend mode="normal" in2="BackgroundImageFix" result="effect1_dropShadow_1_23"/>
<feBlend mode="normal" in="SourceGraphic" in2="effect1_dropShadow_1_23" result="shape"/>
</filter>
<filter id="filter1_d_1_23" x="0" y="0" width="132" height="132" filterUnits="userSpaceOnUse" color-interpolation-filters="sRGB">
<feFlood flood-opacity="0" result="BackgroundImageFix"/>
<feColorMatrix in="SourceAlpha" type="matrix" values="0 0 0 0 0 0 0 0 0 0 0 0 0 0 0 0 0 0 127 0" result="hardAlpha"/>
<feMorphology radius="1" operator="dilate" in="SourceAlpha" result="effect1_dropShadow_1_23"/>
<feOffset dy="1"/>
<feGaussianBlur stdDeviation="2.5"/>
<feComposite in2="hardAlpha" operator="out"/>
<feColorMatrix type="matrix" values="0 0 0 0 0 0 0 0 0 0 0 0 0 0 0 0 0 0 0.1 0"/>
<feBlend mode="normal" in2="BackgroundImageFix" result="effect1_dropShadow_1_23"/>
<feBlend mode="normal" in="SourceGraphic" in2="effect1_dropShadow_1_23" result="shape"/>
</filter>
<clipPath id="clip0_1_23">
<rect width="56" height="56" fill="white" transform="translate(38 37)"/>
</clipPath>
</defs>
</svg>
