<svg width="311" height="174" viewBox="0 0 311 174" fill="none" xmlns="http://www.w3.org/2000/svg">
<g filter="url(#filter0_d_3_57)">
<rect x="6" y="93" width="89" height="74" rx="5" fill="#D4562E"/>
</g>
<g filter="url(#filter1_d_3_57)">
<rect x="6" y="5" width="89" height="74" rx="5" fill="#429488"/>
</g>
<g filter="url(#filter2_d_3_57)">
<rect x="111" y="5" width="89" height="74" rx="5" fill="#34776B"/>
</g>
<g filter="url(#filter3_d_3_57)">
<rect x="216" y="5" width="89" height="74" rx="5" fill="#A9A9A9"/>
</g>
<g filter="url(#filter4_d_3_57)">
<rect x="216" y="93" width="89" height="74" rx="5" fill="black"/>
</g>
<g filter="url(#filter5_d_3_57)">
<rect x="111" y="93" width="89" height="74" rx="5" fill="#707070"/>
</g>
<path d="M14.6494 111V103.676H19.1709V104.809H15.9385V106.737H18.9756V107.865H15.9385V111H14.6494ZM21.7051 111H20.4209V103.48H21.7051V111ZM27.2275 111H26.1826L26.1143 110.399C25.9352 110.621 25.7122 110.793 25.4453 110.917C25.1784 111.037 24.8822 111.098 24.5566 111.098C24.2116 111.098 23.904 111.031 23.6338 110.897C23.3636 110.761 23.1504 110.575 22.9941 110.341C22.8411 110.106 22.7646 109.84 22.7646 109.54C22.7646 109.224 22.8477 108.948 23.0137 108.71C23.1829 108.469 23.4124 108.28 23.7021 108.144C23.9951 108.007 24.3288 107.938 24.7031 107.938C24.931 107.938 25.1589 107.965 25.3867 108.017C25.6178 108.069 25.8311 108.142 26.0264 108.236V108.08C26.0264 107.865 25.9678 107.68 25.8506 107.523C25.7334 107.367 25.5755 107.247 25.377 107.162C25.1784 107.074 24.9554 107.03 24.708 107.03C24.4834 107.03 24.2588 107.069 24.0342 107.147C23.8096 107.222 23.5996 107.335 23.4043 107.484L23.0625 106.542C23.375 106.369 23.694 106.239 24.0195 106.151C24.3483 106.063 24.6689 106.02 24.9814 106.02C25.4404 106.02 25.8376 106.111 26.1729 106.293C26.5081 106.472 26.7669 106.729 26.9492 107.064C27.1348 107.396 27.2275 107.789 27.2275 108.241V111ZM24.8057 110.131C25.0173 110.131 25.2126 110.087 25.3916 109.999C25.5739 109.911 25.722 109.789 25.8359 109.633C25.9531 109.473 26.015 109.291 26.0215 109.086V109.032C25.8685 108.922 25.696 108.837 25.5039 108.778C25.3118 108.716 25.1182 108.686 24.9229 108.686C24.6234 108.686 24.3776 108.754 24.1855 108.891C23.9935 109.024 23.8975 109.2 23.8975 109.418C23.8975 109.551 23.9365 109.674 24.0146 109.784C24.0928 109.892 24.2002 109.976 24.3369 110.038C24.4769 110.1 24.6331 110.131 24.8057 110.131ZM36.3047 111H35.1035V108.495C35.1035 108.052 35.0107 107.709 34.8252 107.465C34.6429 107.217 34.3841 107.094 34.0488 107.094C33.7103 107.094 33.445 107.217 33.2529 107.465C33.0641 107.712 32.9697 108.056 32.9697 108.495V111H31.7686V108.495C31.7686 108.052 31.6758 107.709 31.4902 107.465C31.3047 107.217 31.0459 107.094 30.7139 107.094C30.3721 107.094 30.1051 107.217 29.9131 107.465C29.7243 107.712 29.6299 108.056 29.6299 108.495V111H28.4287V106.117H29.3906L29.4346 106.947C29.6006 106.645 29.8203 106.415 30.0938 106.259C30.3704 106.099 30.696 106.02 31.0703 106.02C31.4577 106.02 31.7913 106.104 32.0713 106.273C32.3545 106.439 32.571 106.679 32.7207 106.991C32.8835 106.672 33.1064 106.431 33.3896 106.269C33.6729 106.103 34.0065 106.02 34.3906 106.02C34.9928 106.02 35.4616 106.212 35.7969 106.596C36.1354 106.977 36.3047 107.507 36.3047 108.188V111ZM41.9395 110.434C41.3307 110.876 40.665 111.098 39.9424 111.098C39.4183 111.098 38.9479 110.984 38.5312 110.756C38.1146 110.528 37.7842 110.217 37.54 109.823C37.2992 109.426 37.1787 108.98 37.1787 108.485C37.1787 108.013 37.2878 107.592 37.5059 107.221C37.7272 106.85 38.0283 106.557 38.4092 106.342C38.7933 106.127 39.2262 106.02 39.708 106.02C40.2093 106.02 40.6488 106.138 41.0264 106.376C41.4072 106.61 41.7035 106.938 41.915 107.357C42.1266 107.774 42.2324 108.259 42.2324 108.812V108.969H38.4727C38.5312 109.19 38.6338 109.385 38.7803 109.555C38.93 109.724 39.1156 109.856 39.3369 109.95C39.5583 110.045 39.8073 110.092 40.084 110.092C40.6048 110.092 41.0866 109.923 41.5293 109.584L41.9395 110.434ZM38.4238 108.266H41.1191C41.0931 108.021 41.0182 107.808 40.8945 107.626C40.7741 107.444 40.6162 107.302 40.4209 107.201C40.2288 107.097 40.0124 107.045 39.7715 107.045C39.5273 107.045 39.3092 107.097 39.1172 107.201C38.9251 107.305 38.7689 107.45 38.6484 107.636C38.528 107.818 38.4531 108.028 38.4238 108.266ZM45.5283 111V103.676H47.9502C48.5622 103.676 49.0879 103.773 49.5273 103.969C49.9701 104.164 50.3086 104.442 50.543 104.804C50.7806 105.165 50.8994 105.596 50.8994 106.098C50.8994 106.596 50.7806 107.027 50.543 107.392C50.3086 107.756 49.9717 108.038 49.5322 108.236C49.0928 108.432 48.5687 108.529 47.96 108.529H46.8174V111H45.5283ZM46.8174 107.401H47.8281C48.3913 107.401 48.8242 107.287 49.127 107.06C49.4297 106.828 49.5811 106.508 49.5811 106.098C49.5811 105.688 49.4297 105.37 49.127 105.146C48.8242 104.921 48.3913 104.809 47.8281 104.809H46.8174V107.401ZM55.9824 110.434C55.3737 110.876 54.708 111.098 53.9854 111.098C53.4613 111.098 52.9909 110.984 52.5742 110.756C52.1576 110.528 51.8271 110.217 51.583 109.823C51.3421 109.426 51.2217 108.98 51.2217 108.485C51.2217 108.013 51.3307 107.592 51.5488 107.221C51.7702 106.85 52.0713 106.557 52.4521 106.342C52.8363 106.127 53.2692 106.02 53.751 106.02C54.2523 106.02 54.6917 106.138 55.0693 106.376C55.4502 106.61 55.7464 106.938 55.958 107.357C56.1696 107.774 56.2754 108.259 56.2754 108.812V108.969H52.5156C52.5742 109.19 52.6768 109.385 52.8232 109.555C52.973 109.724 53.1585 109.856 53.3799 109.95C53.6012 110.045 53.8503 110.092 54.127 110.092C54.6478 110.092 55.1296 109.923 55.5723 109.584L55.9824 110.434ZM52.4668 108.266H55.1621C55.1361 108.021 55.0612 107.808 54.9375 107.626C54.8171 107.444 54.6592 107.302 54.4639 107.201C54.2718 107.097 54.0553 107.045 53.8145 107.045C53.5703 107.045 53.3522 107.097 53.1602 107.201C52.9681 107.305 52.8118 107.45 52.6914 107.636C52.571 107.818 52.4961 108.028 52.4668 108.266ZM61.4658 111H60.4209L60.3525 110.399C60.1735 110.621 59.9505 110.793 59.6836 110.917C59.4167 111.037 59.1204 111.098 58.7949 111.098C58.4499 111.098 58.1423 111.031 57.8721 110.897C57.6019 110.761 57.3887 110.575 57.2324 110.341C57.0794 110.106 57.0029 109.84 57.0029 109.54C57.0029 109.224 57.0859 108.948 57.252 108.71C57.4212 108.469 57.6507 108.28 57.9404 108.144C58.2334 108.007 58.5671 107.938 58.9414 107.938C59.1693 107.938 59.3971 107.965 59.625 108.017C59.8561 108.069 60.0693 108.142 60.2646 108.236V108.08C60.2646 107.865 60.2061 107.68 60.0889 107.523C59.9717 107.367 59.8138 107.247 59.6152 107.162C59.4167 107.074 59.1937 107.03 58.9463 107.03C58.7217 107.03 58.4971 107.069 58.2725 107.147C58.0479 107.222 57.8379 107.335 57.6426 107.484L57.3008 106.542C57.6133 106.369 57.9323 106.239 58.2578 106.151C58.5866 106.063 58.9072 106.02 59.2197 106.02C59.6787 106.02 60.0758 106.111 60.4111 106.293C60.7464 106.472 61.0052 106.729 61.1875 107.064C61.373 107.396 61.4658 107.789 61.4658 108.241V111ZM59.0439 110.131C59.2555 110.131 59.4508 110.087 59.6299 109.999C59.8122 109.911 59.9603 109.789 60.0742 109.633C60.1914 109.473 60.2533 109.291 60.2598 109.086V109.032C60.1068 108.922 59.9342 108.837 59.7422 108.778C59.5501 108.716 59.3564 108.686 59.1611 108.686C58.8617 108.686 58.6159 108.754 58.4238 108.891C58.2318 109.024 58.1357 109.2 58.1357 109.418C58.1357 109.551 58.1748 109.674 58.2529 109.784C58.3311 109.892 58.4385 109.976 58.5752 110.038C58.7152 110.1 58.8714 110.131 59.0439 110.131Z" fill="white"/>
<path d="M14.6494 23V15.6758H16.9541C17.8428 15.6758 18.611 15.8239 19.2588 16.1201C19.9066 16.4163 20.4062 16.8395 20.7578 17.3896C21.1094 17.9365 21.2852 18.5859 21.2852 19.3379C21.2852 20.0866 21.1094 20.736 20.7578 21.2861C20.4062 21.8363 19.9066 22.2594 19.2588 22.5557C18.611 22.8519 17.8428 23 16.9541 23H14.6494ZM15.9385 21.8672H17.0029C17.6312 21.8672 18.165 21.7695 18.6045 21.5742C19.0472 21.3757 19.3841 21.0876 19.6152 20.71C19.8496 20.3324 19.9668 19.875 19.9668 19.3379C19.9668 18.8008 19.8496 18.3434 19.6152 17.9658C19.3841 17.5882 19.0472 17.3018 18.6045 17.1064C18.165 16.9079 17.6312 16.8086 17.0029 16.8086H15.9385V21.8672ZM27.1738 23H26.1826L26.1436 22.2139C25.9678 22.5003 25.7367 22.7201 25.4502 22.873C25.1637 23.0228 24.8252 23.0977 24.4346 23.0977C23.8063 23.0977 23.3099 22.9056 22.9453 22.5215C22.584 22.1341 22.4033 21.6019 22.4033 20.9248V18.1172H23.6045V20.6953C23.6045 21.1022 23.707 21.4245 23.9121 21.6621C24.1204 21.8965 24.402 22.0137 24.7568 22.0137C25.1247 22.0137 25.4193 21.8883 25.6406 21.6377C25.862 21.387 25.9727 21.0534 25.9727 20.6367V18.1172H27.1738V23ZM28.1357 22.5801L28.4092 21.5352C28.5166 21.6426 28.6501 21.7402 28.8096 21.8281C28.9691 21.916 29.1383 21.986 29.3174 22.0381C29.4997 22.0869 29.6771 22.1113 29.8496 22.1113C30.0807 22.1113 30.2663 22.0641 30.4062 21.9697C30.5462 21.8721 30.6162 21.7451 30.6162 21.5889C30.6162 21.4652 30.5739 21.3626 30.4893 21.2812C30.4046 21.1966 30.2939 21.1234 30.1572 21.0615C30.0205 20.9964 29.8708 20.9329 29.708 20.8711C29.4932 20.793 29.2751 20.7002 29.0537 20.5928C28.8324 20.4821 28.6468 20.3372 28.4971 20.1582C28.3506 19.9759 28.2773 19.735 28.2773 19.4355C28.2773 19.1458 28.3506 18.8952 28.4971 18.6836C28.6468 18.472 28.8551 18.3092 29.1221 18.1953C29.389 18.0781 29.6999 18.0195 30.0547 18.0195C30.6146 18.0195 31.1729 18.1595 31.7295 18.4395L31.3828 19.4258C31.2786 19.3477 31.1517 19.276 31.002 19.2109C30.8522 19.1458 30.6992 19.0938 30.543 19.0547C30.3867 19.0156 30.2451 18.9961 30.1182 18.9961C29.9326 18.9961 29.7845 19.0368 29.6738 19.1182C29.5632 19.1995 29.5078 19.307 29.5078 19.4404C29.5078 19.5316 29.5387 19.6146 29.6006 19.6895C29.6624 19.7611 29.7585 19.8311 29.8887 19.8994C30.0189 19.9678 30.1865 20.0443 30.3916 20.1289C30.613 20.2135 30.8343 20.3128 31.0557 20.4268C31.2803 20.5374 31.4674 20.6855 31.6172 20.8711C31.7702 21.0534 31.8467 21.2959 31.8467 21.5986C31.8467 21.8981 31.7653 22.1602 31.6025 22.3848C31.443 22.6094 31.2184 22.7852 30.9287 22.9121C30.6423 23.0358 30.307 23.0977 29.9229 23.0977C29.2848 23.0977 28.6891 22.9251 28.1357 22.5801ZM35.9727 22.873C35.6146 23.0228 35.2679 23.0977 34.9326 23.0977C34.5908 23.0977 34.2897 23.0244 34.0293 22.8779C33.7721 22.7314 33.5703 22.528 33.4238 22.2676C33.2806 22.0039 33.209 21.6979 33.209 21.3496V19.1914H32.3545V18.1172H33.2725V16.8965H34.4102V18.1172H35.8018V19.1914H34.4102V21.1299C34.4102 21.4066 34.485 21.6247 34.6348 21.7842C34.7878 21.9437 34.9782 22.0234 35.2061 22.0234C35.4079 22.0234 35.6081 21.9616 35.8066 21.8379L35.9727 22.873ZM38.9902 25.4414H37.7061L38.7217 22.9805L36.2998 18.1172H37.6523L39.293 21.6084L40.7383 18.1172H42.0225L38.9902 25.4414ZM48.165 23H46.876V16.8086H44.6494V15.6758H50.3867V16.8086H48.165V23ZM54.8105 22.4336C54.2018 22.8763 53.5361 23.0977 52.8135 23.0977C52.2894 23.0977 51.819 22.9837 51.4023 22.7559C50.9857 22.528 50.6553 22.2171 50.4111 21.8232C50.1702 21.4261 50.0498 20.9801 50.0498 20.4854C50.0498 20.0133 50.1589 19.5918 50.377 19.2207C50.5983 18.8496 50.8994 18.5566 51.2803 18.3418C51.6644 18.127 52.0973 18.0195 52.5791 18.0195C53.0804 18.0195 53.5199 18.1383 53.8975 18.376C54.2783 18.6104 54.5745 18.9375 54.7861 19.3574C54.9977 19.7741 55.1035 20.2591 55.1035 20.8125V20.9688H51.3438C51.4023 21.1901 51.5049 21.3854 51.6514 21.5547C51.8011 21.724 51.9867 21.8558 52.208 21.9502C52.4294 22.0446 52.6784 22.0918 52.9551 22.0918C53.4759 22.0918 53.9577 21.9225 54.4004 21.584L54.8105 22.4336ZM51.2949 20.2656H53.9902C53.9642 20.0215 53.8893 19.8083 53.7656 19.626C53.6452 19.4437 53.4873 19.3021 53.292 19.2012C53.0999 19.097 52.8835 19.0449 52.6426 19.0449C52.3984 19.0449 52.1803 19.097 51.9883 19.2012C51.7962 19.3053 51.64 19.4502 51.5195 19.6357C51.3991 19.818 51.3242 20.028 51.2949 20.2656ZM60.2939 23H59.249L59.1807 22.3994C59.0016 22.6208 58.7786 22.7933 58.5117 22.917C58.2448 23.0374 57.9486 23.0977 57.623 23.0977C57.278 23.0977 56.9704 23.0309 56.7002 22.8975C56.43 22.7607 56.2168 22.5752 56.0605 22.3408C55.9076 22.1064 55.8311 21.8395 55.8311 21.54C55.8311 21.2243 55.9141 20.9476 56.0801 20.71C56.2493 20.4691 56.4788 20.2803 56.7686 20.1436C57.0615 20.0068 57.3952 19.9385 57.7695 19.9385C57.9974 19.9385 58.2253 19.9645 58.4531 20.0166C58.6842 20.0687 58.8975 20.1419 59.0928 20.2363V20.0801C59.0928 19.8652 59.0342 19.6797 58.917 19.5234C58.7998 19.3672 58.6419 19.2467 58.4434 19.1621C58.2448 19.0742 58.0218 19.0303 57.7744 19.0303C57.5498 19.0303 57.3252 19.0693 57.1006 19.1475C56.876 19.2223 56.666 19.3346 56.4707 19.4844L56.1289 18.542C56.4414 18.3695 56.7604 18.2393 57.0859 18.1514C57.4147 18.0635 57.7354 18.0195 58.0479 18.0195C58.5068 18.0195 58.904 18.1107 59.2393 18.293C59.5745 18.472 59.8333 18.7292 60.0156 19.0645C60.2012 19.3965 60.2939 19.7887 60.2939 20.2412V23ZM57.8721 22.1309C58.0837 22.1309 58.279 22.0869 58.458 21.999C58.6403 21.9111 58.7884 21.7891 58.9023 21.6328C59.0195 21.4733 59.0814 21.291 59.0879 21.0859V21.0322C58.9349 20.9215 58.7624 20.8369 58.5703 20.7783C58.3783 20.7165 58.1846 20.6855 57.9893 20.6855C57.6898 20.6855 57.444 20.7539 57.252 20.8906C57.0599 21.0241 56.9639 21.1999 56.9639 21.418C56.9639 21.5514 57.0029 21.6735 57.0811 21.7842C57.1592 21.8916 57.2666 21.9762 57.4033 22.0381C57.5433 22.0999 57.6995 22.1309 57.8721 22.1309ZM62.7793 23H61.4951V15.4805H62.7793V23Z" fill="white"/>
<path d="M127.33 23H126.041V17.5068L124.005 21.7695H122.965L120.938 17.5312V23H119.649V15.6758H121.29L123.487 20.3584L125.68 15.6758H127.33V23ZM130.904 23.0977C130.406 23.0977 129.96 22.987 129.566 22.7656C129.176 22.5443 128.867 22.2432 128.639 21.8623C128.414 21.4782 128.302 21.0436 128.302 20.5586C128.302 20.0736 128.414 19.6406 128.639 19.2598C128.867 18.8757 129.176 18.5729 129.566 18.3516C129.96 18.1302 130.406 18.0195 130.904 18.0195C131.399 18.0195 131.842 18.1302 132.232 18.3516C132.623 18.5729 132.929 18.8757 133.15 19.2598C133.375 19.6406 133.487 20.0736 133.487 20.5586C133.487 21.0436 133.375 21.4782 133.15 21.8623C132.929 22.2432 132.623 22.5443 132.232 22.7656C131.842 22.987 131.399 23.0977 130.904 23.0977ZM130.895 22.0186C131.155 22.0186 131.388 21.9551 131.593 21.8281C131.798 21.7012 131.959 21.527 132.076 21.3057C132.197 21.0843 132.257 20.8337 132.257 20.5537C132.257 20.277 132.197 20.0296 132.076 19.8115C131.959 19.5902 131.798 19.416 131.593 19.2891C131.388 19.1621 131.155 19.0986 130.895 19.0986C130.637 19.0986 130.405 19.1621 130.196 19.2891C129.991 19.416 129.828 19.5902 129.708 19.8115C129.591 20.0296 129.532 20.277 129.532 20.5537C129.532 20.8337 129.591 21.0843 129.708 21.3057C129.828 21.527 129.991 21.7012 130.196 21.8281C130.405 21.9551 130.637 22.0186 130.895 22.0186ZM139.225 23H138.023V20.4219C138.023 20.015 137.919 19.6943 137.711 19.46C137.503 19.2223 137.221 19.1035 136.866 19.1035C136.502 19.1035 136.209 19.2288 135.987 19.4795C135.766 19.7269 135.655 20.0605 135.655 20.4805V23H134.454V18.1172H135.445L135.484 18.9033C135.66 18.6169 135.891 18.3988 136.178 18.249C136.467 18.096 136.806 18.0195 137.193 18.0195C137.825 18.0195 138.321 18.2116 138.683 18.5957C139.044 18.9798 139.225 19.5104 139.225 20.1875V23ZM144.859 22.4336C144.251 22.8763 143.585 23.0977 142.862 23.0977C142.338 23.0977 141.868 22.9837 141.451 22.7559C141.035 22.528 140.704 22.2171 140.46 21.8232C140.219 21.4261 140.099 20.9801 140.099 20.4854C140.099 20.0133 140.208 19.5918 140.426 19.2207C140.647 18.8496 140.948 18.5566 141.329 18.3418C141.713 18.127 142.146 18.0195 142.628 18.0195C143.129 18.0195 143.569 18.1383 143.946 18.376C144.327 18.6104 144.623 18.9375 144.835 19.3574C145.047 19.7741 145.152 20.2591 145.152 20.8125V20.9688H141.393C141.451 21.1901 141.554 21.3854 141.7 21.5547C141.85 21.724 142.035 21.8558 142.257 21.9502C142.478 22.0446 142.727 22.0918 143.004 22.0918C143.525 22.0918 144.007 21.9225 144.449 21.584L144.859 22.4336ZM141.344 20.2656H144.039C144.013 20.0215 143.938 19.8083 143.814 19.626C143.694 19.4437 143.536 19.3021 143.341 19.2012C143.149 19.097 142.932 19.0449 142.691 19.0449C142.447 19.0449 142.229 19.097 142.037 19.2012C141.845 19.3053 141.689 19.4502 141.568 19.6357C141.448 19.818 141.373 20.028 141.344 20.2656ZM148.092 25.4414H146.808L147.823 22.9805L145.401 18.1172H146.754L148.395 21.6084L149.84 18.1172H151.124L148.092 25.4414ZM152.633 24.7578L152.569 23.6299C153.146 23.6299 153.575 23.4915 153.858 23.2148C154.142 22.9414 154.283 22.5264 154.283 21.9697V15.6758H155.572V21.9502C155.572 22.611 155.471 23.1481 155.27 23.5615C155.068 23.9749 154.75 24.2777 154.317 24.4697C153.888 24.6618 153.326 24.7578 152.633 24.7578ZM161.095 23H160.05L159.981 22.3994C159.802 22.6208 159.579 22.7933 159.312 22.917C159.046 23.0374 158.749 23.0977 158.424 23.0977C158.079 23.0977 157.771 23.0309 157.501 22.8975C157.231 22.7607 157.018 22.5752 156.861 22.3408C156.708 22.1064 156.632 21.8395 156.632 21.54C156.632 21.2243 156.715 20.9476 156.881 20.71C157.05 20.4691 157.28 20.2803 157.569 20.1436C157.862 20.0068 158.196 19.9385 158.57 19.9385C158.798 19.9385 159.026 19.9645 159.254 20.0166C159.485 20.0687 159.698 20.1419 159.894 20.2363V20.0801C159.894 19.8652 159.835 19.6797 159.718 19.5234C159.601 19.3672 159.443 19.2467 159.244 19.1621C159.046 19.0742 158.823 19.0303 158.575 19.0303C158.351 19.0303 158.126 19.0693 157.901 19.1475C157.677 19.2223 157.467 19.3346 157.271 19.4844L156.93 18.542C157.242 18.3695 157.561 18.2393 157.887 18.1514C158.215 18.0635 158.536 18.0195 158.849 18.0195C159.308 18.0195 159.705 18.1107 160.04 18.293C160.375 18.472 160.634 18.7292 160.816 19.0645C161.002 19.3965 161.095 19.7887 161.095 20.2412V23ZM158.673 22.1309C158.884 22.1309 159.08 22.0869 159.259 21.999C159.441 21.9111 159.589 21.7891 159.703 21.6328C159.82 21.4733 159.882 21.291 159.889 21.0859V21.0322C159.736 20.9215 159.563 20.8369 159.371 20.7783C159.179 20.7165 158.985 20.6855 158.79 20.6855C158.491 20.6855 158.245 20.7539 158.053 20.8906C157.861 21.0241 157.765 21.1999 157.765 21.418C157.765 21.5514 157.804 21.6735 157.882 21.7842C157.96 21.8916 158.067 21.9762 158.204 22.0381C158.344 22.0999 158.5 22.1309 158.673 22.1309ZM167.237 23H166.178L166.114 22.3164C165.903 22.5605 165.646 22.7526 165.343 22.8926C165.04 23.0293 164.711 23.0977 164.356 23.0977C163.897 23.0977 163.487 22.987 163.126 22.7656C162.765 22.5443 162.48 22.2432 162.271 21.8623C162.066 21.4782 161.964 21.0436 161.964 20.5586C161.964 20.0736 162.066 19.6406 162.271 19.2598C162.48 18.8757 162.765 18.5729 163.126 18.3516C163.487 18.1302 163.897 18.0195 164.356 18.0195C164.692 18.0195 165.003 18.0798 165.289 18.2002C165.576 18.3206 165.825 18.4899 166.036 18.708V15.6758H167.237V23ZM164.62 22.0186C164.881 22.0186 165.118 21.96 165.333 21.8428C165.548 21.7223 165.719 21.5579 165.846 21.3496C165.973 21.1413 166.036 20.9036 166.036 20.6367V20.4658C166.036 20.2021 165.973 19.9678 165.846 19.7627C165.719 19.5544 165.548 19.3916 165.333 19.2744C165.118 19.154 164.881 19.0938 164.62 19.0938C164.347 19.0938 164.103 19.1589 163.888 19.2891C163.673 19.416 163.504 19.5902 163.38 19.8115C163.256 20.0296 163.194 20.277 163.194 20.5537C163.194 20.8337 163.256 21.0843 163.38 21.3057C163.504 21.527 163.673 21.7012 163.888 21.8281C164.103 21.9551 164.347 22.0186 164.62 22.0186ZM172.965 22.4336C172.356 22.8763 171.69 23.0977 170.968 23.0977C170.444 23.0977 169.973 22.9837 169.557 22.7559C169.14 22.528 168.81 22.2171 168.565 21.8232C168.325 21.4261 168.204 20.9801 168.204 20.4854C168.204 20.0133 168.313 19.5918 168.531 19.2207C168.753 18.8496 169.054 18.5566 169.435 18.3418C169.819 18.127 170.252 18.0195 170.733 18.0195C171.235 18.0195 171.674 18.1383 172.052 18.376C172.433 18.6104 172.729 18.9375 172.94 19.3574C173.152 19.7741 173.258 20.2591 173.258 20.8125V20.9688H169.498C169.557 21.1901 169.659 21.3854 169.806 21.5547C169.955 21.724 170.141 21.8558 170.362 21.9502C170.584 22.0446 170.833 22.0918 171.109 22.0918C171.63 22.0918 172.112 21.9225 172.555 21.584L172.965 22.4336ZM169.449 20.2656H172.145C172.118 20.0215 172.044 19.8083 171.92 19.626C171.799 19.4437 171.642 19.3021 171.446 19.2012C171.254 19.097 171.038 19.0449 170.797 19.0449C170.553 19.0449 170.335 19.097 170.143 19.2012C169.951 19.3053 169.794 19.4502 169.674 19.6357C169.553 19.818 169.479 20.028 169.449 20.2656Z" fill="white"/>
<path d="M224.308 22.2383L224.918 21.252C225.143 21.4277 225.359 21.5742 225.567 21.6914C225.776 21.8053 225.986 21.89 226.197 21.9453C226.409 22.0007 226.624 22.0283 226.842 22.0283C227.122 22.0283 227.364 21.986 227.569 21.9014C227.778 21.8135 227.939 21.693 228.053 21.54C228.167 21.387 228.224 21.208 228.224 21.0029C228.224 20.7718 228.154 20.5798 228.014 20.4268C227.877 20.2705 227.696 20.137 227.472 20.0264C227.247 19.9124 227.006 19.8018 226.749 19.6943C226.515 19.5967 226.277 19.4909 226.036 19.377C225.799 19.263 225.582 19.1279 225.387 18.9717C225.191 18.8122 225.034 18.6201 224.913 18.3955C224.796 18.1709 224.737 17.8991 224.737 17.5801C224.737 17.1667 224.841 16.807 225.05 16.501C225.258 16.1917 225.546 15.9541 225.914 15.7881C226.282 15.6188 226.702 15.5342 227.174 15.5342C227.506 15.5342 227.846 15.5781 228.194 15.666C228.546 15.7507 228.893 15.8809 229.234 16.0566L228.722 17.0967C228.491 16.96 228.245 16.8542 227.984 16.7793C227.724 16.7012 227.475 16.6621 227.237 16.6621C227.003 16.6621 226.796 16.6995 226.617 16.7744C226.441 16.846 226.303 16.9502 226.202 17.0869C226.104 17.2204 226.056 17.3766 226.056 17.5557C226.056 17.7673 226.121 17.9463 226.251 18.0928C226.384 18.2393 226.559 18.3695 226.773 18.4834C226.988 18.5941 227.218 18.7031 227.462 18.8105C227.706 18.918 227.95 19.0335 228.194 19.1572C228.442 19.2777 228.666 19.4209 228.868 19.5869C229.073 19.7529 229.236 19.9515 229.356 20.1826C229.48 20.4137 229.542 20.6921 229.542 21.0176C229.542 21.4408 229.431 21.8135 229.21 22.1357C228.992 22.4548 228.684 22.7038 228.287 22.8828C227.89 23.0586 227.426 23.1465 226.896 23.1465C226.42 23.1465 225.965 23.07 225.528 22.917C225.092 22.764 224.685 22.5378 224.308 22.2383ZM231.207 16.8232C231.038 16.8232 230.895 16.7646 230.777 16.6475C230.663 16.527 230.606 16.3822 230.606 16.2129C230.606 16.0469 230.663 15.9053 230.777 15.7881C230.895 15.6676 231.038 15.6074 231.207 15.6074C231.38 15.6074 231.524 15.6676 231.642 15.7881C231.759 15.9053 231.817 16.0469 231.817 16.2129C231.817 16.3822 231.759 16.527 231.642 16.6475C231.524 16.7646 231.38 16.8232 231.207 16.8232ZM231.808 23H230.606V18.1172H231.808V23ZM234.41 23H233.126V15.4805H234.41V23ZM240.514 18.1172L238.497 23H237.335L235.323 18.1172H236.612L237.921 21.7793L239.234 18.1172H240.514ZM245.709 22.4336C245.1 22.8763 244.435 23.0977 243.712 23.0977C243.188 23.0977 242.717 22.9837 242.301 22.7559C241.884 22.528 241.554 22.2171 241.31 21.8232C241.069 21.4261 240.948 20.9801 240.948 20.4854C240.948 20.0133 241.057 19.5918 241.275 19.2207C241.497 18.8496 241.798 18.5566 242.179 18.3418C242.563 18.127 242.996 18.0195 243.478 18.0195C243.979 18.0195 244.418 18.1383 244.796 18.376C245.177 18.6104 245.473 18.9375 245.685 19.3574C245.896 19.7741 246.002 20.2591 246.002 20.8125V20.9688H242.242C242.301 21.1901 242.403 21.3854 242.55 21.5547C242.7 21.724 242.885 21.8558 243.106 21.9502C243.328 22.0446 243.577 22.0918 243.854 22.0918C244.374 22.0918 244.856 21.9225 245.299 21.584L245.709 22.4336ZM242.193 20.2656H244.889C244.863 20.0215 244.788 19.8083 244.664 19.626C244.544 19.4437 244.386 19.3021 244.19 19.2012C243.998 19.097 243.782 19.0449 243.541 19.0449C243.297 19.0449 243.079 19.097 242.887 19.2012C242.695 19.3053 242.538 19.4502 242.418 19.6357C242.298 19.818 242.223 20.028 242.193 20.2656ZM248.175 23H246.974V18.1172H248.019L248.062 19.0059C248.232 18.6934 248.46 18.4508 248.746 18.2783C249.036 18.1058 249.368 18.0195 249.742 18.0195C249.84 18.0195 249.939 18.026 250.04 18.0391C250.144 18.0521 250.247 18.0716 250.348 18.0977L250.201 19.1816C249.999 19.123 249.804 19.0938 249.615 19.0938C249.329 19.0938 249.076 19.1605 248.858 19.2939C248.644 19.4274 248.476 19.613 248.355 19.8506C248.235 20.085 248.175 20.3584 248.175 20.6709V23ZM259.674 22.0723C259.335 22.4108 258.932 22.6745 258.463 22.8633C257.997 23.0521 257.488 23.1465 256.935 23.1465C256.384 23.1465 255.875 23.0521 255.406 22.8633C254.938 22.6745 254.531 22.4092 254.186 22.0674C253.84 21.7223 253.572 21.3187 253.38 20.8564C253.191 20.391 253.097 19.8848 253.097 19.3379C253.097 18.7878 253.191 18.2816 253.38 17.8193C253.572 17.3571 253.84 16.9551 254.186 16.6133C254.531 16.2682 254.938 16.0013 255.406 15.8125C255.875 15.6237 256.384 15.5293 256.935 15.5293C257.485 15.5293 257.993 15.6237 258.458 15.8125C258.924 16.0013 259.326 16.2633 259.664 16.5986L258.766 17.5117C258.541 17.2448 258.271 17.0365 257.955 16.8867C257.639 16.737 257.293 16.6621 256.915 16.6621C256.557 16.6621 256.225 16.7288 255.919 16.8623C255.616 16.9958 255.353 17.1829 255.128 17.4238C254.903 17.6647 254.728 17.9479 254.601 18.2734C254.477 18.599 254.415 18.9538 254.415 19.3379C254.415 19.722 254.477 20.0768 254.601 20.4023C254.728 20.7246 254.903 21.0078 255.128 21.252C255.353 21.4928 255.616 21.68 255.919 21.8135C256.225 21.9469 256.557 22.0137 256.915 22.0137C257.293 22.0137 257.639 21.9388 257.955 21.7891C258.271 21.6393 258.541 21.431 258.766 21.1641L259.674 22.0723ZM260.753 23V15.6758H261.954V18.7422C262.312 18.2604 262.838 18.0195 263.531 18.0195C264.156 18.0195 264.645 18.2116 264.996 18.5957C265.348 18.9766 265.523 19.5072 265.523 20.1875V23H264.322V20.4951C264.322 20.0524 264.22 19.709 264.015 19.4648C263.81 19.2174 263.521 19.0938 263.15 19.0938C262.776 19.0938 262.483 19.2191 262.271 19.4697C262.06 19.7171 261.954 20.0589 261.954 20.4951V23H260.753ZM270.948 23H269.903L269.835 22.3994C269.656 22.6208 269.433 22.7933 269.166 22.917C268.899 23.0374 268.603 23.0977 268.277 23.0977C267.932 23.0977 267.625 23.0309 267.354 22.8975C267.084 22.7607 266.871 22.5752 266.715 22.3408C266.562 22.1064 266.485 21.8395 266.485 21.54C266.485 21.2243 266.568 20.9476 266.734 20.71C266.904 20.4691 267.133 20.2803 267.423 20.1436C267.716 20.0068 268.049 19.9385 268.424 19.9385C268.652 19.9385 268.88 19.9645 269.107 20.0166C269.339 20.0687 269.552 20.1419 269.747 20.2363V20.0801C269.747 19.8652 269.688 19.6797 269.571 19.5234C269.454 19.3672 269.296 19.2467 269.098 19.1621C268.899 19.0742 268.676 19.0303 268.429 19.0303C268.204 19.0303 267.979 19.0693 267.755 19.1475C267.53 19.2223 267.32 19.3346 267.125 19.4844L266.783 18.542C267.096 18.3695 267.415 18.2393 267.74 18.1514C268.069 18.0635 268.39 18.0195 268.702 18.0195C269.161 18.0195 269.558 18.1107 269.894 18.293C270.229 18.472 270.488 18.7292 270.67 19.0645C270.855 19.3965 270.948 19.7887 270.948 20.2412V23ZM268.526 22.1309C268.738 22.1309 268.933 22.0869 269.112 21.999C269.295 21.9111 269.443 21.7891 269.557 21.6328C269.674 21.4733 269.736 21.291 269.742 21.0859V21.0322C269.589 20.9215 269.417 20.8369 269.225 20.7783C269.033 20.7165 268.839 20.6855 268.644 20.6855C268.344 20.6855 268.098 20.7539 267.906 20.8906C267.714 21.0241 267.618 21.1999 267.618 21.418C267.618 21.5514 267.657 21.6735 267.735 21.7842C267.813 21.8916 267.921 21.9762 268.058 22.0381C268.198 22.0999 268.354 22.1309 268.526 22.1309ZM273.434 23H272.149V15.4805H273.434V23ZM275.348 16.8232C275.178 16.8232 275.035 16.7646 274.918 16.6475C274.804 16.527 274.747 16.3822 274.747 16.2129C274.747 16.0469 274.804 15.9053 274.918 15.7881C275.035 15.6676 275.178 15.6074 275.348 15.6074C275.52 15.6074 275.665 15.6676 275.782 15.7881C275.899 15.9053 275.958 16.0469 275.958 16.2129C275.958 16.3822 275.899 16.527 275.782 16.6475C275.665 16.7646 275.52 16.8232 275.348 16.8232ZM275.948 23H274.747V18.1172H275.948V23ZM281.505 22.248C281.267 22.5182 280.979 22.7282 280.641 22.8779C280.302 23.0244 279.933 23.0977 279.532 23.0977C279.037 23.0977 278.593 22.987 278.199 22.7656C277.809 22.5443 277.499 22.2432 277.271 21.8623C277.047 21.4782 276.935 21.0436 276.935 20.5586C276.935 20.0736 277.047 19.6406 277.271 19.2598C277.499 18.8757 277.809 18.5729 278.199 18.3516C278.593 18.1302 279.037 18.0195 279.532 18.0195C279.929 18.0195 280.296 18.0928 280.631 18.2393C280.969 18.3857 281.257 18.5924 281.495 18.8594L280.792 19.6064C280.646 19.4469 280.468 19.3232 280.26 19.2354C280.055 19.1475 279.837 19.1035 279.605 19.1035C279.326 19.1035 279.076 19.1654 278.858 19.2891C278.644 19.4128 278.474 19.5837 278.351 19.8018C278.23 20.0199 278.17 20.2705 278.17 20.5537C278.17 20.8369 278.23 21.0892 278.351 21.3105C278.474 21.5286 278.644 21.7012 278.858 21.8281C279.076 21.9518 279.326 22.0137 279.605 22.0137C279.837 22.0137 280.056 21.9697 280.265 21.8818C280.473 21.7907 280.649 21.667 280.792 21.5107L281.505 22.248ZM286.881 22.4336C286.272 22.8763 285.606 23.0977 284.884 23.0977C284.36 23.0977 283.889 22.9837 283.473 22.7559C283.056 22.528 282.726 22.2171 282.481 21.8232C282.241 21.4261 282.12 20.9801 282.12 20.4854C282.12 20.0133 282.229 19.5918 282.447 19.2207C282.669 18.8496 282.97 18.5566 283.351 18.3418C283.735 18.127 284.168 18.0195 284.649 18.0195C285.151 18.0195 285.59 18.1383 285.968 18.376C286.349 18.6104 286.645 18.9375 286.856 19.3574C287.068 19.7741 287.174 20.2591 287.174 20.8125V20.9688H283.414C283.473 21.1901 283.575 21.3854 283.722 21.5547C283.871 21.724 284.057 21.8558 284.278 21.9502C284.5 22.0446 284.749 22.0918 285.025 22.0918C285.546 22.0918 286.028 21.9225 286.471 21.584L286.881 22.4336ZM283.365 20.2656H286.061C286.035 20.0215 285.96 19.8083 285.836 19.626C285.715 19.4437 285.558 19.3021 285.362 19.2012C285.17 19.097 284.954 19.0449 284.713 19.0449C284.469 19.0449 284.251 19.097 284.059 19.2012C283.867 19.3053 283.71 19.4502 283.59 19.6357C283.469 19.818 283.395 20.028 283.365 20.2656Z" fill="white"/>
<path d="M224.649 111V103.676H227.325C228.08 103.676 228.67 103.842 229.093 104.174C229.519 104.503 229.732 104.96 229.732 105.546C229.732 105.927 229.641 106.262 229.459 106.552C229.277 106.838 229.033 107.051 228.727 107.191C229.153 107.309 229.487 107.52 229.728 107.826C229.968 108.132 230.089 108.508 230.089 108.954C230.089 109.364 229.988 109.724 229.786 110.033C229.584 110.339 229.299 110.577 228.932 110.746C228.567 110.915 228.137 111 227.643 111H224.649ZM225.938 106.796H227.257C227.628 106.796 227.921 106.706 228.136 106.527C228.351 106.345 228.458 106.099 228.458 105.79C228.458 105.487 228.347 105.248 228.126 105.072C227.908 104.896 227.608 104.809 227.228 104.809H225.938V106.796ZM225.938 109.867H227.33C227.623 109.867 227.877 109.823 228.092 109.735C228.307 109.644 228.473 109.519 228.59 109.359C228.71 109.197 228.771 109.006 228.771 108.788C228.771 108.576 228.715 108.394 228.604 108.241C228.494 108.085 228.338 107.966 228.136 107.885C227.934 107.8 227.693 107.758 227.413 107.758H225.938V109.867ZM232.369 111H231.085V103.48H232.369V111ZM237.892 111H236.847L236.778 110.399C236.599 110.621 236.376 110.793 236.109 110.917C235.842 111.037 235.546 111.098 235.221 111.098C234.876 111.098 234.568 111.031 234.298 110.897C234.028 110.761 233.814 110.575 233.658 110.341C233.505 110.106 233.429 109.84 233.429 109.54C233.429 109.224 233.512 108.948 233.678 108.71C233.847 108.469 234.076 108.28 234.366 108.144C234.659 108.007 234.993 107.938 235.367 107.938C235.595 107.938 235.823 107.965 236.051 108.017C236.282 108.069 236.495 108.142 236.69 108.236V108.08C236.69 107.865 236.632 107.68 236.515 107.523C236.397 107.367 236.24 107.247 236.041 107.162C235.842 107.074 235.619 107.03 235.372 107.03C235.147 107.03 234.923 107.069 234.698 107.147C234.474 107.222 234.264 107.335 234.068 107.484L233.727 106.542C234.039 106.369 234.358 106.239 234.684 106.151C235.012 106.063 235.333 106.02 235.646 106.02C236.104 106.02 236.502 106.111 236.837 106.293C237.172 106.472 237.431 106.729 237.613 107.064C237.799 107.396 237.892 107.789 237.892 108.241V111ZM235.47 110.131C235.681 110.131 235.877 110.087 236.056 109.999C236.238 109.911 236.386 109.789 236.5 109.633C236.617 109.473 236.679 109.291 236.686 109.086V109.032C236.533 108.922 236.36 108.837 236.168 108.778C235.976 108.716 235.782 108.686 235.587 108.686C235.287 108.686 235.042 108.754 234.85 108.891C234.658 109.024 234.562 109.2 234.562 109.418C234.562 109.551 234.601 109.674 234.679 109.784C234.757 109.892 234.864 109.976 235.001 110.038C235.141 110.1 235.297 110.131 235.47 110.131ZM243.331 110.248C243.093 110.518 242.805 110.728 242.467 110.878C242.128 111.024 241.759 111.098 241.358 111.098C240.864 111.098 240.419 110.987 240.025 110.766C239.635 110.544 239.326 110.243 239.098 109.862C238.873 109.478 238.761 109.044 238.761 108.559C238.761 108.074 238.873 107.641 239.098 107.26C239.326 106.876 239.635 106.573 240.025 106.352C240.419 106.13 240.864 106.02 241.358 106.02C241.756 106.02 242.122 106.093 242.457 106.239C242.796 106.386 243.084 106.592 243.321 106.859L242.618 107.606C242.472 107.447 242.294 107.323 242.086 107.235C241.881 107.147 241.663 107.104 241.432 107.104C241.152 107.104 240.903 107.165 240.685 107.289C240.47 107.413 240.3 107.584 240.177 107.802C240.056 108.02 239.996 108.271 239.996 108.554C239.996 108.837 240.056 109.089 240.177 109.311C240.3 109.529 240.47 109.701 240.685 109.828C240.903 109.952 241.152 110.014 241.432 110.014C241.663 110.014 241.882 109.97 242.091 109.882C242.299 109.791 242.475 109.667 242.618 109.511L243.331 110.248ZM245.479 111H244.278V103.676H245.479V108.397L245.924 107.855L247.569 106.117H249.078L247.037 108.275L249.337 111H247.789L246.207 109.052L245.479 109.77V111Z" fill="white"/>
<path d="M119.308 110.238L119.918 109.252C120.143 109.428 120.359 109.574 120.567 109.691C120.776 109.805 120.986 109.89 121.197 109.945C121.409 110.001 121.624 110.028 121.842 110.028C122.122 110.028 122.364 109.986 122.569 109.901C122.778 109.813 122.939 109.693 123.053 109.54C123.167 109.387 123.224 109.208 123.224 109.003C123.224 108.772 123.154 108.58 123.014 108.427C122.877 108.271 122.696 108.137 122.472 108.026C122.247 107.912 122.006 107.802 121.749 107.694C121.515 107.597 121.277 107.491 121.036 107.377C120.799 107.263 120.582 107.128 120.387 106.972C120.191 106.812 120.034 106.62 119.913 106.396C119.796 106.171 119.737 105.899 119.737 105.58C119.737 105.167 119.841 104.807 120.05 104.501C120.258 104.192 120.546 103.954 120.914 103.788C121.282 103.619 121.702 103.534 122.174 103.534C122.506 103.534 122.846 103.578 123.194 103.666C123.546 103.751 123.893 103.881 124.234 104.057L123.722 105.097C123.491 104.96 123.245 104.854 122.984 104.779C122.724 104.701 122.475 104.662 122.237 104.662C122.003 104.662 121.796 104.7 121.617 104.774C121.441 104.846 121.303 104.95 121.202 105.087C121.104 105.22 121.056 105.377 121.056 105.556C121.056 105.767 121.121 105.946 121.251 106.093C121.384 106.239 121.559 106.369 121.773 106.483C121.988 106.594 122.218 106.703 122.462 106.811C122.706 106.918 122.95 107.034 123.194 107.157C123.442 107.278 123.666 107.421 123.868 107.587C124.073 107.753 124.236 107.951 124.356 108.183C124.48 108.414 124.542 108.692 124.542 109.018C124.542 109.441 124.431 109.813 124.21 110.136C123.992 110.455 123.684 110.704 123.287 110.883C122.89 111.059 122.426 111.146 121.896 111.146C121.42 111.146 120.965 111.07 120.528 110.917C120.092 110.764 119.685 110.538 119.308 110.238ZM133.473 111H132.271V108.495C132.271 108.052 132.179 107.709 131.993 107.465C131.811 107.217 131.552 107.094 131.217 107.094C130.878 107.094 130.613 107.217 130.421 107.465C130.232 107.712 130.138 108.056 130.138 108.495V111H128.937V108.495C128.937 108.052 128.844 107.709 128.658 107.465C128.473 107.217 128.214 107.094 127.882 107.094C127.54 107.094 127.273 107.217 127.081 107.465C126.892 107.712 126.798 108.056 126.798 108.495V111H125.597V106.117H126.559L126.603 106.947C126.769 106.645 126.988 106.415 127.262 106.259C127.538 106.099 127.864 106.02 128.238 106.02C128.626 106.02 128.959 106.104 129.239 106.273C129.522 106.439 129.739 106.679 129.889 106.991C130.051 106.672 130.274 106.431 130.558 106.269C130.841 106.103 131.174 106.02 131.559 106.02C132.161 106.02 132.63 106.212 132.965 106.596C133.303 106.977 133.473 107.507 133.473 108.188V111ZM136.949 111.098C136.451 111.098 136.005 110.987 135.611 110.766C135.221 110.544 134.911 110.243 134.684 109.862C134.459 109.478 134.347 109.044 134.347 108.559C134.347 108.074 134.459 107.641 134.684 107.26C134.911 106.876 135.221 106.573 135.611 106.352C136.005 106.13 136.451 106.02 136.949 106.02C137.444 106.02 137.887 106.13 138.277 106.352C138.668 106.573 138.974 106.876 139.195 107.26C139.42 107.641 139.532 108.074 139.532 108.559C139.532 109.044 139.42 109.478 139.195 109.862C138.974 110.243 138.668 110.544 138.277 110.766C137.887 110.987 137.444 111.098 136.949 111.098ZM136.939 110.019C137.2 110.019 137.433 109.955 137.638 109.828C137.843 109.701 138.004 109.527 138.121 109.306C138.242 109.084 138.302 108.834 138.302 108.554C138.302 108.277 138.242 108.03 138.121 107.812C138.004 107.59 137.843 107.416 137.638 107.289C137.433 107.162 137.2 107.099 136.939 107.099C136.682 107.099 136.45 107.162 136.241 107.289C136.036 107.416 135.873 107.59 135.753 107.812C135.636 108.03 135.577 108.277 135.577 108.554C135.577 108.834 135.636 109.084 135.753 109.306C135.873 109.527 136.036 109.701 136.241 109.828C136.45 109.955 136.682 110.019 136.939 110.019ZM141.7 111H140.499V103.676H141.7V108.397L142.145 107.855L143.79 106.117H145.299L143.258 108.275L145.558 111H144.01L142.428 109.052L141.7 109.77V111ZM150.689 110.434C150.081 110.876 149.415 111.098 148.692 111.098C148.168 111.098 147.698 110.984 147.281 110.756C146.865 110.528 146.534 110.217 146.29 109.823C146.049 109.426 145.929 108.98 145.929 108.485C145.929 108.013 146.038 107.592 146.256 107.221C146.477 106.85 146.778 106.557 147.159 106.342C147.543 106.127 147.976 106.02 148.458 106.02C148.959 106.02 149.399 106.138 149.776 106.376C150.157 106.61 150.453 106.938 150.665 107.357C150.877 107.774 150.982 108.259 150.982 108.812V108.969H147.223C147.281 109.19 147.384 109.385 147.53 109.555C147.68 109.724 147.866 109.856 148.087 109.95C148.308 110.045 148.557 110.092 148.834 110.092C149.355 110.092 149.837 109.923 150.279 109.584L150.689 110.434ZM147.174 108.266H149.869C149.843 108.021 149.768 107.808 149.645 107.626C149.524 107.444 149.366 107.302 149.171 107.201C148.979 107.097 148.762 107.045 148.521 107.045C148.277 107.045 148.059 107.097 147.867 107.201C147.675 107.305 147.519 107.45 147.398 107.636C147.278 107.818 147.203 108.028 147.174 108.266ZM153.922 113.441H152.638L153.653 110.98L151.231 106.117H152.584L154.225 109.608L155.67 106.117H156.954L153.922 113.441ZM165.484 105.38C165.253 105.149 164.977 104.971 164.654 104.848C164.335 104.724 163.995 104.662 163.634 104.662C163.266 104.662 162.929 104.726 162.623 104.853C162.32 104.979 162.058 105.162 161.837 105.399C161.616 105.634 161.445 105.914 161.324 106.239C161.204 106.562 161.144 106.92 161.144 107.313C161.144 107.711 161.204 108.075 161.324 108.407C161.448 108.736 161.62 109.021 161.842 109.262C162.066 109.503 162.332 109.688 162.638 109.818C162.944 109.949 163.281 110.014 163.648 110.014C163.967 110.014 164.26 109.965 164.527 109.867C164.794 109.766 165.029 109.623 165.23 109.438C165.436 109.249 165.603 109.022 165.733 108.759C165.864 108.495 165.95 108.202 165.992 107.88H163.678V106.884H167.13L167.164 107.372C167.164 107.929 167.078 108.438 166.905 108.9C166.736 109.359 166.493 109.758 166.178 110.097C165.862 110.432 165.488 110.691 165.055 110.873C164.622 111.055 164.143 111.146 163.619 111.146C163.079 111.146 162.577 111.05 162.115 110.858C161.656 110.666 161.254 110.399 160.909 110.058C160.567 109.713 160.3 109.309 160.108 108.847C159.92 108.384 159.825 107.882 159.825 107.338C159.825 106.798 159.92 106.296 160.108 105.834C160.3 105.368 160.566 104.963 160.904 104.618C161.246 104.273 161.646 104.006 162.105 103.817C162.568 103.625 163.067 103.529 163.604 103.529C164.116 103.529 164.604 103.617 165.069 103.793C165.538 103.969 165.956 104.221 166.324 104.55L165.484 105.38ZM169.386 111H168.185V106.117H169.229L169.273 107.006C169.443 106.693 169.671 106.451 169.957 106.278C170.247 106.106 170.579 106.02 170.953 106.02C171.051 106.02 171.15 106.026 171.251 106.039C171.355 106.052 171.458 106.072 171.559 106.098L171.412 107.182C171.21 107.123 171.015 107.094 170.826 107.094C170.54 107.094 170.287 107.16 170.069 107.294C169.854 107.427 169.687 107.613 169.566 107.851C169.446 108.085 169.386 108.358 169.386 108.671V111ZM176.695 110.434C176.087 110.876 175.421 111.098 174.698 111.098C174.174 111.098 173.704 110.984 173.287 110.756C172.87 110.528 172.54 110.217 172.296 109.823C172.055 109.426 171.935 108.98 171.935 108.485C171.935 108.013 172.044 107.592 172.262 107.221C172.483 106.85 172.784 106.557 173.165 106.342C173.549 106.127 173.982 106.02 174.464 106.02C174.965 106.02 175.405 106.138 175.782 106.376C176.163 106.61 176.459 106.938 176.671 107.357C176.882 107.774 176.988 108.259 176.988 108.812V108.969H173.229C173.287 109.19 173.39 109.385 173.536 109.555C173.686 109.724 173.871 109.856 174.093 109.95C174.314 110.045 174.563 110.092 174.84 110.092C175.361 110.092 175.842 109.923 176.285 109.584L176.695 110.434ZM173.18 108.266H175.875C175.849 108.021 175.774 107.808 175.65 107.626C175.53 107.444 175.372 107.302 175.177 107.201C174.985 107.097 174.768 107.045 174.527 107.045C174.283 107.045 174.065 107.097 173.873 107.201C173.681 107.305 173.525 107.45 173.404 107.636C173.284 107.818 173.209 108.028 173.18 108.266ZM179.928 113.441H178.644L179.659 110.98L177.237 106.117H178.59L180.23 109.608L181.676 106.117H182.96L179.928 113.441Z" fill="white"/>
<defs>
<filter id="filter0_d_3_57" x="0" y="88" width="101" height="86" filterUnits="userSpaceOnUse" color-interpolation-filters="sRGB">
<feFlood flood-opacity="0" result="BackgroundImageFix"/>
<feColorMatrix in="SourceAlpha" type="matrix" values="0 0 0 0 0 0 0 0 0 0 0 0 0 0 0 0 0 0 127 0" result="hardAlpha"/>
<feMorphology radius="1" operator="dilate" in="SourceAlpha" result="effect1_dropShadow_3_57"/>
<feOffset dy="1"/>
<feGaussianBlur stdDeviation="2.5"/>
<feComposite in2="hardAlpha" operator="out"/>
<feColorMatrix type="matrix" values="0 0 0 0 0 0 0 0 0 0 0 0 0 0 0 0 0 0 0.1 0"/>
<feBlend mode="normal" in2="BackgroundImageFix" result="effect1_dropShadow_3_57"/>
<feBlend mode="normal" in="SourceGraphic" in2="effect1_dropShadow_3_57" result="shape"/>
</filter>
<filter id="filter1_d_3_57" x="0" y="0" width="101" height="86" filterUnits="userSpaceOnUse" color-interpolation-filters="sRGB">
<feFlood flood-opacity="0" result="BackgroundImageFix"/>
<feColorMatrix in="SourceAlpha" type="matrix" values="0 0 0 0 0 0 0 0 0 0 0 0 0 0 0 0 0 0 127 0" result="hardAlpha"/>
<feMorphology radius="1" operator="dilate" in="SourceAlpha" result="effect1_dropShadow_3_57"/>
<feOffset dy="1"/>
<feGaussianBlur stdDeviation="2.5"/>
<feComposite in2="hardAlpha" operator="out"/>
<feColorMatrix type="matrix" values="0 0 0 0 0 0 0 0 0 0 0 0 0 0 0 0 0 0 0.1 0"/>
<feBlend mode="normal" in2="BackgroundImageFix" result="effect1_dropShadow_3_57"/>
<feBlend mode="normal" in="SourceGraphic" in2="effect1_dropShadow_3_57" result="shape"/>
</filter>
<filter id="filter2_d_3_57" x="105" y="0" width="101" height="86" filterUnits="userSpaceOnUse" color-interpolation-filters="sRGB">
<feFlood flood-opacity="0" result="BackgroundImageFix"/>
<feColorMatrix in="SourceAlpha" type="matrix" values="0 0 0 0 0 0 0 0 0 0 0 0 0 0 0 0 0 0 127 0" result="hardAlpha"/>
<feMorphology radius="1" operator="dilate" in="SourceAlpha" result="effect1_dropShadow_3_57"/>
<feOffset dy="1"/>
<feGaussianBlur stdDeviation="2.5"/>
<feComposite in2="hardAlpha" operator="out"/>
<feColorMatrix type="matrix" values="0 0 0 0 0 0 0 0 0 0 0 0 0 0 0 0 0 0 0.1 0"/>
<feBlend mode="normal" in2="BackgroundImageFix" result="effect1_dropShadow_3_57"/>
<feBlend mode="normal" in="SourceGraphic" in2="effect1_dropShadow_3_57" result="shape"/>
</filter>
<filter id="filter3_d_3_57" x="210" y="0" width="101" height="86" filterUnits="userSpaceOnUse" color-interpolation-filters="sRGB">
<feFlood flood-opacity="0" result="BackgroundImageFix"/>
<feColorMatrix in="SourceAlpha" type="matrix" values="0 0 0 0 0 0 0 0 0 0 0 0 0 0 0 0 0 0 127 0" result="hardAlpha"/>
<feMorphology radius="1" operator="dilate" in="SourceAlpha" result="effect1_dropShadow_3_57"/>
<feOffset dy="1"/>
<feGaussianBlur stdDeviation="2.5"/>
<feComposite in2="hardAlpha" operator="out"/>
<feColorMatrix type="matrix" values="0 0 0 0 0 0 0 0 0 0 0 0 0 0 0 0 0 0 0.1 0"/>
<feBlend mode="normal" in2="BackgroundImageFix" result="effect1_dropShadow_3_57"/>
<feBlend mode="normal" in="SourceGraphic" in2="effect1_dropShadow_3_57" result="shape"/>
</filter>
<filter id="filter4_d_3_57" x="210" y="88" width="101" height="86" filterUnits="userSpaceOnUse" color-interpolation-filters="sRGB">
<feFlood flood-opacity="0" result="BackgroundImageFix"/>
<feColorMatrix in="SourceAlpha" type="matrix" values="0 0 0 0 0 0 0 0 0 0 0 0 0 0 0 0 0 0 127 0" result="hardAlpha"/>
<feMorphology radius="1" operator="dilate" in="SourceAlpha" result="effect1_dropShadow_3_57"/>
<feOffset dy="1"/>
<feGaussianBlur stdDeviation="2.5"/>
<feComposite in2="hardAlpha" operator="out"/>
<feColorMatrix type="matrix" values="0 0 0 0 0 0 0 0 0 0 0 0 0 0 0 0 0 0 0.1 0"/>
<feBlend mode="normal" in2="BackgroundImageFix" result="effect1_dropShadow_3_57"/>
<feBlend mode="normal" in="SourceGraphic" in2="effect1_dropShadow_3_57" result="shape"/>
</filter>
<filter id="filter5_d_3_57" x="105" y="88" width="101" height="86" filterUnits="userSpaceOnUse" color-interpolation-filters="sRGB">
<feFlood flood-opacity="0" result="BackgroundImageFix"/>
<feColorMatrix in="SourceAlpha" type="matrix" values="0 0 0 0 0 0 0 0 0 0 0 0 0 0 0 0 0 0 127 0" result="hardAlpha"/>
<feMorphology radius="1" operator="dilate" in="SourceAlpha" result="effect1_dropShadow_3_57"/>
<feOffset dy="1"/>
<feGaussianBlur stdDeviation="2.5"/>
<feComposite in2="hardAlpha" operator="out"/>
<feColorMatrix type="matrix" values="0 0 0 0 0 0 0 0 0 0 0 0 0 0 0 0 0 0 0.1 0"/>
<feBlend mode="normal" in2="BackgroundImageFix" result="effect1_dropShadow_3_57"/>
<feBlend mode="normal" in="SourceGraphic" in2="effect1_dropShadow_3_57" result="shape"/>
</filter>
</defs>
</svg>
