<svg width="1036" height="325" viewBox="0 0 1036 325" fill="none" xmlns="http://www.w3.org/2000/svg">
<path d="M35.6113 5.00586L33 15H31.209L29.541 9.01172C29.5 8.86589 29.4544 8.69271 29.4043 8.49219C29.3542 8.29167 29.304 8.08659 29.2539 7.87695C29.2083 7.66732 29.1673 7.47591 29.1309 7.30273C29.099 7.125 29.0762 6.98828 29.0625 6.89258C29.0534 6.98828 29.0329 7.12272 29.001 7.2959C28.9691 7.46908 28.9303 7.66048 28.8848 7.87012C28.8438 8.0752 28.7982 8.28027 28.748 8.48535C28.6979 8.68587 28.6523 8.86361 28.6113 9.01855L26.9707 15H25.1865L22.582 5.00586H24.2295L25.6719 10.8643C25.7174 11.0511 25.763 11.2539 25.8086 11.4727C25.8587 11.6868 25.9043 11.9033 25.9453 12.1221C25.9909 12.3408 26.0319 12.555 26.0684 12.7646C26.1048 12.9697 26.1344 13.1566 26.1572 13.3252C26.18 13.152 26.2096 12.9606 26.2461 12.751C26.2826 12.5368 26.3213 12.3203 26.3623 12.1016C26.4079 11.8783 26.4535 11.6641 26.499 11.459C26.5492 11.2539 26.5993 11.0693 26.6494 10.9053L28.2764 5.00586H29.876L31.5371 10.9258C31.5872 11.0944 31.6351 11.2835 31.6807 11.4932C31.7308 11.7028 31.7786 11.917 31.8242 12.1357C31.8698 12.3545 31.9108 12.5664 31.9473 12.7715C31.9837 12.9766 32.0133 13.1611 32.0361 13.3252C32.068 13.1019 32.109 12.8467 32.1592 12.5596C32.2093 12.2725 32.2663 11.9808 32.3301 11.6846C32.3939 11.3883 32.4577 11.1149 32.5215 10.8643L33.957 5.00586H35.6113ZM39.877 7.28906C40.5514 7.28906 41.1302 7.42806 41.6133 7.70605C42.0964 7.98405 42.4678 8.37826 42.7275 8.88867C42.9873 9.39909 43.1172 10.0098 43.1172 10.7207V11.582H38.0654C38.0837 12.3158 38.2796 12.8809 38.6533 13.2773C39.0316 13.6738 39.5602 13.8721 40.2393 13.8721C40.7223 13.8721 41.1553 13.8265 41.5381 13.7354C41.9255 13.6396 42.3242 13.5007 42.7344 13.3184V14.624C42.3561 14.8018 41.971 14.9316 41.5791 15.0137C41.1872 15.0957 40.7178 15.1367 40.1709 15.1367C39.4281 15.1367 38.7741 14.9932 38.209 14.7061C37.6484 14.4144 37.2087 13.9814 36.8896 13.4072C36.5752 12.833 36.418 12.1198 36.418 11.2676C36.418 10.4199 36.5615 9.69987 36.8486 9.10742C37.1357 8.51497 37.5391 8.0638 38.0586 7.75391C38.5781 7.44401 39.1842 7.28906 39.877 7.28906ZM39.877 8.49902C39.3711 8.49902 38.9609 8.66309 38.6465 8.99121C38.3366 9.31934 38.1543 9.80013 38.0996 10.4336H41.5449C41.5404 10.0553 41.4766 9.72038 41.3535 9.42871C41.235 9.13704 41.0527 8.90918 40.8066 8.74512C40.5651 8.58105 40.2552 8.49902 39.877 8.49902ZM47.9434 7.28906C48.6178 7.28906 49.1966 7.42806 49.6797 7.70605C50.1628 7.98405 50.5342 8.37826 50.7939 8.88867C51.0537 9.39909 51.1836 10.0098 51.1836 10.7207V11.582H46.1318C46.1501 12.3158 46.346 12.8809 46.7197 13.2773C47.098 13.6738 47.6266 13.8721 48.3057 13.8721C48.7887 13.8721 49.2217 13.8265 49.6045 13.7354C49.9919 13.6396 50.3906 13.5007 50.8008 13.3184V14.624C50.4225 14.8018 50.0374 14.9316 49.6455 15.0137C49.2536 15.0957 48.7842 15.1367 48.2373 15.1367C47.4945 15.1367 46.8405 14.9932 46.2754 14.7061C45.7148 14.4144 45.2751 13.9814 44.9561 13.4072C44.6416 12.833 44.4844 12.1198 44.4844 11.2676C44.4844 10.4199 44.6279 9.69987 44.915 9.10742C45.2021 8.51497 45.6055 8.0638 46.125 7.75391C46.6445 7.44401 47.2507 7.28906 47.9434 7.28906ZM47.9434 8.49902C47.4375 8.49902 47.0273 8.66309 46.7129 8.99121C46.403 9.31934 46.2207 9.80013 46.166 10.4336H49.6113C49.6068 10.0553 49.543 9.72038 49.4199 9.42871C49.3014 9.13704 49.1191 8.90918 48.873 8.74512C48.6315 8.58105 48.3216 8.49902 47.9434 8.49902ZM54.6016 4.36328V9.50391C54.6016 9.73633 54.5924 9.99154 54.5742 10.2695C54.556 10.543 54.5378 10.8005 54.5195 11.042H54.5537C54.6722 10.8825 54.8135 10.6956 54.9775 10.4814C55.1462 10.2673 55.3057 10.0804 55.4561 9.9209L57.7666 7.43262H59.6123L56.584 10.6865L59.8105 15H57.9238L55.5039 11.6777L54.6016 12.4502V15H52.9951V4.36328H54.6016ZM68.8613 15H67.248V8.56738C67.248 8.35319 67.2503 8.139 67.2549 7.9248C67.2594 7.71061 67.264 7.50098 67.2686 7.2959C67.2777 7.09082 67.2891 6.89486 67.3027 6.70801C67.207 6.81283 67.0885 6.92676 66.9473 7.0498C66.8105 7.17285 66.6647 7.30046 66.5098 7.43262L65.3613 8.34863L64.5547 7.33008L67.5215 5.00586H68.8613V15Z" fill="black"/>
<path d="M347.111 5.00586L344.5 15H342.709L341.041 9.01172C341 8.86589 340.954 8.69271 340.904 8.49219C340.854 8.29167 340.804 8.08659 340.754 7.87695C340.708 7.66732 340.667 7.47591 340.631 7.30273C340.599 7.125 340.576 6.98828 340.562 6.89258C340.553 6.98828 340.533 7.12272 340.501 7.2959C340.469 7.46908 340.43 7.66048 340.385 7.87012C340.344 8.0752 340.298 8.28027 340.248 8.48535C340.198 8.68587 340.152 8.86361 340.111 9.01855L338.471 15H336.687L334.082 5.00586H335.729L337.172 10.8643C337.217 11.0511 337.263 11.2539 337.309 11.4727C337.359 11.6868 337.404 11.9033 337.445 12.1221C337.491 12.3408 337.532 12.555 337.568 12.7646C337.605 12.9697 337.634 13.1566 337.657 13.3252C337.68 13.152 337.71 12.9606 337.746 12.751C337.783 12.5368 337.821 12.3203 337.862 12.1016C337.908 11.8783 337.953 11.6641 337.999 11.459C338.049 11.2539 338.099 11.0693 338.149 10.9053L339.776 5.00586H341.376L343.037 10.9258C343.087 11.0944 343.135 11.2835 343.181 11.4932C343.231 11.7028 343.279 11.917 343.324 12.1357C343.37 12.3545 343.411 12.5664 343.447 12.7715C343.484 12.9766 343.513 13.1611 343.536 13.3252C343.568 13.1019 343.609 12.8467 343.659 12.5596C343.709 12.2725 343.766 11.9808 343.83 11.6846C343.894 11.3883 343.958 11.1149 344.021 10.8643L345.457 5.00586H347.111ZM351.377 7.28906C352.051 7.28906 352.63 7.42806 353.113 7.70605C353.596 7.98405 353.968 8.37826 354.228 8.88867C354.487 9.39909 354.617 10.0098 354.617 10.7207V11.582H349.565C349.584 12.3158 349.78 12.8809 350.153 13.2773C350.532 13.6738 351.06 13.8721 351.739 13.8721C352.222 13.8721 352.655 13.8265 353.038 13.7354C353.425 13.6396 353.824 13.5007 354.234 13.3184V14.624C353.856 14.8018 353.471 14.9316 353.079 15.0137C352.687 15.0957 352.218 15.1367 351.671 15.1367C350.928 15.1367 350.274 14.9932 349.709 14.7061C349.148 14.4144 348.709 13.9814 348.39 13.4072C348.075 12.833 347.918 12.1198 347.918 11.2676C347.918 10.4199 348.062 9.69987 348.349 9.10742C348.636 8.51497 349.039 8.0638 349.559 7.75391C350.078 7.44401 350.684 7.28906 351.377 7.28906ZM351.377 8.49902C350.871 8.49902 350.461 8.66309 350.146 8.99121C349.837 9.31934 349.654 9.80013 349.6 10.4336H353.045C353.04 10.0553 352.977 9.72038 352.854 9.42871C352.735 9.13704 352.553 8.90918 352.307 8.74512C352.065 8.58105 351.755 8.49902 351.377 8.49902ZM359.443 7.28906C360.118 7.28906 360.697 7.42806 361.18 7.70605C361.663 7.98405 362.034 8.37826 362.294 8.88867C362.554 9.39909 362.684 10.0098 362.684 10.7207V11.582H357.632C357.65 12.3158 357.846 12.8809 358.22 13.2773C358.598 13.6738 359.127 13.8721 359.806 13.8721C360.289 13.8721 360.722 13.8265 361.104 13.7354C361.492 13.6396 361.891 13.5007 362.301 13.3184V14.624C361.923 14.8018 361.537 14.9316 361.146 15.0137C360.754 15.0957 360.284 15.1367 359.737 15.1367C358.994 15.1367 358.34 14.9932 357.775 14.7061C357.215 14.4144 356.775 13.9814 356.456 13.4072C356.142 12.833 355.984 12.1198 355.984 11.2676C355.984 10.4199 356.128 9.69987 356.415 9.10742C356.702 8.51497 357.105 8.0638 357.625 7.75391C358.145 7.44401 358.751 7.28906 359.443 7.28906ZM359.443 8.49902C358.938 8.49902 358.527 8.66309 358.213 8.99121C357.903 9.31934 357.721 9.80013 357.666 10.4336H361.111C361.107 10.0553 361.043 9.72038 360.92 9.42871C360.801 9.13704 360.619 8.90918 360.373 8.74512C360.132 8.58105 359.822 8.49902 359.443 8.49902ZM366.102 4.36328V9.50391C366.102 9.73633 366.092 9.99154 366.074 10.2695C366.056 10.543 366.038 10.8005 366.02 11.042H366.054C366.172 10.8825 366.313 10.6956 366.478 10.4814C366.646 10.2673 366.806 10.0804 366.956 9.9209L369.267 7.43262H371.112L368.084 10.6865L371.311 15H369.424L367.004 11.6777L366.102 12.4502V15H364.495V4.36328H366.102ZM379.035 8.75195C379.678 8.75195 380.243 8.86816 380.73 9.10059C381.223 9.32845 381.605 9.66569 381.879 10.1123C382.152 10.5544 382.289 11.0967 382.289 11.7393C382.289 12.4411 382.141 13.0472 381.845 13.5576C381.549 14.0635 381.113 14.4531 380.539 14.7266C379.965 15 379.265 15.1367 378.44 15.1367C377.916 15.1367 377.426 15.0911 376.971 15C376.52 14.9089 376.13 14.7721 375.802 14.5898V13.1406C376.144 13.332 376.554 13.4893 377.032 13.6123C377.511 13.7308 377.969 13.79 378.406 13.79C378.871 13.79 379.27 13.7217 379.603 13.585C379.935 13.4482 380.19 13.2386 380.368 12.9561C380.55 12.6735 380.642 12.3158 380.642 11.8828C380.642 11.3086 380.457 10.8665 380.088 10.5566C379.723 10.2422 379.151 10.085 378.372 10.085C378.099 10.085 377.807 10.11 377.497 10.1602C377.192 10.2057 376.937 10.2559 376.731 10.3105L376.027 9.89355L376.403 5.00586H381.599V6.4209H377.818L377.6 8.90918C377.764 8.87272 377.96 8.83854 378.188 8.80664C378.415 8.77018 378.698 8.75195 379.035 8.75195Z" fill="black"/>
<path d="M660.611 5.00586L658 15H656.209L654.541 9.01172C654.5 8.86589 654.454 8.69271 654.404 8.49219C654.354 8.29167 654.304 8.08659 654.254 7.87695C654.208 7.66732 654.167 7.47591 654.131 7.30273C654.099 7.125 654.076 6.98828 654.062 6.89258C654.053 6.98828 654.033 7.12272 654.001 7.2959C653.969 7.46908 653.93 7.66048 653.885 7.87012C653.844 8.0752 653.798 8.28027 653.748 8.48535C653.698 8.68587 653.652 8.86361 653.611 9.01855L651.971 15H650.187L647.582 5.00586H649.229L650.672 10.8643C650.717 11.0511 650.763 11.2539 650.809 11.4727C650.859 11.6868 650.904 11.9033 650.945 12.1221C650.991 12.3408 651.032 12.555 651.068 12.7646C651.105 12.9697 651.134 13.1566 651.157 13.3252C651.18 13.152 651.21 12.9606 651.246 12.751C651.283 12.5368 651.321 12.3203 651.362 12.1016C651.408 11.8783 651.453 11.6641 651.499 11.459C651.549 11.2539 651.599 11.0693 651.649 10.9053L653.276 5.00586H654.876L656.537 10.9258C656.587 11.0944 656.635 11.2835 656.681 11.4932C656.731 11.7028 656.779 11.917 656.824 12.1357C656.87 12.3545 656.911 12.5664 656.947 12.7715C656.984 12.9766 657.013 13.1611 657.036 13.3252C657.068 13.1019 657.109 12.8467 657.159 12.5596C657.209 12.2725 657.266 11.9808 657.33 11.6846C657.394 11.3883 657.458 11.1149 657.521 10.8643L658.957 5.00586H660.611ZM664.877 7.28906C665.551 7.28906 666.13 7.42806 666.613 7.70605C667.096 7.98405 667.468 8.37826 667.728 8.88867C667.987 9.39909 668.117 10.0098 668.117 10.7207V11.582H663.065C663.084 12.3158 663.28 12.8809 663.653 13.2773C664.032 13.6738 664.56 13.8721 665.239 13.8721C665.722 13.8721 666.155 13.8265 666.538 13.7354C666.925 13.6396 667.324 13.5007 667.734 13.3184V14.624C667.356 14.8018 666.971 14.9316 666.579 15.0137C666.187 15.0957 665.718 15.1367 665.171 15.1367C664.428 15.1367 663.774 14.9932 663.209 14.7061C662.648 14.4144 662.209 13.9814 661.89 13.4072C661.575 12.833 661.418 12.1198 661.418 11.2676C661.418 10.4199 661.562 9.69987 661.849 9.10742C662.136 8.51497 662.539 8.0638 663.059 7.75391C663.578 7.44401 664.184 7.28906 664.877 7.28906ZM664.877 8.49902C664.371 8.49902 663.961 8.66309 663.646 8.99121C663.337 9.31934 663.154 9.80013 663.1 10.4336H666.545C666.54 10.0553 666.477 9.72038 666.354 9.42871C666.235 9.13704 666.053 8.90918 665.807 8.74512C665.565 8.58105 665.255 8.49902 664.877 8.49902ZM672.943 7.28906C673.618 7.28906 674.197 7.42806 674.68 7.70605C675.163 7.98405 675.534 8.37826 675.794 8.88867C676.054 9.39909 676.184 10.0098 676.184 10.7207V11.582H671.132C671.15 12.3158 671.346 12.8809 671.72 13.2773C672.098 13.6738 672.627 13.8721 673.306 13.8721C673.789 13.8721 674.222 13.8265 674.604 13.7354C674.992 13.6396 675.391 13.5007 675.801 13.3184V14.624C675.423 14.8018 675.037 14.9316 674.646 15.0137C674.254 15.0957 673.784 15.1367 673.237 15.1367C672.494 15.1367 671.84 14.9932 671.275 14.7061C670.715 14.4144 670.275 13.9814 669.956 13.4072C669.642 12.833 669.484 12.1198 669.484 11.2676C669.484 10.4199 669.628 9.69987 669.915 9.10742C670.202 8.51497 670.605 8.0638 671.125 7.75391C671.645 7.44401 672.251 7.28906 672.943 7.28906ZM672.943 8.49902C672.438 8.49902 672.027 8.66309 671.713 8.99121C671.403 9.31934 671.221 9.80013 671.166 10.4336H674.611C674.607 10.0553 674.543 9.72038 674.42 9.42871C674.301 9.13704 674.119 8.90918 673.873 8.74512C673.632 8.58105 673.322 8.49902 672.943 8.49902ZM679.602 4.36328V9.50391C679.602 9.73633 679.592 9.99154 679.574 10.2695C679.556 10.543 679.538 10.8005 679.52 11.042H679.554C679.672 10.8825 679.813 10.6956 679.978 10.4814C680.146 10.2673 680.306 10.0804 680.456 9.9209L682.767 7.43262H684.612L681.584 10.6865L684.811 15H682.924L680.504 11.6777L679.602 12.4502V15H677.995V4.36328H679.602ZM695.892 9.26465C695.892 9.8571 695.848 10.4382 695.762 11.0078C695.68 11.5775 695.534 12.1107 695.324 12.6074C695.119 13.1042 694.834 13.5439 694.47 13.9268C694.11 14.305 693.654 14.6012 693.103 14.8154C692.551 15.0296 691.886 15.1367 691.106 15.1367C690.91 15.1367 690.683 15.1253 690.423 15.1025C690.168 15.0843 689.958 15.057 689.794 15.0205V13.6807C689.967 13.7308 690.161 13.7718 690.375 13.8037C690.594 13.8311 690.81 13.8447 691.024 13.8447C691.868 13.8447 692.524 13.6875 692.993 13.373C693.467 13.0586 693.802 12.6257 693.998 12.0742C694.199 11.5228 694.312 10.8962 694.34 10.1943H694.258C694.126 10.4131 693.959 10.6136 693.759 10.7959C693.558 10.9736 693.31 11.1172 693.014 11.2266C692.717 11.3314 692.357 11.3838 691.934 11.3838C691.359 11.3838 690.858 11.263 690.43 11.0215C690.006 10.7799 689.675 10.429 689.438 9.96875C689.206 9.50391 689.09 8.94564 689.09 8.29395C689.09 7.58757 689.224 6.97917 689.493 6.46875C689.762 5.95833 690.143 5.56641 690.635 5.29297C691.127 5.01497 691.706 4.87598 692.371 4.87598C692.872 4.87598 693.335 4.96712 693.759 5.14941C694.187 5.32715 694.561 5.60059 694.88 5.96973C695.199 6.33431 695.447 6.79232 695.625 7.34375C695.803 7.89062 695.892 8.53092 695.892 9.26465ZM692.392 6.20215C691.886 6.20215 691.473 6.37305 691.154 6.71484C690.835 7.05208 690.676 7.57161 690.676 8.27344C690.676 8.8431 690.812 9.29427 691.086 9.62695C691.359 9.95964 691.779 10.126 692.344 10.126C692.736 10.126 693.073 10.0462 693.355 9.88672C693.643 9.72266 693.864 9.5153 694.019 9.26465C694.178 9.014 694.258 8.75879 694.258 8.49902C694.258 8.23014 694.219 7.96126 694.142 7.69238C694.069 7.4235 693.955 7.17741 693.8 6.9541C693.645 6.73079 693.449 6.55078 693.212 6.41406C692.979 6.27279 692.706 6.20215 692.392 6.20215Z" fill="black"/>
<path d="M966.105 5.00586L963.494 15H961.703L960.035 9.01172C959.994 8.86589 959.949 8.69271 959.898 8.49219C959.848 8.29167 959.798 8.08659 959.748 7.87695C959.702 7.66732 959.661 7.47591 959.625 7.30273C959.593 7.125 959.57 6.98828 959.557 6.89258C959.548 6.98828 959.527 7.12272 959.495 7.2959C959.463 7.46908 959.424 7.66048 959.379 7.87012C959.338 8.0752 959.292 8.28027 959.242 8.48535C959.192 8.68587 959.146 8.86361 959.105 9.01855L957.465 15H955.681L953.076 5.00586H954.724L956.166 10.8643C956.212 11.0511 956.257 11.2539 956.303 11.4727C956.353 11.6868 956.398 11.9033 956.439 12.1221C956.485 12.3408 956.526 12.555 956.562 12.7646C956.599 12.9697 956.629 13.1566 956.651 13.3252C956.674 13.152 956.704 12.9606 956.74 12.751C956.777 12.5368 956.815 12.3203 956.856 12.1016C956.902 11.8783 956.948 11.6641 956.993 11.459C957.043 11.2539 957.093 11.0693 957.144 10.9053L958.771 5.00586H960.37L962.031 10.9258C962.081 11.0944 962.129 11.2835 962.175 11.4932C962.225 11.7028 962.273 11.917 962.318 12.1357C962.364 12.3545 962.405 12.5664 962.441 12.7715C962.478 12.9766 962.507 13.1611 962.53 13.3252C962.562 13.1019 962.603 12.8467 962.653 12.5596C962.703 12.2725 962.76 11.9808 962.824 11.6846C962.888 11.3883 962.952 11.1149 963.016 10.8643L964.451 5.00586H966.105ZM970.371 7.28906C971.046 7.28906 971.624 7.42806 972.107 7.70605C972.59 7.98405 972.962 8.37826 973.222 8.88867C973.481 9.39909 973.611 10.0098 973.611 10.7207V11.582H968.56C968.578 12.3158 968.774 12.8809 969.147 13.2773C969.526 13.6738 970.054 13.8721 970.733 13.8721C971.216 13.8721 971.649 13.8265 972.032 13.7354C972.42 13.6396 972.818 13.5007 973.229 13.3184V14.624C972.85 14.8018 972.465 14.9316 972.073 15.0137C971.681 15.0957 971.212 15.1367 970.665 15.1367C969.922 15.1367 969.268 14.9932 968.703 14.7061C968.143 14.4144 967.703 13.9814 967.384 13.4072C967.069 12.833 966.912 12.1198 966.912 11.2676C966.912 10.4199 967.056 9.69987 967.343 9.10742C967.63 8.51497 968.033 8.0638 968.553 7.75391C969.072 7.44401 969.678 7.28906 970.371 7.28906ZM970.371 8.49902C969.865 8.49902 969.455 8.66309 969.141 8.99121C968.831 9.31934 968.648 9.80013 968.594 10.4336H972.039C972.035 10.0553 971.971 9.72038 971.848 9.42871C971.729 9.13704 971.547 8.90918 971.301 8.74512C971.059 8.58105 970.749 8.49902 970.371 8.49902ZM978.438 7.28906C979.112 7.28906 979.691 7.42806 980.174 7.70605C980.657 7.98405 981.028 8.37826 981.288 8.88867C981.548 9.39909 981.678 10.0098 981.678 10.7207V11.582H976.626C976.644 12.3158 976.84 12.8809 977.214 13.2773C977.592 13.6738 978.121 13.8721 978.8 13.8721C979.283 13.8721 979.716 13.8265 980.099 13.7354C980.486 13.6396 980.885 13.5007 981.295 13.3184V14.624C980.917 14.8018 980.532 14.9316 980.14 15.0137C979.748 15.0957 979.278 15.1367 978.731 15.1367C977.989 15.1367 977.335 14.9932 976.77 14.7061C976.209 14.4144 975.769 13.9814 975.45 13.4072C975.136 12.833 974.979 12.1198 974.979 11.2676C974.979 10.4199 975.122 9.69987 975.409 9.10742C975.696 8.51497 976.1 8.0638 976.619 7.75391C977.139 7.44401 977.745 7.28906 978.438 7.28906ZM978.438 8.49902C977.932 8.49902 977.521 8.66309 977.207 8.99121C976.897 9.31934 976.715 9.80013 976.66 10.4336H980.105C980.101 10.0553 980.037 9.72038 979.914 9.42871C979.796 9.13704 979.613 8.90918 979.367 8.74512C979.126 8.58105 978.816 8.49902 978.438 8.49902ZM985.096 4.36328V9.50391C985.096 9.73633 985.087 9.99154 985.068 10.2695C985.05 10.543 985.032 10.8005 985.014 11.042H985.048C985.166 10.8825 985.308 10.6956 985.472 10.4814C985.64 10.2673 985.8 10.0804 985.95 9.9209L988.261 7.43262H990.106L987.078 10.6865L990.305 15H988.418L985.998 11.6777L985.096 12.4502V15H983.489V4.36328H985.096ZM999.355 15H997.742V8.56738C997.742 8.35319 997.744 8.139 997.749 7.9248C997.754 7.71061 997.758 7.50098 997.763 7.2959C997.772 7.09082 997.783 6.89486 997.797 6.70801C997.701 6.81283 997.583 6.92676 997.441 7.0498C997.305 7.17285 997.159 7.30046 997.004 7.43262L995.855 8.34863L995.049 7.33008L998.016 5.00586H999.355V15ZM1009.03 7.28906C1009.03 7.74023 1008.94 8.13216 1008.75 8.46484C1008.57 8.79753 1008.32 9.07096 1008 9.28516C1007.69 9.49479 1007.32 9.64518 1006.91 9.73633V9.78418C1007.71 9.88444 1008.31 10.1351 1008.71 10.5361C1009.12 10.9372 1009.33 11.4681 1009.33 12.1289C1009.33 12.7077 1009.19 13.2249 1008.91 13.6807C1008.63 14.1318 1008.21 14.4873 1007.63 14.7471C1007.06 15.0068 1006.32 15.1367 1005.42 15.1367C1004.88 15.1367 1004.37 15.0934 1003.91 15.0068C1003.45 14.9202 1003.01 14.7812 1002.6 14.5898V13.1611C1003.02 13.3708 1003.47 13.5326 1003.95 13.6465C1004.43 13.7604 1004.88 13.8174 1005.31 13.8174C1006.14 13.8174 1006.74 13.6624 1007.09 13.3525C1007.45 13.0381 1007.63 12.6051 1007.63 12.0537C1007.63 11.6982 1007.53 11.4066 1007.35 11.1787C1007.16 10.9508 1006.88 10.7799 1006.49 10.666C1006.11 10.5521 1005.61 10.4951 1005.01 10.4951H1004.13V9.20312H1005.02C1005.59 9.20312 1006.06 9.13477 1006.41 8.99805C1006.76 8.85677 1007.01 8.66309 1007.17 8.41699C1007.33 8.1709 1007.41 7.88379 1007.41 7.55566C1007.41 7.12728 1007.27 6.7946 1006.99 6.55762C1006.71 6.31608 1006.3 6.19531 1005.75 6.19531C1005.42 6.19531 1005.11 6.23405 1004.83 6.31152C1004.56 6.389 1004.3 6.48698 1004.07 6.60547C1003.84 6.72396 1003.62 6.85156 1003.41 6.98828L1002.64 5.87402C1003.01 5.59147 1003.47 5.35221 1003.99 5.15625C1004.51 4.96029 1005.12 4.8623 1005.82 4.8623C1006.85 4.8623 1007.64 5.08333 1008.19 5.52539C1008.75 5.96289 1009.03 6.55078 1009.03 7.28906Z" fill="black"/>
<line x1="47.5" y1="35" x2="47.5" y2="325" stroke="#A8A8A8" stroke-dasharray="2 2"/>
<line x1="358.5" y1="35" x2="358.5" y2="325" stroke="#A8A8A8" stroke-dasharray="2 2"/>
<line x1="670.5" y1="35" x2="670.5" y2="325" stroke="#A8A8A8" stroke-dasharray="2 2"/>
<line x1="982.5" y1="35" x2="982.5" y2="325" stroke="#A8A8A8" stroke-dasharray="2 2"/>
<g filter="url(#filter0_d_23_237)">
<rect x="27" y="54" width="198" height="37" rx="10" fill="#D4562E"/>
</g>
<path d="M44.1699 68.0059C45.0768 68.0059 45.8242 68.1152 46.4121 68.334C47.0046 68.5527 47.4443 68.8831 47.7314 69.3252C48.0186 69.7673 48.1621 70.3255 48.1621 71C48.1621 71.4557 48.0755 71.8545 47.9023 72.1963C47.7292 72.5381 47.5013 72.8275 47.2188 73.0645C46.9362 73.3014 46.6309 73.4951 46.3027 73.6455L49.2422 78H46.8906L44.5049 74.165H43.377V78H41.2578V68.0059H44.1699ZM44.0195 69.7422H43.377V72.4424H44.0605C44.7624 72.4424 45.2637 72.3262 45.5645 72.0938C45.8698 71.8568 46.0225 71.5104 46.0225 71.0547C46.0225 70.5807 45.8584 70.2435 45.5303 70.043C45.2067 69.8424 44.7031 69.7422 44.0195 69.7422ZM53.4873 70.2139C54.1937 70.2139 54.8021 70.3506 55.3125 70.624C55.8229 70.8929 56.2171 71.2848 56.4951 71.7998C56.7731 72.3148 56.9121 72.9437 56.9121 73.6865V74.6982H51.9834C52.0062 75.2861 52.1816 75.7487 52.5098 76.0859C52.8424 76.4186 53.3027 76.585 53.8906 76.585C54.3783 76.585 54.8249 76.5348 55.2305 76.4346C55.6361 76.3343 56.0531 76.1839 56.4814 75.9834V77.5967C56.1032 77.7835 55.7067 77.9202 55.292 78.0068C54.8818 78.0934 54.3828 78.1367 53.7949 78.1367C53.0293 78.1367 52.3503 77.9954 51.7578 77.7129C51.1699 77.4303 50.7074 76.9997 50.3701 76.4209C50.0374 75.8421 49.8711 75.113 49.8711 74.2334C49.8711 73.3402 50.0215 72.5973 50.3223 72.0049C50.6276 71.4079 51.0514 70.9613 51.5938 70.665C52.1361 70.3643 52.7673 70.2139 53.4873 70.2139ZM53.501 71.6973C53.0954 71.6973 52.7581 71.8271 52.4893 72.0869C52.2249 72.3467 52.0723 72.7546 52.0312 73.3105H54.957C54.9525 73.0007 54.8955 72.7249 54.7861 72.4834C54.6813 72.2419 54.5218 72.0505 54.3076 71.9092C54.098 71.7679 53.8291 71.6973 53.501 71.6973ZM63.9395 75.7305C63.9395 76.25 63.8164 76.6898 63.5703 77.0498C63.3288 77.4053 62.9665 77.6764 62.4834 77.8633C62.0003 78.0456 61.3988 78.1367 60.6787 78.1367C60.1455 78.1367 59.6875 78.1025 59.3047 78.0342C58.9264 77.9658 58.5436 77.8519 58.1562 77.6924V75.9697C58.571 76.1566 59.0153 76.3115 59.4893 76.4346C59.9678 76.5531 60.387 76.6123 60.7471 76.6123C61.1527 76.6123 61.4421 76.5531 61.6152 76.4346C61.793 76.3115 61.8818 76.152 61.8818 75.9561C61.8818 75.8285 61.8454 75.7145 61.7725 75.6143C61.7041 75.5094 61.5537 75.3932 61.3213 75.2656C61.0889 75.1335 60.7243 74.9626 60.2275 74.7529C59.749 74.5524 59.3548 74.3496 59.0449 74.1445C58.7396 73.9395 58.5117 73.6979 58.3613 73.4199C58.2155 73.1374 58.1426 72.7796 58.1426 72.3467C58.1426 71.6403 58.416 71.1094 58.9629 70.7539C59.5143 70.3939 60.2503 70.2139 61.1709 70.2139C61.6449 70.2139 62.096 70.2617 62.5244 70.3574C62.9574 70.4531 63.4017 70.6058 63.8574 70.8154L63.2285 72.3193C62.8503 72.1553 62.4925 72.0208 62.1553 71.916C61.8226 71.8112 61.4831 71.7588 61.1367 71.7588C60.8314 71.7588 60.6012 71.7998 60.4463 71.8818C60.2913 71.9639 60.2139 72.0892 60.2139 72.2578C60.2139 72.3809 60.2526 72.4902 60.3301 72.5859C60.4121 72.6816 60.5671 72.7887 60.7949 72.9072C61.0273 73.0212 61.3669 73.1693 61.8135 73.3516C62.2464 73.5293 62.6224 73.7161 62.9414 73.9121C63.2604 74.1035 63.5065 74.3428 63.6797 74.6299C63.8529 74.9124 63.9395 75.2793 63.9395 75.7305ZM68.7178 70.2139C69.4242 70.2139 70.0326 70.3506 70.543 70.624C71.0534 70.8929 71.4476 71.2848 71.7256 71.7998C72.0036 72.3148 72.1426 72.9437 72.1426 73.6865V74.6982H67.2139C67.2367 75.2861 67.4121 75.7487 67.7402 76.0859C68.0729 76.4186 68.5332 76.585 69.1211 76.585C69.6087 76.585 70.0553 76.5348 70.4609 76.4346C70.8665 76.3343 71.2835 76.1839 71.7119 75.9834V77.5967C71.3337 77.7835 70.9372 77.9202 70.5225 78.0068C70.1123 78.0934 69.6133 78.1367 69.0254 78.1367C68.2598 78.1367 67.5807 77.9954 66.9883 77.7129C66.4004 77.4303 65.9378 76.9997 65.6006 76.4209C65.2679 75.8421 65.1016 75.113 65.1016 74.2334C65.1016 73.3402 65.252 72.5973 65.5527 72.0049C65.8581 71.4079 66.2819 70.9613 66.8242 70.665C67.3665 70.3643 67.9977 70.2139 68.7178 70.2139ZM68.7314 71.6973C68.3258 71.6973 67.9886 71.8271 67.7197 72.0869C67.4554 72.3467 67.3027 72.7546 67.2617 73.3105H70.1875C70.1829 73.0007 70.126 72.7249 70.0166 72.4834C69.9118 72.2419 69.7523 72.0505 69.5381 71.9092C69.3285 71.7679 69.0596 71.6973 68.7314 71.6973ZM76.9688 70.2002C77.9941 70.2002 78.7803 70.4235 79.3271 70.8701C79.874 71.3167 80.1475 71.9958 80.1475 72.9072V78H78.6914L78.2881 76.9609H78.2334C78.0146 77.2344 77.7913 77.4577 77.5635 77.6309C77.3356 77.804 77.0736 77.9316 76.7773 78.0137C76.4811 78.0957 76.1211 78.1367 75.6973 78.1367C75.2461 78.1367 74.8405 78.0501 74.4805 77.877C74.125 77.7038 73.8447 77.4395 73.6396 77.084C73.4346 76.724 73.332 76.2682 73.332 75.7168C73.332 74.9056 73.6169 74.3086 74.1865 73.9258C74.7562 73.5384 75.6107 73.3242 76.75 73.2832L78.0762 73.2422V72.9072C78.0762 72.5062 77.9714 72.2122 77.7617 72.0254C77.5521 71.8385 77.2604 71.7451 76.8867 71.7451C76.5176 71.7451 76.1553 71.7975 75.7998 71.9023C75.4443 72.0072 75.0889 72.1393 74.7334 72.2988L74.043 70.8906C74.4486 70.6764 74.902 70.5078 75.4033 70.3848C75.9092 70.2617 76.431 70.2002 76.9688 70.2002ZM78.0762 74.459L77.2695 74.4863C76.5951 74.5046 76.1257 74.6253 75.8613 74.8486C75.6016 75.0719 75.4717 75.3659 75.4717 75.7305C75.4717 76.0495 75.5651 76.2773 75.752 76.4141C75.9388 76.5462 76.1826 76.6123 76.4834 76.6123C76.93 76.6123 77.306 76.4801 77.6113 76.2158C77.9212 75.9515 78.0762 75.5755 78.0762 75.0879V74.459ZM86.5664 70.2139C86.6712 70.2139 86.792 70.2207 86.9287 70.2344C87.07 70.2435 87.1839 70.2572 87.2705 70.2754L87.1133 72.2305C87.0449 72.2077 86.9469 72.1917 86.8193 72.1826C86.6963 72.1689 86.5892 72.1621 86.498 72.1621C86.2292 72.1621 85.9671 72.1963 85.7119 72.2646C85.4613 72.333 85.2357 72.4447 85.0352 72.5996C84.8346 72.75 84.6751 72.9505 84.5566 73.2012C84.4427 73.4473 84.3857 73.7503 84.3857 74.1104V78H82.3008V70.3574H83.8799L84.1875 71.6426H84.29C84.4404 71.3828 84.6273 71.1458 84.8506 70.9316C85.0785 70.7129 85.3359 70.5397 85.623 70.4121C85.9147 70.2799 86.2292 70.2139 86.5664 70.2139ZM91.7617 78.1367C91.0052 78.1367 90.3604 78 89.8271 77.7266C89.2939 77.4486 88.8883 77.0202 88.6104 76.4414C88.3324 75.8626 88.1934 75.1221 88.1934 74.2197C88.1934 73.2855 88.3506 72.5244 88.665 71.9365C88.984 71.3441 89.4238 70.9089 89.9844 70.6309C90.5495 70.3529 91.2035 70.2139 91.9463 70.2139C92.4749 70.2139 92.9307 70.2663 93.3135 70.3711C93.7008 70.4714 94.0381 70.5921 94.3252 70.7334L93.71 72.3467C93.3818 72.2145 93.0765 72.1074 92.7939 72.0254C92.5114 71.9388 92.2288 71.8955 91.9463 71.8955C91.5817 71.8955 91.2786 71.9821 91.0371 72.1553C90.7956 72.3239 90.6156 72.5791 90.4971 72.9209C90.3786 73.2627 90.3193 73.6911 90.3193 74.2061C90.3193 74.7119 90.3831 75.1312 90.5107 75.4639C90.6383 75.7965 90.8229 76.0449 91.0645 76.209C91.306 76.3685 91.5999 76.4482 91.9463 76.4482C92.3792 76.4482 92.7643 76.3913 93.1016 76.2773C93.4388 76.1589 93.7669 75.9948 94.0859 75.7852V77.5693C93.7669 77.7699 93.432 77.9134 93.0811 78C92.7347 78.0911 92.2949 78.1367 91.7617 78.1367ZM97.9482 67.3633V69.5303C97.9482 69.9085 97.9346 70.2686 97.9072 70.6104C97.8844 70.9521 97.8662 71.1937 97.8525 71.335H97.9619C98.126 71.0706 98.3197 70.8564 98.543 70.6924C98.7708 70.5283 99.0215 70.4076 99.2949 70.3301C99.5684 70.2526 99.8623 70.2139 100.177 70.2139C100.728 70.2139 101.209 70.3118 101.619 70.5078C102.029 70.6992 102.348 71.0023 102.576 71.417C102.804 71.8271 102.918 72.3604 102.918 73.0166V78H100.833V73.5361C100.833 72.9893 100.733 72.5768 100.532 72.2988C100.332 72.0208 100.022 71.8818 99.6025 71.8818C99.1833 71.8818 98.8529 71.9798 98.6113 72.1758C98.3698 72.3672 98.1989 72.652 98.0986 73.0303C97.9984 73.404 97.9482 73.862 97.9482 74.4043V78H95.8633V67.3633H97.9482Z" fill="white"/>
<g filter="url(#filter1_d_23_237)">
<rect x="110" y="107" width="343" height="37" rx="10" fill="#429488"/>
</g>
<path d="M134.393 121.006V127.473C134.393 128.161 134.24 128.783 133.935 129.339C133.634 129.89 133.176 130.328 132.561 130.651C131.95 130.975 131.18 131.137 130.25 131.137C128.928 131.137 127.921 130.799 127.229 130.125C126.536 129.451 126.189 128.557 126.189 127.445V121.006H128.302V127.124C128.302 127.949 128.47 128.528 128.808 128.86C129.145 129.193 129.644 129.359 130.305 129.359C130.77 129.359 131.146 129.28 131.433 129.12C131.724 128.961 131.938 128.715 132.075 128.382C132.212 128.049 132.28 127.625 132.28 127.11V121.006H134.393ZM144.92 131H142.5L140.176 127.22L137.852 131H135.582L138.897 125.846L135.794 121.006H138.132L140.285 124.602L142.397 121.006H144.681L141.543 125.962L144.92 131ZM152.897 120.862C153.435 120.862 153.914 120.947 154.333 121.115C154.752 121.284 155.083 121.53 155.324 121.854C155.57 122.177 155.693 122.571 155.693 123.036C155.693 123.679 155.502 124.219 155.119 124.656C154.741 125.094 154.267 125.477 153.697 125.805L155.639 127.698C155.83 127.384 155.992 127.051 156.124 126.7C156.261 126.349 156.379 125.996 156.479 125.641H158.653C158.512 126.165 158.305 126.725 158.031 127.322C157.762 127.915 157.418 128.473 156.999 128.997L159.057 131H156.479L155.693 130.228C155.424 130.414 155.135 130.576 154.825 130.713C154.52 130.85 154.192 130.954 153.841 131.027C153.494 131.1 153.128 131.137 152.74 131.137C151.984 131.137 151.334 131.018 150.792 130.781C150.25 130.544 149.835 130.214 149.548 129.79C149.261 129.362 149.117 128.865 149.117 128.3C149.117 127.826 149.19 127.42 149.336 127.083C149.482 126.741 149.691 126.443 149.965 126.188C150.238 125.928 150.566 125.688 150.949 125.47C150.708 125.187 150.514 124.923 150.368 124.677C150.227 124.431 150.124 124.187 150.061 123.945C150.001 123.699 149.972 123.442 149.972 123.173C149.972 122.699 150.095 122.291 150.341 121.949C150.591 121.603 150.936 121.336 151.373 121.149C151.815 120.958 152.323 120.862 152.897 120.862ZM152.166 126.714C151.993 126.846 151.84 126.983 151.708 127.124C151.58 127.265 151.482 127.416 151.414 127.575C151.346 127.735 151.312 127.91 151.312 128.102C151.312 128.503 151.462 128.817 151.763 129.045C152.063 129.273 152.437 129.387 152.884 129.387C153.185 129.387 153.465 129.35 153.725 129.277C153.984 129.204 154.221 129.102 154.436 128.97L152.166 126.714ZM152.884 122.476C152.651 122.476 152.428 122.535 152.214 122.653C152.004 122.772 151.899 122.993 151.899 123.316C151.899 123.544 151.959 123.768 152.077 123.986C152.196 124.201 152.353 124.419 152.549 124.643C152.941 124.428 153.242 124.214 153.451 124C153.661 123.781 153.766 123.533 153.766 123.255C153.766 122.977 153.67 122.779 153.479 122.66C153.292 122.537 153.093 122.476 152.884 122.476ZM172.086 121.006V127.473C172.086 128.161 171.933 128.783 171.628 129.339C171.327 129.89 170.869 130.328 170.254 130.651C169.643 130.975 168.873 131.137 167.943 131.137C166.622 131.137 165.615 130.799 164.922 130.125C164.229 129.451 163.883 128.557 163.883 127.445V121.006H165.995V127.124C165.995 127.949 166.164 128.528 166.501 128.86C166.838 129.193 167.337 129.359 167.998 129.359C168.463 129.359 168.839 129.28 169.126 129.12C169.418 128.961 169.632 128.715 169.769 128.382C169.905 128.049 169.974 127.625 169.974 127.11V121.006H172.086ZM174.533 131V121.006H176.652V131H174.533ZM191.097 125.907C191.097 127.033 190.88 127.974 190.447 128.73C190.019 129.482 189.397 130.05 188.581 130.433C187.765 130.811 186.783 131 185.635 131H182.805V121.006H185.942C186.991 121.006 187.9 121.193 188.67 121.566C189.44 121.936 190.037 122.485 190.461 123.214C190.885 123.938 191.097 124.836 191.097 125.907ZM188.896 125.962C188.896 125.224 188.786 124.618 188.567 124.144C188.353 123.665 188.034 123.312 187.61 123.084C187.191 122.856 186.672 122.742 186.052 122.742H184.924V129.25H185.833C186.868 129.25 187.635 128.974 188.137 128.423C188.643 127.871 188.896 127.051 188.896 125.962ZM196.155 123.214C196.862 123.214 197.47 123.351 197.98 123.624C198.491 123.893 198.885 124.285 199.163 124.8C199.441 125.315 199.58 125.944 199.58 126.687V127.698H194.651C194.674 128.286 194.85 128.749 195.178 129.086C195.51 129.419 195.971 129.585 196.559 129.585C197.046 129.585 197.493 129.535 197.898 129.435C198.304 129.334 198.721 129.184 199.149 128.983V130.597C198.771 130.784 198.375 130.92 197.96 131.007C197.55 131.093 197.051 131.137 196.463 131.137C195.697 131.137 195.018 130.995 194.426 130.713C193.838 130.43 193.375 130 193.038 129.421C192.705 128.842 192.539 128.113 192.539 127.233C192.539 126.34 192.689 125.597 192.99 125.005C193.296 124.408 193.719 123.961 194.262 123.665C194.804 123.364 195.435 123.214 196.155 123.214ZM196.169 124.697C195.763 124.697 195.426 124.827 195.157 125.087C194.893 125.347 194.74 125.755 194.699 126.311H197.625C197.62 126.001 197.563 125.725 197.454 125.483C197.349 125.242 197.19 125.05 196.976 124.909C196.766 124.768 196.497 124.697 196.169 124.697ZM206.607 128.73C206.607 129.25 206.484 129.69 206.238 130.05C205.997 130.405 205.634 130.676 205.151 130.863C204.668 131.046 204.067 131.137 203.347 131.137C202.813 131.137 202.355 131.103 201.973 131.034C201.594 130.966 201.212 130.852 200.824 130.692V128.97C201.239 129.157 201.683 129.312 202.157 129.435C202.636 129.553 203.055 129.612 203.415 129.612C203.821 129.612 204.11 129.553 204.283 129.435C204.461 129.312 204.55 129.152 204.55 128.956C204.55 128.828 204.513 128.715 204.44 128.614C204.372 128.509 204.222 128.393 203.989 128.266C203.757 128.133 203.392 127.963 202.896 127.753C202.417 127.552 202.023 127.35 201.713 127.145C201.408 126.939 201.18 126.698 201.029 126.42C200.883 126.137 200.811 125.78 200.811 125.347C200.811 124.64 201.084 124.109 201.631 123.754C202.182 123.394 202.918 123.214 203.839 123.214C204.313 123.214 204.764 123.262 205.192 123.357C205.625 123.453 206.07 123.606 206.525 123.815L205.896 125.319C205.518 125.155 205.16 125.021 204.823 124.916C204.491 124.811 204.151 124.759 203.805 124.759C203.499 124.759 203.269 124.8 203.114 124.882C202.959 124.964 202.882 125.089 202.882 125.258C202.882 125.381 202.921 125.49 202.998 125.586C203.08 125.682 203.235 125.789 203.463 125.907C203.695 126.021 204.035 126.169 204.481 126.352C204.914 126.529 205.29 126.716 205.609 126.912C205.928 127.104 206.174 127.343 206.348 127.63C206.521 127.912 206.607 128.279 206.607 128.73ZM210.319 123.357V131H208.234V123.357H210.319ZM209.28 120.363C209.59 120.363 209.857 120.436 210.08 120.582C210.303 120.723 210.415 120.99 210.415 121.382C210.415 121.769 210.303 122.038 210.08 122.188C209.857 122.334 209.59 122.407 209.28 122.407C208.966 122.407 208.697 122.334 208.474 122.188C208.255 122.038 208.146 121.769 208.146 121.382C208.146 120.99 208.255 120.723 208.474 120.582C208.697 120.436 208.966 120.363 209.28 120.363ZM214.749 134.363C213.683 134.363 212.867 134.176 212.302 133.803C211.741 133.434 211.461 132.914 211.461 132.244C211.461 131.784 211.604 131.399 211.892 131.089C212.179 130.779 212.6 130.558 213.156 130.426C212.942 130.335 212.755 130.187 212.596 129.981C212.436 129.772 212.356 129.551 212.356 129.318C212.356 129.027 212.441 128.785 212.609 128.594C212.778 128.398 213.022 128.206 213.341 128.02C212.94 127.846 212.621 127.568 212.384 127.186C212.151 126.803 212.035 126.352 212.035 125.832C212.035 125.276 212.156 124.804 212.397 124.417C212.644 124.025 212.999 123.727 213.464 123.521C213.933 123.316 214.503 123.214 215.173 123.214C215.314 123.214 215.478 123.223 215.665 123.241C215.852 123.259 216.023 123.28 216.178 123.303C216.337 123.326 216.444 123.344 216.499 123.357H219.165V124.417L217.969 124.725C218.078 124.893 218.16 125.073 218.215 125.265C218.27 125.456 218.297 125.659 218.297 125.873C218.297 126.693 218.01 127.334 217.436 127.794C216.866 128.25 216.073 128.478 215.057 128.478C214.815 128.464 214.587 128.446 214.373 128.423C214.268 128.505 214.188 128.591 214.134 128.683C214.079 128.774 214.052 128.869 214.052 128.97C214.052 129.07 214.093 129.154 214.175 129.223C214.261 129.286 214.389 129.337 214.558 129.373C214.731 129.405 214.945 129.421 215.2 129.421H216.499C217.338 129.421 217.976 129.601 218.413 129.961C218.855 130.321 219.076 130.85 219.076 131.547C219.076 132.44 218.702 133.133 217.955 133.625C217.212 134.117 216.144 134.363 214.749 134.363ZM214.838 133.003C215.335 133.003 215.761 132.955 216.116 132.859C216.476 132.768 216.752 132.636 216.943 132.463C217.135 132.294 217.23 132.091 217.23 131.854C217.23 131.663 217.174 131.51 217.06 131.396C216.95 131.287 216.782 131.21 216.554 131.164C216.33 131.118 216.043 131.096 215.692 131.096H214.612C214.357 131.096 214.127 131.137 213.922 131.219C213.721 131.301 213.562 131.415 213.443 131.561C213.325 131.711 213.266 131.884 213.266 132.08C213.266 132.367 213.402 132.593 213.676 132.757C213.954 132.921 214.341 133.003 214.838 133.003ZM215.173 127.206C215.565 127.206 215.852 127.085 216.034 126.844C216.216 126.602 216.308 126.274 216.308 125.859C216.308 125.399 216.212 125.055 216.021 124.827C215.834 124.595 215.551 124.479 215.173 124.479C214.79 124.479 214.503 124.595 214.312 124.827C214.12 125.055 214.024 125.399 214.024 125.859C214.024 126.274 214.118 126.602 214.305 126.844C214.496 127.085 214.785 127.206 215.173 127.206ZM224.771 123.214C225.586 123.214 226.243 123.437 226.739 123.884C227.236 124.326 227.484 125.037 227.484 126.017V131H225.399V126.536C225.399 125.989 225.299 125.577 225.099 125.299C224.903 125.021 224.593 124.882 224.169 124.882C223.531 124.882 223.096 125.098 222.863 125.531C222.631 125.964 222.515 126.589 222.515 127.404V131H220.43V123.357H222.022L222.303 124.335H222.419C222.583 124.071 222.786 123.856 223.027 123.692C223.273 123.528 223.545 123.408 223.841 123.33C224.142 123.253 224.451 123.214 224.771 123.214ZM236.624 121.006C237.914 121.006 238.855 121.284 239.447 121.84C240.04 122.391 240.336 123.152 240.336 124.123C240.336 124.561 240.27 124.98 240.138 125.381C240.006 125.777 239.789 126.131 239.488 126.44C239.192 126.75 238.796 126.996 238.299 127.179C237.802 127.356 237.189 127.445 236.46 127.445H235.551V131H233.432V121.006H236.624ZM236.515 122.742H235.551V125.709H236.248C236.645 125.709 236.989 125.657 237.28 125.552C237.572 125.447 237.798 125.283 237.957 125.06C238.117 124.836 238.196 124.549 238.196 124.198C238.196 123.706 238.06 123.341 237.786 123.104C237.513 122.863 237.089 122.742 236.515 122.742ZM244.144 120.363V122.53C244.144 122.909 244.13 123.269 244.103 123.61C244.08 123.952 244.062 124.194 244.048 124.335H244.157C244.321 124.071 244.515 123.856 244.738 123.692C244.966 123.528 245.217 123.408 245.49 123.33C245.764 123.253 246.058 123.214 246.372 123.214C246.924 123.214 247.404 123.312 247.814 123.508C248.225 123.699 248.544 124.002 248.771 124.417C248.999 124.827 249.113 125.36 249.113 126.017V131H247.028V126.536C247.028 125.989 246.928 125.577 246.728 125.299C246.527 125.021 246.217 124.882 245.798 124.882C245.379 124.882 245.048 124.98 244.807 125.176C244.565 125.367 244.394 125.652 244.294 126.03C244.194 126.404 244.144 126.862 244.144 127.404V131H242.059V120.363H244.144ZM254.391 123.2C255.416 123.2 256.202 123.424 256.749 123.87C257.296 124.317 257.569 124.996 257.569 125.907V131H256.113L255.71 129.961H255.655C255.437 130.234 255.213 130.458 254.985 130.631C254.757 130.804 254.495 130.932 254.199 131.014C253.903 131.096 253.543 131.137 253.119 131.137C252.668 131.137 252.262 131.05 251.902 130.877C251.547 130.704 251.267 130.439 251.062 130.084C250.856 129.724 250.754 129.268 250.754 128.717C250.754 127.906 251.039 127.309 251.608 126.926C252.178 126.538 253.033 126.324 254.172 126.283L255.498 126.242V125.907C255.498 125.506 255.393 125.212 255.184 125.025C254.974 124.839 254.682 124.745 254.309 124.745C253.939 124.745 253.577 124.798 253.222 124.902C252.866 125.007 252.511 125.139 252.155 125.299L251.465 123.891C251.87 123.676 252.324 123.508 252.825 123.385C253.331 123.262 253.853 123.2 254.391 123.2ZM255.498 127.459L254.691 127.486C254.017 127.505 253.548 127.625 253.283 127.849C253.023 128.072 252.894 128.366 252.894 128.73C252.894 129.049 252.987 129.277 253.174 129.414C253.361 129.546 253.604 129.612 253.905 129.612C254.352 129.612 254.728 129.48 255.033 129.216C255.343 128.951 255.498 128.576 255.498 128.088V127.459ZM265.055 128.73C265.055 129.25 264.932 129.69 264.686 130.05C264.444 130.405 264.082 130.676 263.599 130.863C263.116 131.046 262.514 131.137 261.794 131.137C261.261 131.137 260.803 131.103 260.42 131.034C260.042 130.966 259.659 130.852 259.271 130.692V128.97C259.686 129.157 260.131 129.312 260.604 129.435C261.083 129.553 261.502 129.612 261.862 129.612C262.268 129.612 262.557 129.553 262.73 129.435C262.908 129.312 262.997 129.152 262.997 128.956C262.997 128.828 262.961 128.715 262.888 128.614C262.819 128.509 262.669 128.393 262.437 128.266C262.204 128.133 261.84 127.963 261.343 127.753C260.864 127.552 260.47 127.35 260.16 127.145C259.855 126.939 259.627 126.698 259.477 126.42C259.331 126.137 259.258 125.78 259.258 125.347C259.258 124.64 259.531 124.109 260.078 123.754C260.63 123.394 261.366 123.214 262.286 123.214C262.76 123.214 263.211 123.262 263.64 123.357C264.073 123.453 264.517 123.606 264.973 123.815L264.344 125.319C263.965 125.155 263.608 125.021 263.271 124.916C262.938 124.811 262.598 124.759 262.252 124.759C261.947 124.759 261.716 124.8 261.562 124.882C261.407 124.964 261.329 125.089 261.329 125.258C261.329 125.381 261.368 125.49 261.445 125.586C261.527 125.682 261.682 125.789 261.91 125.907C262.143 126.021 262.482 126.169 262.929 126.352C263.362 126.529 263.738 126.716 264.057 126.912C264.376 127.104 264.622 127.343 264.795 127.63C264.968 127.912 265.055 128.279 265.055 128.73ZM269.833 123.214C270.539 123.214 271.148 123.351 271.658 123.624C272.169 123.893 272.563 124.285 272.841 124.8C273.119 125.315 273.258 125.944 273.258 126.687V127.698H268.329C268.352 128.286 268.527 128.749 268.855 129.086C269.188 129.419 269.648 129.585 270.236 129.585C270.724 129.585 271.171 129.535 271.576 129.435C271.982 129.334 272.399 129.184 272.827 128.983V130.597C272.449 130.784 272.052 130.92 271.638 131.007C271.228 131.093 270.729 131.137 270.141 131.137C269.375 131.137 268.696 130.995 268.104 130.713C267.516 130.43 267.053 130 266.716 129.421C266.383 128.842 266.217 128.113 266.217 127.233C266.217 126.34 266.367 125.597 266.668 125.005C266.973 124.408 267.397 123.961 267.939 123.665C268.482 123.364 269.113 123.214 269.833 123.214ZM269.847 124.697C269.441 124.697 269.104 124.827 268.835 125.087C268.571 125.347 268.418 125.755 268.377 126.311H271.303C271.298 126.001 271.241 125.725 271.132 125.483C271.027 125.242 270.868 125.05 270.653 124.909C270.444 124.768 270.175 124.697 269.847 124.697ZM278.754 131V121.006H280.873V131H278.754Z" fill="white"/>
<g filter="url(#filter2_d_23_237)">
<rect x="265" y="160" width="584" height="37" rx="10" fill="#34776B"/>
</g>
<path d="M290.393 174.006V180.473C290.393 181.161 290.24 181.783 289.935 182.339C289.634 182.89 289.176 183.328 288.561 183.651C287.95 183.975 287.18 184.137 286.25 184.137C284.928 184.137 283.921 183.799 283.229 183.125C282.536 182.451 282.189 181.557 282.189 180.445V174.006H284.302V180.124C284.302 180.949 284.47 181.528 284.808 181.86C285.145 182.193 285.644 182.359 286.305 182.359C286.77 182.359 287.146 182.28 287.433 182.12C287.724 181.961 287.938 181.715 288.075 181.382C288.212 181.049 288.28 180.625 288.28 180.11V174.006H290.393ZM300.92 184H298.5L296.176 180.22L293.852 184H291.582L294.897 178.846L291.794 174.006H294.132L296.285 177.602L298.397 174.006H300.681L297.543 178.962L300.92 184ZM308.897 173.862C309.435 173.862 309.914 173.947 310.333 174.115C310.752 174.284 311.083 174.53 311.324 174.854C311.57 175.177 311.693 175.571 311.693 176.036C311.693 176.679 311.502 177.219 311.119 177.656C310.741 178.094 310.267 178.477 309.697 178.805L311.639 180.698C311.83 180.384 311.992 180.051 312.124 179.7C312.261 179.349 312.379 178.996 312.479 178.641H314.653C314.512 179.165 314.305 179.725 314.031 180.322C313.762 180.915 313.418 181.473 312.999 181.997L315.057 184H312.479L311.693 183.228C311.424 183.414 311.135 183.576 310.825 183.713C310.52 183.85 310.192 183.954 309.841 184.027C309.494 184.1 309.128 184.137 308.74 184.137C307.984 184.137 307.334 184.018 306.792 183.781C306.25 183.544 305.835 183.214 305.548 182.79C305.261 182.362 305.117 181.865 305.117 181.3C305.117 180.826 305.19 180.42 305.336 180.083C305.482 179.741 305.691 179.443 305.965 179.188C306.238 178.928 306.566 178.688 306.949 178.47C306.708 178.187 306.514 177.923 306.368 177.677C306.227 177.431 306.124 177.187 306.061 176.945C306.001 176.699 305.972 176.442 305.972 176.173C305.972 175.699 306.095 175.291 306.341 174.949C306.591 174.603 306.936 174.336 307.373 174.149C307.815 173.958 308.323 173.862 308.897 173.862ZM308.166 179.714C307.993 179.846 307.84 179.983 307.708 180.124C307.58 180.265 307.482 180.416 307.414 180.575C307.346 180.735 307.312 180.91 307.312 181.102C307.312 181.503 307.462 181.817 307.763 182.045C308.063 182.273 308.437 182.387 308.884 182.387C309.185 182.387 309.465 182.35 309.725 182.277C309.984 182.204 310.221 182.102 310.436 181.97L308.166 179.714ZM308.884 175.476C308.651 175.476 308.428 175.535 308.214 175.653C308.004 175.772 307.899 175.993 307.899 176.316C307.899 176.544 307.959 176.768 308.077 176.986C308.196 177.201 308.353 177.419 308.549 177.643C308.941 177.428 309.242 177.214 309.451 177C309.661 176.781 309.766 176.533 309.766 176.255C309.766 175.977 309.67 175.779 309.479 175.66C309.292 175.537 309.093 175.476 308.884 175.476ZM328.086 174.006V180.473C328.086 181.161 327.933 181.783 327.628 182.339C327.327 182.89 326.869 183.328 326.254 183.651C325.643 183.975 324.873 184.137 323.943 184.137C322.622 184.137 321.615 183.799 320.922 183.125C320.229 182.451 319.883 181.557 319.883 180.445V174.006H321.995V180.124C321.995 180.949 322.164 181.528 322.501 181.86C322.838 182.193 323.337 182.359 323.998 182.359C324.463 182.359 324.839 182.28 325.126 182.12C325.418 181.961 325.632 181.715 325.769 181.382C325.905 181.049 325.974 180.625 325.974 180.11V174.006H328.086ZM330.533 184V174.006H332.652V184H330.533ZM347.097 178.907C347.097 180.033 346.88 180.974 346.447 181.73C346.019 182.482 345.397 183.05 344.581 183.433C343.765 183.811 342.783 184 341.635 184H338.805V174.006H341.942C342.991 174.006 343.9 174.193 344.67 174.566C345.44 174.936 346.037 175.485 346.461 176.214C346.885 176.938 347.097 177.836 347.097 178.907ZM344.896 178.962C344.896 178.224 344.786 177.618 344.567 177.144C344.353 176.665 344.034 176.312 343.61 176.084C343.191 175.856 342.672 175.742 342.052 175.742H340.924V182.25H341.833C342.868 182.25 343.635 181.974 344.137 181.423C344.643 180.871 344.896 180.051 344.896 178.962ZM352.155 176.214C352.862 176.214 353.47 176.351 353.98 176.624C354.491 176.893 354.885 177.285 355.163 177.8C355.441 178.315 355.58 178.944 355.58 179.687V180.698H350.651C350.674 181.286 350.85 181.749 351.178 182.086C351.51 182.419 351.971 182.585 352.559 182.585C353.046 182.585 353.493 182.535 353.898 182.435C354.304 182.334 354.721 182.184 355.149 181.983V183.597C354.771 183.784 354.375 183.92 353.96 184.007C353.55 184.093 353.051 184.137 352.463 184.137C351.697 184.137 351.018 183.995 350.426 183.713C349.838 183.43 349.375 183 349.038 182.421C348.705 181.842 348.539 181.113 348.539 180.233C348.539 179.34 348.689 178.597 348.99 178.005C349.296 177.408 349.719 176.961 350.262 176.665C350.804 176.364 351.435 176.214 352.155 176.214ZM352.169 177.697C351.763 177.697 351.426 177.827 351.157 178.087C350.893 178.347 350.74 178.755 350.699 179.311H353.625C353.62 179.001 353.563 178.725 353.454 178.483C353.349 178.242 353.19 178.05 352.976 177.909C352.766 177.768 352.497 177.697 352.169 177.697ZM362.607 181.73C362.607 182.25 362.484 182.69 362.238 183.05C361.997 183.405 361.634 183.676 361.151 183.863C360.668 184.046 360.067 184.137 359.347 184.137C358.813 184.137 358.355 184.103 357.973 184.034C357.594 183.966 357.212 183.852 356.824 183.692V181.97C357.239 182.157 357.683 182.312 358.157 182.435C358.636 182.553 359.055 182.612 359.415 182.612C359.821 182.612 360.11 182.553 360.283 182.435C360.461 182.312 360.55 182.152 360.55 181.956C360.55 181.828 360.513 181.715 360.44 181.614C360.372 181.509 360.222 181.393 359.989 181.266C359.757 181.133 359.392 180.963 358.896 180.753C358.417 180.552 358.023 180.35 357.713 180.145C357.408 179.939 357.18 179.698 357.029 179.42C356.883 179.137 356.811 178.78 356.811 178.347C356.811 177.64 357.084 177.109 357.631 176.754C358.182 176.394 358.918 176.214 359.839 176.214C360.313 176.214 360.764 176.262 361.192 176.357C361.625 176.453 362.07 176.606 362.525 176.815L361.896 178.319C361.518 178.155 361.16 178.021 360.823 177.916C360.491 177.811 360.151 177.759 359.805 177.759C359.499 177.759 359.269 177.8 359.114 177.882C358.959 177.964 358.882 178.089 358.882 178.258C358.882 178.381 358.921 178.49 358.998 178.586C359.08 178.682 359.235 178.789 359.463 178.907C359.695 179.021 360.035 179.169 360.481 179.352C360.914 179.529 361.29 179.716 361.609 179.912C361.928 180.104 362.174 180.343 362.348 180.63C362.521 180.912 362.607 181.279 362.607 181.73ZM366.319 176.357V184H364.234V176.357H366.319ZM365.28 173.363C365.59 173.363 365.857 173.436 366.08 173.582C366.303 173.723 366.415 173.99 366.415 174.382C366.415 174.769 366.303 175.038 366.08 175.188C365.857 175.334 365.59 175.407 365.28 175.407C364.966 175.407 364.697 175.334 364.474 175.188C364.255 175.038 364.146 174.769 364.146 174.382C364.146 173.99 364.255 173.723 364.474 173.582C364.697 173.436 364.966 173.363 365.28 173.363ZM370.749 187.363C369.683 187.363 368.867 187.176 368.302 186.803C367.741 186.434 367.461 185.914 367.461 185.244C367.461 184.784 367.604 184.399 367.892 184.089C368.179 183.779 368.6 183.558 369.156 183.426C368.942 183.335 368.755 183.187 368.596 182.981C368.436 182.772 368.356 182.551 368.356 182.318C368.356 182.027 368.441 181.785 368.609 181.594C368.778 181.398 369.022 181.206 369.341 181.02C368.94 180.846 368.621 180.568 368.384 180.186C368.151 179.803 368.035 179.352 368.035 178.832C368.035 178.276 368.156 177.804 368.397 177.417C368.644 177.025 368.999 176.727 369.464 176.521C369.933 176.316 370.503 176.214 371.173 176.214C371.314 176.214 371.478 176.223 371.665 176.241C371.852 176.259 372.023 176.28 372.178 176.303C372.337 176.326 372.444 176.344 372.499 176.357H375.165V177.417L373.969 177.725C374.078 177.893 374.16 178.073 374.215 178.265C374.27 178.456 374.297 178.659 374.297 178.873C374.297 179.693 374.01 180.334 373.436 180.794C372.866 181.25 372.073 181.478 371.057 181.478C370.815 181.464 370.587 181.446 370.373 181.423C370.268 181.505 370.188 181.591 370.134 181.683C370.079 181.774 370.052 181.869 370.052 181.97C370.052 182.07 370.093 182.154 370.175 182.223C370.261 182.286 370.389 182.337 370.558 182.373C370.731 182.405 370.945 182.421 371.2 182.421H372.499C373.338 182.421 373.976 182.601 374.413 182.961C374.855 183.321 375.076 183.85 375.076 184.547C375.076 185.44 374.702 186.133 373.955 186.625C373.212 187.117 372.144 187.363 370.749 187.363ZM370.838 186.003C371.335 186.003 371.761 185.955 372.116 185.859C372.476 185.768 372.752 185.636 372.943 185.463C373.135 185.294 373.23 185.091 373.23 184.854C373.23 184.663 373.174 184.51 373.06 184.396C372.95 184.287 372.782 184.21 372.554 184.164C372.33 184.118 372.043 184.096 371.692 184.096H370.612C370.357 184.096 370.127 184.137 369.922 184.219C369.721 184.301 369.562 184.415 369.443 184.561C369.325 184.711 369.266 184.884 369.266 185.08C369.266 185.367 369.402 185.593 369.676 185.757C369.954 185.921 370.341 186.003 370.838 186.003ZM371.173 180.206C371.565 180.206 371.852 180.085 372.034 179.844C372.216 179.602 372.308 179.274 372.308 178.859C372.308 178.399 372.212 178.055 372.021 177.827C371.834 177.595 371.551 177.479 371.173 177.479C370.79 177.479 370.503 177.595 370.312 177.827C370.12 178.055 370.024 178.399 370.024 178.859C370.024 179.274 370.118 179.602 370.305 179.844C370.496 180.085 370.785 180.206 371.173 180.206ZM380.771 176.214C381.586 176.214 382.243 176.437 382.739 176.884C383.236 177.326 383.484 178.037 383.484 179.017V184H381.399V179.536C381.399 178.989 381.299 178.577 381.099 178.299C380.903 178.021 380.593 177.882 380.169 177.882C379.531 177.882 379.096 178.098 378.863 178.531C378.631 178.964 378.515 179.589 378.515 180.404V184H376.43V176.357H378.022L378.303 177.335H378.419C378.583 177.071 378.786 176.856 379.027 176.692C379.273 176.528 379.545 176.408 379.841 176.33C380.142 176.253 380.451 176.214 380.771 176.214ZM392.624 174.006C393.914 174.006 394.855 174.284 395.447 174.84C396.04 175.391 396.336 176.152 396.336 177.123C396.336 177.561 396.27 177.98 396.138 178.381C396.006 178.777 395.789 179.131 395.488 179.44C395.192 179.75 394.796 179.996 394.299 180.179C393.802 180.356 393.189 180.445 392.46 180.445H391.551V184H389.432V174.006H392.624ZM392.515 175.742H391.551V178.709H392.248C392.645 178.709 392.989 178.657 393.28 178.552C393.572 178.447 393.798 178.283 393.957 178.06C394.117 177.836 394.196 177.549 394.196 177.198C394.196 176.706 394.06 176.341 393.786 176.104C393.513 175.863 393.089 175.742 392.515 175.742ZM400.144 173.363V175.53C400.144 175.909 400.13 176.269 400.103 176.61C400.08 176.952 400.062 177.194 400.048 177.335H400.157C400.321 177.071 400.515 176.856 400.738 176.692C400.966 176.528 401.217 176.408 401.49 176.33C401.764 176.253 402.058 176.214 402.372 176.214C402.924 176.214 403.404 176.312 403.814 176.508C404.225 176.699 404.544 177.002 404.771 177.417C404.999 177.827 405.113 178.36 405.113 179.017V184H403.028V179.536C403.028 178.989 402.928 178.577 402.728 178.299C402.527 178.021 402.217 177.882 401.798 177.882C401.379 177.882 401.048 177.98 400.807 178.176C400.565 178.367 400.394 178.652 400.294 179.03C400.194 179.404 400.144 179.862 400.144 180.404V184H398.059V173.363H400.144ZM410.391 176.2C411.416 176.2 412.202 176.424 412.749 176.87C413.296 177.317 413.569 177.996 413.569 178.907V184H412.113L411.71 182.961H411.655C411.437 183.234 411.213 183.458 410.985 183.631C410.757 183.804 410.495 183.932 410.199 184.014C409.903 184.096 409.543 184.137 409.119 184.137C408.668 184.137 408.262 184.05 407.902 183.877C407.547 183.704 407.267 183.439 407.062 183.084C406.856 182.724 406.754 182.268 406.754 181.717C406.754 180.906 407.039 180.309 407.608 179.926C408.178 179.538 409.033 179.324 410.172 179.283L411.498 179.242V178.907C411.498 178.506 411.393 178.212 411.184 178.025C410.974 177.839 410.682 177.745 410.309 177.745C409.939 177.745 409.577 177.798 409.222 177.902C408.866 178.007 408.511 178.139 408.155 178.299L407.465 176.891C407.87 176.676 408.324 176.508 408.825 176.385C409.331 176.262 409.853 176.2 410.391 176.2ZM411.498 180.459L410.691 180.486C410.017 180.505 409.548 180.625 409.283 180.849C409.023 181.072 408.894 181.366 408.894 181.73C408.894 182.049 408.987 182.277 409.174 182.414C409.361 182.546 409.604 182.612 409.905 182.612C410.352 182.612 410.728 182.48 411.033 182.216C411.343 181.951 411.498 181.576 411.498 181.088V180.459ZM421.055 181.73C421.055 182.25 420.932 182.69 420.686 183.05C420.444 183.405 420.082 183.676 419.599 183.863C419.116 184.046 418.514 184.137 417.794 184.137C417.261 184.137 416.803 184.103 416.42 184.034C416.042 183.966 415.659 183.852 415.271 183.692V181.97C415.686 182.157 416.131 182.312 416.604 182.435C417.083 182.553 417.502 182.612 417.862 182.612C418.268 182.612 418.557 182.553 418.73 182.435C418.908 182.312 418.997 182.152 418.997 181.956C418.997 181.828 418.961 181.715 418.888 181.614C418.819 181.509 418.669 181.393 418.437 181.266C418.204 181.133 417.84 180.963 417.343 180.753C416.864 180.552 416.47 180.35 416.16 180.145C415.855 179.939 415.627 179.698 415.477 179.42C415.331 179.137 415.258 178.78 415.258 178.347C415.258 177.64 415.531 177.109 416.078 176.754C416.63 176.394 417.366 176.214 418.286 176.214C418.76 176.214 419.211 176.262 419.64 176.357C420.073 176.453 420.517 176.606 420.973 176.815L420.344 178.319C419.965 178.155 419.608 178.021 419.271 177.916C418.938 177.811 418.598 177.759 418.252 177.759C417.947 177.759 417.716 177.8 417.562 177.882C417.407 177.964 417.329 178.089 417.329 178.258C417.329 178.381 417.368 178.49 417.445 178.586C417.527 178.682 417.682 178.789 417.91 178.907C418.143 179.021 418.482 179.169 418.929 179.352C419.362 179.529 419.738 179.716 420.057 179.912C420.376 180.104 420.622 180.343 420.795 180.63C420.968 180.912 421.055 181.279 421.055 181.73ZM425.833 176.214C426.539 176.214 427.148 176.351 427.658 176.624C428.169 176.893 428.563 177.285 428.841 177.8C429.119 178.315 429.258 178.944 429.258 179.687V180.698H424.329C424.352 181.286 424.527 181.749 424.855 182.086C425.188 182.419 425.648 182.585 426.236 182.585C426.724 182.585 427.171 182.535 427.576 182.435C427.982 182.334 428.399 182.184 428.827 181.983V183.597C428.449 183.784 428.052 183.92 427.638 184.007C427.228 184.093 426.729 184.137 426.141 184.137C425.375 184.137 424.696 183.995 424.104 183.713C423.516 183.43 423.053 183 422.716 182.421C422.383 181.842 422.217 181.113 422.217 180.233C422.217 179.34 422.367 178.597 422.668 178.005C422.973 177.408 423.397 176.961 423.939 176.665C424.482 176.364 425.113 176.214 425.833 176.214ZM425.847 177.697C425.441 177.697 425.104 177.827 424.835 178.087C424.571 178.347 424.418 178.755 424.377 179.311H427.303C427.298 179.001 427.241 178.725 427.132 178.483C427.027 178.242 426.868 178.05 426.653 177.909C426.444 177.768 426.175 177.697 425.847 177.697ZM434.754 184V174.006H436.873V184H434.754ZM439.389 184V174.006H441.508V184H439.389Z" fill="white"/>
<g filter="url(#filter3_d_23_237)">
<rect x="494" y="213" width="356" height="36" rx="10" fill="#707070"/>
</g>
<path d="M518.393 226.006V232.473C518.393 233.161 518.24 233.783 517.935 234.339C517.634 234.89 517.176 235.328 516.561 235.651C515.95 235.975 515.18 236.137 514.25 236.137C512.928 236.137 511.921 235.799 511.229 235.125C510.536 234.451 510.189 233.557 510.189 232.445V226.006H512.302V232.124C512.302 232.949 512.47 233.528 512.808 233.86C513.145 234.193 513.644 234.359 514.305 234.359C514.77 234.359 515.146 234.28 515.433 234.12C515.724 233.961 515.938 233.715 516.075 233.382C516.212 233.049 516.28 232.625 516.28 232.11V226.006H518.393ZM526.008 233.73C526.008 234.25 525.885 234.69 525.639 235.05C525.397 235.405 525.035 235.676 524.552 235.863C524.069 236.046 523.467 236.137 522.747 236.137C522.214 236.137 521.756 236.103 521.373 236.034C520.995 235.966 520.612 235.852 520.225 235.692V233.97C520.639 234.157 521.084 234.312 521.558 234.435C522.036 234.553 522.455 234.612 522.815 234.612C523.221 234.612 523.51 234.553 523.684 234.435C523.861 234.312 523.95 234.152 523.95 233.956C523.95 233.828 523.914 233.715 523.841 233.614C523.772 233.509 523.622 233.393 523.39 233.266C523.157 233.133 522.793 232.963 522.296 232.753C521.817 232.552 521.423 232.35 521.113 232.145C520.808 231.939 520.58 231.698 520.43 231.42C520.284 231.137 520.211 230.78 520.211 230.347C520.211 229.64 520.484 229.109 521.031 228.754C521.583 228.394 522.319 228.214 523.239 228.214C523.713 228.214 524.164 228.262 524.593 228.357C525.026 228.453 525.47 228.606 525.926 228.815L525.297 230.319C524.919 230.155 524.561 230.021 524.224 229.916C523.891 229.811 523.551 229.759 523.205 229.759C522.9 229.759 522.67 229.8 522.515 229.882C522.36 229.964 522.282 230.089 522.282 230.258C522.282 230.381 522.321 230.49 522.398 230.586C522.48 230.682 522.635 230.789 522.863 230.907C523.096 231.021 523.435 231.169 523.882 231.352C524.315 231.529 524.691 231.716 525.01 231.912C525.329 232.104 525.575 232.343 525.748 232.63C525.921 232.912 526.008 233.279 526.008 233.73ZM530.766 228.2C531.791 228.2 532.577 228.424 533.124 228.87C533.671 229.317 533.944 229.996 533.944 230.907V236H532.488L532.085 234.961H532.03C531.812 235.234 531.588 235.458 531.36 235.631C531.132 235.804 530.87 235.932 530.574 236.014C530.278 236.096 529.918 236.137 529.494 236.137C529.043 236.137 528.637 236.05 528.277 235.877C527.922 235.704 527.642 235.439 527.437 235.084C527.231 234.724 527.129 234.268 527.129 233.717C527.129 232.906 527.414 232.309 527.983 231.926C528.553 231.538 529.408 231.324 530.547 231.283L531.873 231.242V230.907C531.873 230.506 531.768 230.212 531.559 230.025C531.349 229.839 531.057 229.745 530.684 229.745C530.314 229.745 529.952 229.798 529.597 229.902C529.241 230.007 528.886 230.139 528.53 230.299L527.84 228.891C528.245 228.676 528.699 228.508 529.2 228.385C529.706 228.262 530.228 228.2 530.766 228.2ZM531.873 232.459L531.066 232.486C530.392 232.505 529.923 232.625 529.658 232.849C529.398 233.072 529.269 233.366 529.269 233.73C529.269 234.049 529.362 234.277 529.549 234.414C529.736 234.546 529.979 234.612 530.28 234.612C530.727 234.612 531.103 234.48 531.408 234.216C531.718 233.951 531.873 233.576 531.873 233.088V232.459ZM538.183 225.363V227.838C538.183 228.125 538.174 228.41 538.155 228.692C538.142 228.975 538.123 229.194 538.101 229.349H538.183C538.383 229.034 538.657 228.768 539.003 228.549C539.349 228.326 539.798 228.214 540.35 228.214C541.206 228.214 541.901 228.549 542.435 229.219C542.968 229.889 543.234 230.871 543.234 232.165C543.234 233.035 543.111 233.767 542.865 234.359C542.619 234.947 542.275 235.392 541.833 235.692C541.391 235.989 540.878 236.137 540.295 236.137C539.734 236.137 539.292 236.036 538.969 235.836C538.645 235.635 538.383 235.41 538.183 235.159H538.039L537.69 236H536.098V225.363H538.183ZM539.68 229.882C539.315 229.882 539.026 229.957 538.812 230.107C538.597 230.258 538.44 230.483 538.34 230.784C538.244 231.085 538.192 231.465 538.183 231.926V232.151C538.183 232.894 538.292 233.464 538.511 233.86C538.729 234.252 539.128 234.448 539.707 234.448C540.135 234.448 540.475 234.25 540.726 233.854C540.981 233.457 541.108 232.885 541.108 232.138C541.108 231.39 540.981 230.827 540.726 230.449C540.47 230.071 540.122 229.882 539.68 229.882ZM547.042 228.357V236H544.957V228.357H547.042ZM546.003 225.363C546.313 225.363 546.579 225.436 546.803 225.582C547.026 225.723 547.138 225.99 547.138 226.382C547.138 226.769 547.026 227.038 546.803 227.188C546.579 227.334 546.313 227.407 546.003 227.407C545.688 227.407 545.42 227.334 545.196 227.188C544.978 227.038 544.868 226.769 544.868 226.382C544.868 225.99 544.978 225.723 545.196 225.582C545.42 225.436 545.688 225.363 546.003 225.363ZM551.321 236H549.236V225.363H551.321V236ZM555.601 228.357V236H553.516V228.357H555.601ZM554.562 225.363C554.871 225.363 555.138 225.436 555.361 225.582C555.585 225.723 555.696 225.99 555.696 226.382C555.696 226.769 555.585 227.038 555.361 227.188C555.138 227.334 554.871 227.407 554.562 227.407C554.247 227.407 553.978 227.334 553.755 227.188C553.536 227.038 553.427 226.769 553.427 226.382C553.427 225.99 553.536 225.723 553.755 225.582C553.978 225.436 554.247 225.363 554.562 225.363ZM561.015 234.476C561.243 234.476 561.464 234.453 561.678 234.407C561.896 234.362 562.113 234.305 562.327 234.236V235.788C562.104 235.888 561.826 235.97 561.493 236.034C561.165 236.103 560.805 236.137 560.413 236.137C559.957 236.137 559.547 236.064 559.183 235.918C558.823 235.768 558.538 235.51 558.328 235.146C558.123 234.776 558.021 234.264 558.021 233.607V229.923H557.022V229.041L558.171 228.344L558.772 226.73H560.105V228.357H562.245V229.923H560.105V233.607C560.105 233.899 560.188 234.118 560.352 234.264C560.52 234.405 560.741 234.476 561.015 234.476ZM562.785 228.357H565.068L566.511 232.657C566.556 232.794 566.595 232.933 566.627 233.074C566.659 233.215 566.686 233.361 566.709 233.512C566.732 233.662 566.75 233.819 566.764 233.983H566.805C566.832 233.737 566.868 233.507 566.914 233.293C566.964 233.079 567.026 232.867 567.099 232.657L568.514 228.357H570.749L567.516 236.978C567.32 237.506 567.064 237.946 566.75 238.297C566.436 238.652 566.073 238.919 565.663 239.097C565.257 239.274 564.811 239.363 564.323 239.363C564.086 239.363 563.881 239.35 563.708 239.322C563.535 239.299 563.387 239.274 563.264 239.247V237.593C563.359 237.616 563.48 237.636 563.626 237.654C563.772 237.673 563.924 237.682 564.084 237.682C564.376 237.682 564.626 237.62 564.836 237.497C565.046 237.374 565.221 237.208 565.362 236.998C565.504 236.793 565.615 236.567 565.697 236.321L565.82 235.945L562.785 228.357ZM579.506 236H577.387V227.77H574.673V226.006H582.22V227.77H579.506V236ZM586.745 228.214C587.451 228.214 588.06 228.351 588.57 228.624C589.081 228.893 589.475 229.285 589.753 229.8C590.031 230.315 590.17 230.944 590.17 231.687V232.698H585.241C585.264 233.286 585.439 233.749 585.768 234.086C586.1 234.419 586.561 234.585 587.148 234.585C587.636 234.585 588.083 234.535 588.488 234.435C588.894 234.334 589.311 234.184 589.739 233.983V235.597C589.361 235.784 588.965 235.92 588.55 236.007C588.14 236.093 587.641 236.137 587.053 236.137C586.287 236.137 585.608 235.995 585.016 235.713C584.428 235.43 583.965 235 583.628 234.421C583.295 233.842 583.129 233.113 583.129 232.233C583.129 231.34 583.279 230.597 583.58 230.005C583.885 229.408 584.309 228.961 584.852 228.665C585.394 228.364 586.025 228.214 586.745 228.214ZM586.759 229.697C586.353 229.697 586.016 229.827 585.747 230.087C585.483 230.347 585.33 230.755 585.289 231.311H588.215C588.21 231.001 588.153 230.725 588.044 230.483C587.939 230.242 587.78 230.05 587.565 229.909C587.356 229.768 587.087 229.697 586.759 229.697ZM597.197 233.73C597.197 234.25 597.074 234.69 596.828 235.05C596.587 235.405 596.224 235.676 595.741 235.863C595.258 236.046 594.657 236.137 593.937 236.137C593.403 236.137 592.945 236.103 592.562 236.034C592.184 235.966 591.801 235.852 591.414 235.692V233.97C591.829 234.157 592.273 234.312 592.747 234.435C593.226 234.553 593.645 234.612 594.005 234.612C594.41 234.612 594.7 234.553 594.873 234.435C595.051 234.312 595.14 234.152 595.14 233.956C595.14 233.828 595.103 233.715 595.03 233.614C594.962 233.509 594.812 233.393 594.579 233.266C594.347 233.133 593.982 232.963 593.485 232.753C593.007 232.552 592.613 232.35 592.303 232.145C591.997 231.939 591.77 231.698 591.619 231.42C591.473 231.137 591.4 230.78 591.4 230.347C591.4 229.64 591.674 229.109 592.221 228.754C592.772 228.394 593.508 228.214 594.429 228.214C594.903 228.214 595.354 228.262 595.782 228.357C596.215 228.453 596.66 228.606 597.115 228.815L596.486 230.319C596.108 230.155 595.75 230.021 595.413 229.916C595.08 229.811 594.741 229.759 594.395 229.759C594.089 229.759 593.859 229.8 593.704 229.882C593.549 229.964 593.472 230.089 593.472 230.258C593.472 230.381 593.51 230.49 593.588 230.586C593.67 230.682 593.825 230.789 594.053 230.907C594.285 231.021 594.625 231.169 595.071 231.352C595.504 231.529 595.88 231.716 596.199 231.912C596.518 232.104 596.764 232.343 596.938 232.63C597.111 232.912 597.197 233.279 597.197 233.73ZM602.044 234.476C602.272 234.476 602.493 234.453 602.707 234.407C602.926 234.362 603.142 234.305 603.356 234.236V235.788C603.133 235.888 602.855 235.97 602.522 236.034C602.194 236.103 601.834 236.137 601.442 236.137C600.987 236.137 600.576 236.064 600.212 235.918C599.852 235.768 599.567 235.51 599.357 235.146C599.152 234.776 599.05 234.264 599.05 233.607V229.923H598.052V229.041L599.2 228.344L599.802 226.73H601.135V228.357H603.274V229.923H601.135V233.607C601.135 233.899 601.217 234.118 601.381 234.264C601.549 234.405 601.771 234.476 602.044 234.476ZM606.993 228.357V236H604.908V228.357H606.993ZM605.954 225.363C606.264 225.363 606.531 225.436 606.754 225.582C606.977 225.723 607.089 225.99 607.089 226.382C607.089 226.769 606.977 227.038 606.754 227.188C606.531 227.334 606.264 227.407 605.954 227.407C605.64 227.407 605.371 227.334 605.147 227.188C604.929 227.038 604.819 226.769 604.819 226.382C604.819 225.99 604.929 225.723 605.147 225.582C605.371 225.436 605.64 225.363 605.954 225.363ZM613.528 228.214C614.344 228.214 615 228.437 615.497 228.884C615.994 229.326 616.242 230.037 616.242 231.017V236H614.157V231.536C614.157 230.989 614.057 230.577 613.856 230.299C613.66 230.021 613.351 229.882 612.927 229.882C612.289 229.882 611.854 230.098 611.621 230.531C611.389 230.964 611.272 231.589 611.272 232.404V236H609.188V228.357H610.78L611.061 229.335H611.177C611.341 229.071 611.544 228.856 611.785 228.692C612.031 228.528 612.302 228.408 612.599 228.33C612.899 228.253 613.209 228.214 613.528 228.214ZM620.624 239.363C619.558 239.363 618.742 239.176 618.177 238.803C617.616 238.434 617.336 237.914 617.336 237.244C617.336 236.784 617.479 236.399 617.767 236.089C618.054 235.779 618.475 235.558 619.031 235.426C618.817 235.335 618.63 235.187 618.471 234.981C618.311 234.772 618.231 234.551 618.231 234.318C618.231 234.027 618.316 233.785 618.484 233.594C618.653 233.398 618.897 233.206 619.216 233.02C618.815 232.846 618.496 232.568 618.259 232.186C618.026 231.803 617.91 231.352 617.91 230.832C617.91 230.276 618.031 229.804 618.272 229.417C618.519 229.025 618.874 228.727 619.339 228.521C619.808 228.316 620.378 228.214 621.048 228.214C621.189 228.214 621.353 228.223 621.54 228.241C621.727 228.259 621.898 228.28 622.053 228.303C622.212 228.326 622.319 228.344 622.374 228.357H625.04V229.417L623.844 229.725C623.953 229.893 624.035 230.073 624.09 230.265C624.145 230.456 624.172 230.659 624.172 230.873C624.172 231.693 623.885 232.334 623.311 232.794C622.741 233.25 621.948 233.478 620.932 233.478C620.69 233.464 620.462 233.446 620.248 233.423C620.143 233.505 620.063 233.591 620.009 233.683C619.954 233.774 619.927 233.869 619.927 233.97C619.927 234.07 619.968 234.154 620.05 234.223C620.136 234.286 620.264 234.337 620.433 234.373C620.606 234.405 620.82 234.421 621.075 234.421H622.374C623.213 234.421 623.851 234.601 624.288 234.961C624.73 235.321 624.951 235.85 624.951 236.547C624.951 237.44 624.577 238.133 623.83 238.625C623.087 239.117 622.019 239.363 620.624 239.363ZM620.713 238.003C621.21 238.003 621.636 237.955 621.991 237.859C622.351 237.768 622.627 237.636 622.818 237.463C623.01 237.294 623.105 237.091 623.105 236.854C623.105 236.663 623.049 236.51 622.935 236.396C622.825 236.287 622.657 236.21 622.429 236.164C622.205 236.118 621.918 236.096 621.567 236.096H620.487C620.232 236.096 620.002 236.137 619.797 236.219C619.596 236.301 619.437 236.415 619.318 236.561C619.2 236.711 619.141 236.884 619.141 237.08C619.141 237.367 619.277 237.593 619.551 237.757C619.829 237.921 620.216 238.003 620.713 238.003ZM621.048 232.206C621.44 232.206 621.727 232.085 621.909 231.844C622.091 231.602 622.183 231.274 622.183 230.859C622.183 230.399 622.087 230.055 621.896 229.827C621.709 229.595 621.426 229.479 621.048 229.479C620.665 229.479 620.378 229.595 620.187 229.827C619.995 230.055 619.899 230.399 619.899 230.859C619.899 231.274 619.993 231.602 620.18 231.844C620.371 232.085 620.66 232.206 621.048 232.206Z" fill="white"/>
<g filter="url(#filter4_d_23_237)">
<rect x="648" y="265" width="356" height="37" rx="10" fill="black"/>
</g>
<path d="M672.55 282.907C672.55 284.033 672.333 284.974 671.9 285.73C671.472 286.482 670.85 287.05 670.034 287.433C669.218 287.811 668.236 288 667.088 288H664.258V278.006H667.396C668.444 278.006 669.353 278.193 670.123 278.566C670.893 278.936 671.49 279.485 671.914 280.214C672.338 280.938 672.55 281.836 672.55 282.907ZM670.349 282.962C670.349 282.224 670.239 281.618 670.021 281.144C669.806 280.665 669.487 280.312 669.063 280.084C668.644 279.856 668.125 279.742 667.505 279.742H666.377V286.25H667.286C668.321 286.25 669.089 285.974 669.59 285.423C670.096 284.871 670.349 284.051 670.349 282.962ZM677.608 280.214C678.315 280.214 678.923 280.351 679.434 280.624C679.944 280.893 680.338 281.285 680.616 281.8C680.894 282.315 681.033 282.944 681.033 283.687V284.698H676.104C676.127 285.286 676.303 285.749 676.631 286.086C676.964 286.419 677.424 286.585 678.012 286.585C678.499 286.585 678.946 286.535 679.352 286.435C679.757 286.334 680.174 286.184 680.603 285.983V287.597C680.224 287.784 679.828 287.92 679.413 288.007C679.003 288.093 678.504 288.137 677.916 288.137C677.15 288.137 676.471 287.995 675.879 287.713C675.291 287.43 674.828 287 674.491 286.421C674.159 285.842 673.992 285.113 673.992 284.233C673.992 283.34 674.143 282.597 674.443 282.005C674.749 281.408 675.173 280.961 675.715 280.665C676.257 280.364 676.888 280.214 677.608 280.214ZM677.622 281.697C677.216 281.697 676.879 281.827 676.61 282.087C676.346 282.347 676.193 282.755 676.152 283.311H679.078C679.074 283.001 679.017 282.725 678.907 282.483C678.802 282.242 678.643 282.05 678.429 281.909C678.219 281.768 677.95 281.697 677.622 281.697ZM684.547 288L681.635 280.357H683.815L685.292 284.712C685.374 284.967 685.438 285.236 685.483 285.519C685.534 285.801 685.568 286.054 685.586 286.277H685.641C685.654 286.036 685.686 285.778 685.736 285.505C685.791 285.231 685.862 284.967 685.948 284.712L687.418 280.357H689.599L686.687 288H684.547ZM693.851 280.214C694.557 280.214 695.165 280.351 695.676 280.624C696.186 280.893 696.58 281.285 696.858 281.8C697.136 282.315 697.275 282.944 697.275 283.687V284.698H692.347C692.369 285.286 692.545 285.749 692.873 286.086C693.206 286.419 693.666 286.585 694.254 286.585C694.742 286.585 695.188 286.535 695.594 286.435C695.999 286.334 696.416 286.184 696.845 285.983V287.597C696.466 287.784 696.07 287.92 695.655 288.007C695.245 288.093 694.746 288.137 694.158 288.137C693.393 288.137 692.714 287.995 692.121 287.713C691.533 287.43 691.071 287 690.733 286.421C690.401 285.842 690.234 285.113 690.234 284.233C690.234 283.34 690.385 282.597 690.686 282.005C690.991 281.408 691.415 280.961 691.957 280.665C692.499 280.364 693.131 280.214 693.851 280.214ZM693.864 281.697C693.459 281.697 693.121 281.827 692.853 282.087C692.588 282.347 692.436 282.755 692.395 283.311H695.32C695.316 283.001 695.259 282.725 695.149 282.483C695.045 282.242 694.885 282.05 694.671 281.909C694.461 281.768 694.192 281.697 693.864 281.697ZM701.056 288H698.971V277.363H701.056V288ZM710.195 284.165C710.195 284.803 710.109 285.368 709.936 285.86C709.767 286.353 709.519 286.77 709.19 287.111C708.867 287.449 708.475 287.704 708.015 287.877C707.559 288.05 707.044 288.137 706.47 288.137C705.932 288.137 705.438 288.05 704.986 287.877C704.54 287.704 704.15 287.449 703.817 287.111C703.489 286.77 703.234 286.353 703.052 285.86C702.874 285.368 702.785 284.803 702.785 284.165C702.785 283.317 702.936 282.6 703.236 282.012C703.537 281.424 703.965 280.977 704.521 280.672C705.077 280.367 705.741 280.214 706.511 280.214C707.226 280.214 707.86 280.367 708.411 280.672C708.967 280.977 709.402 281.424 709.717 282.012C710.036 282.6 710.195 283.317 710.195 284.165ZM704.911 284.165C704.911 284.666 704.966 285.088 705.075 285.43C705.185 285.771 705.355 286.029 705.588 286.202C705.82 286.375 706.123 286.462 706.497 286.462C706.866 286.462 707.165 286.375 707.393 286.202C707.625 286.029 707.794 285.771 707.898 285.43C708.008 285.088 708.062 284.666 708.062 284.165C708.062 283.659 708.008 283.24 707.898 282.907C707.794 282.57 707.625 282.317 707.393 282.148C707.16 281.98 706.857 281.896 706.483 281.896C705.932 281.896 705.531 282.085 705.28 282.463C705.034 282.841 704.911 283.409 704.911 284.165ZM716.17 280.214C717.031 280.214 717.726 280.549 718.255 281.219C718.788 281.889 719.055 282.871 719.055 284.165C719.055 285.031 718.929 285.76 718.679 286.353C718.428 286.94 718.082 287.385 717.64 287.686C717.198 287.986 716.689 288.137 716.115 288.137C715.746 288.137 715.429 288.091 715.165 288C714.901 287.904 714.675 287.784 714.488 287.638C714.301 287.487 714.14 287.328 714.003 287.159H713.894C713.93 287.341 713.957 287.528 713.976 287.72C713.994 287.911 714.003 288.098 714.003 288.28V291.363H711.918V280.357H713.613L713.907 281.349H714.003C714.14 281.144 714.306 280.954 714.502 280.781C714.698 280.608 714.933 280.471 715.206 280.371C715.484 280.266 715.805 280.214 716.17 280.214ZM715.5 281.882C715.135 281.882 714.846 281.957 714.632 282.107C714.418 282.258 714.26 282.483 714.16 282.784C714.064 283.085 714.012 283.465 714.003 283.926V284.151C714.003 284.644 714.049 285.061 714.14 285.402C714.235 285.744 714.393 286.004 714.611 286.182C714.835 286.359 715.14 286.448 715.527 286.448C715.846 286.448 716.108 286.359 716.313 286.182C716.519 286.004 716.671 285.744 716.771 285.402C716.876 285.056 716.929 284.634 716.929 284.138C716.929 283.39 716.812 282.827 716.58 282.449C716.348 282.071 715.988 281.882 715.5 281.882ZM729.753 280.214C730.619 280.214 731.273 280.437 731.715 280.884C732.161 281.326 732.385 282.037 732.385 283.017V288H730.293V283.536C730.293 282.989 730.2 282.577 730.013 282.299C729.826 282.021 729.536 281.882 729.145 281.882C728.593 281.882 728.201 282.08 727.969 282.477C727.736 282.868 727.62 283.431 727.62 284.165V288H725.535V283.536C725.535 283.172 725.494 282.866 725.412 282.62C725.33 282.374 725.205 282.189 725.036 282.066C724.868 281.943 724.651 281.882 724.387 281.882C723.999 281.882 723.694 281.98 723.471 282.176C723.252 282.367 723.095 282.652 722.999 283.03C722.908 283.404 722.862 283.862 722.862 284.404V288H720.777V280.357H722.37L722.65 281.335H722.767C722.922 281.071 723.115 280.856 723.348 280.692C723.585 280.528 723.844 280.408 724.127 280.33C724.41 280.253 724.697 280.214 724.988 280.214C725.549 280.214 726.023 280.305 726.41 280.487C726.802 280.67 727.103 280.952 727.312 281.335H727.497C727.725 280.943 728.046 280.658 728.461 280.48C728.88 280.303 729.311 280.214 729.753 280.214ZM737.683 280.214C738.389 280.214 738.997 280.351 739.508 280.624C740.018 280.893 740.412 281.285 740.69 281.8C740.968 282.315 741.107 282.944 741.107 283.687V284.698H736.179C736.201 285.286 736.377 285.749 736.705 286.086C737.038 286.419 737.498 286.585 738.086 286.585C738.574 286.585 739.02 286.535 739.426 286.435C739.831 286.334 740.248 286.184 740.677 285.983V287.597C740.299 287.784 739.902 287.92 739.487 288.007C739.077 288.093 738.578 288.137 737.99 288.137C737.225 288.137 736.546 287.995 735.953 287.713C735.365 287.43 734.903 287 734.565 286.421C734.233 285.842 734.066 285.113 734.066 284.233C734.066 283.34 734.217 282.597 734.518 282.005C734.823 281.408 735.247 280.961 735.789 280.665C736.331 280.364 736.963 280.214 737.683 280.214ZM737.696 281.697C737.291 281.697 736.953 281.827 736.685 282.087C736.42 282.347 736.268 282.755 736.227 283.311H739.152C739.148 283.001 739.091 282.725 738.981 282.483C738.877 282.242 738.717 282.05 738.503 281.909C738.293 281.768 738.024 281.697 737.696 281.697ZM747.144 280.214C747.959 280.214 748.616 280.437 749.112 280.884C749.609 281.326 749.857 282.037 749.857 283.017V288H747.772V283.536C747.772 282.989 747.672 282.577 747.472 282.299C747.276 282.021 746.966 281.882 746.542 281.882C745.904 281.882 745.469 282.098 745.236 282.531C745.004 282.964 744.888 283.589 744.888 284.404V288H742.803V280.357H744.396L744.676 281.335H744.792C744.956 281.071 745.159 280.856 745.4 280.692C745.646 280.528 745.918 280.408 746.214 280.33C746.515 280.253 746.825 280.214 747.144 280.214ZM755.224 286.476C755.451 286.476 755.673 286.453 755.887 286.407C756.105 286.362 756.322 286.305 756.536 286.236V287.788C756.313 287.888 756.035 287.97 755.702 288.034C755.374 288.103 755.014 288.137 754.622 288.137C754.166 288.137 753.756 288.064 753.392 287.918C753.032 287.768 752.747 287.51 752.537 287.146C752.332 286.776 752.229 286.264 752.229 285.607V281.923H751.231V281.041L752.38 280.344L752.981 278.73H754.314V280.357H756.454V281.923H754.314V285.607C754.314 285.899 754.396 286.118 754.561 286.264C754.729 286.405 754.95 286.476 755.224 286.476Z" fill="white"/>
<defs>
<filter id="filter0_d_23_237" x="23" y="54" width="206" height="45" filterUnits="userSpaceOnUse" color-interpolation-filters="sRGB">
<feFlood flood-opacity="0" result="BackgroundImageFix"/>
<feColorMatrix in="SourceAlpha" type="matrix" values="0 0 0 0 0 0 0 0 0 0 0 0 0 0 0 0 0 0 127 0" result="hardAlpha"/>
<feOffset dy="4"/>
<feGaussianBlur stdDeviation="2"/>
<feComposite in2="hardAlpha" operator="out"/>
<feColorMatrix type="matrix" values="0 0 0 0 0 0 0 0 0 0 0 0 0 0 0 0 0 0 0.25 0"/>
<feBlend mode="normal" in2="BackgroundImageFix" result="effect1_dropShadow_23_237"/>
<feBlend mode="normal" in="SourceGraphic" in2="effect1_dropShadow_23_237" result="shape"/>
</filter>
<filter id="filter1_d_23_237" x="106" y="107" width="351" height="45" filterUnits="userSpaceOnUse" color-interpolation-filters="sRGB">
<feFlood flood-opacity="0" result="BackgroundImageFix"/>
<feColorMatrix in="SourceAlpha" type="matrix" values="0 0 0 0 0 0 0 0 0 0 0 0 0 0 0 0 0 0 127 0" result="hardAlpha"/>
<feOffset dy="4"/>
<feGaussianBlur stdDeviation="2"/>
<feComposite in2="hardAlpha" operator="out"/>
<feColorMatrix type="matrix" values="0 0 0 0 0 0 0 0 0 0 0 0 0 0 0 0 0 0 0.25 0"/>
<feBlend mode="normal" in2="BackgroundImageFix" result="effect1_dropShadow_23_237"/>
<feBlend mode="normal" in="SourceGraphic" in2="effect1_dropShadow_23_237" result="shape"/>
</filter>
<filter id="filter2_d_23_237" x="261" y="160" width="592" height="45" filterUnits="userSpaceOnUse" color-interpolation-filters="sRGB">
<feFlood flood-opacity="0" result="BackgroundImageFix"/>
<feColorMatrix in="SourceAlpha" type="matrix" values="0 0 0 0 0 0 0 0 0 0 0 0 0 0 0 0 0 0 127 0" result="hardAlpha"/>
<feOffset dy="4"/>
<feGaussianBlur stdDeviation="2"/>
<feComposite in2="hardAlpha" operator="out"/>
<feColorMatrix type="matrix" values="0 0 0 0 0 0 0 0 0 0 0 0 0 0 0 0 0 0 0.25 0"/>
<feBlend mode="normal" in2="BackgroundImageFix" result="effect1_dropShadow_23_237"/>
<feBlend mode="normal" in="SourceGraphic" in2="effect1_dropShadow_23_237" result="shape"/>
</filter>
<filter id="filter3_d_23_237" x="490" y="213" width="364" height="44" filterUnits="userSpaceOnUse" color-interpolation-filters="sRGB">
<feFlood flood-opacity="0" result="BackgroundImageFix"/>
<feColorMatrix in="SourceAlpha" type="matrix" values="0 0 0 0 0 0 0 0 0 0 0 0 0 0 0 0 0 0 127 0" result="hardAlpha"/>
<feOffset dy="4"/>
<feGaussianBlur stdDeviation="2"/>
<feComposite in2="hardAlpha" operator="out"/>
<feColorMatrix type="matrix" values="0 0 0 0 0 0 0 0 0 0 0 0 0 0 0 0 0 0 0.25 0"/>
<feBlend mode="normal" in2="BackgroundImageFix" result="effect1_dropShadow_23_237"/>
<feBlend mode="normal" in="SourceGraphic" in2="effect1_dropShadow_23_237" result="shape"/>
</filter>
<filter id="filter4_d_23_237" x="644" y="265" width="364" height="45" filterUnits="userSpaceOnUse" color-interpolation-filters="sRGB">
<feFlood flood-opacity="0" result="BackgroundImageFix"/>
<feColorMatrix in="SourceAlpha" type="matrix" values="0 0 0 0 0 0 0 0 0 0 0 0 0 0 0 0 0 0 127 0" result="hardAlpha"/>
<feOffset dy="4"/>
<feGaussianBlur stdDeviation="2"/>
<feComposite in2="hardAlpha" operator="out"/>
<feColorMatrix type="matrix" values="0 0 0 0 0 0 0 0 0 0 0 0 0 0 0 0 0 0 0.25 0"/>
<feBlend mode="normal" in2="BackgroundImageFix" result="effect1_dropShadow_23_237"/>
<feBlend mode="normal" in="SourceGraphic" in2="effect1_dropShadow_23_237" result="shape"/>
</filter>
</defs>
</svg>
