<svg width="242" height="161" viewBox="0 0 242 161" fill="none" xmlns="http://www.w3.org/2000/svg">
<g filter="url(#filter0_d_3_70)">
<rect x="74" y="88" width="162" height="66" rx="5" fill="white"/>
</g>
<path d="M170.33 115H169.041V109.507L167.005 113.77H165.965L163.938 109.531V115H162.649V107.676H164.29L166.487 112.358L168.68 107.676H170.33V115ZM173.904 115.098C173.406 115.098 172.96 114.987 172.566 114.766C172.176 114.544 171.867 114.243 171.639 113.862C171.414 113.478 171.302 113.044 171.302 112.559C171.302 112.074 171.414 111.641 171.639 111.26C171.867 110.876 172.176 110.573 172.566 110.352C172.96 110.13 173.406 110.02 173.904 110.02C174.399 110.02 174.842 110.13 175.232 110.352C175.623 110.573 175.929 110.876 176.15 111.26C176.375 111.641 176.487 112.074 176.487 112.559C176.487 113.044 176.375 113.478 176.15 113.862C175.929 114.243 175.623 114.544 175.232 114.766C174.842 114.987 174.399 115.098 173.904 115.098ZM173.895 114.019C174.155 114.019 174.388 113.955 174.593 113.828C174.798 113.701 174.959 113.527 175.076 113.306C175.197 113.084 175.257 112.834 175.257 112.554C175.257 112.277 175.197 112.03 175.076 111.812C174.959 111.59 174.798 111.416 174.593 111.289C174.388 111.162 174.155 111.099 173.895 111.099C173.637 111.099 173.405 111.162 173.196 111.289C172.991 111.416 172.828 111.59 172.708 111.812C172.591 112.03 172.532 112.277 172.532 112.554C172.532 112.834 172.591 113.084 172.708 113.306C172.828 113.527 172.991 113.701 173.196 113.828C173.405 113.955 173.637 114.019 173.895 114.019ZM182.225 115H181.023V112.422C181.023 112.015 180.919 111.694 180.711 111.46C180.503 111.222 180.221 111.104 179.866 111.104C179.502 111.104 179.209 111.229 178.987 111.479C178.766 111.727 178.655 112.061 178.655 112.48V115H177.454V110.117H178.445L178.484 110.903C178.66 110.617 178.891 110.399 179.178 110.249C179.467 110.096 179.806 110.02 180.193 110.02C180.825 110.02 181.321 110.212 181.683 110.596C182.044 110.98 182.225 111.51 182.225 112.188V115ZM186.551 114.873C186.193 115.023 185.846 115.098 185.511 115.098C185.169 115.098 184.868 115.024 184.607 114.878C184.35 114.731 184.148 114.528 184.002 114.268C183.859 114.004 183.787 113.698 183.787 113.35V111.191H182.933V110.117H183.851V108.896H184.988V110.117H186.38V111.191H184.988V113.13C184.988 113.407 185.063 113.625 185.213 113.784C185.366 113.944 185.556 114.023 185.784 114.023C185.986 114.023 186.186 113.962 186.385 113.838L186.551 114.873ZM187.112 114.58L187.386 113.535C187.493 113.643 187.627 113.74 187.786 113.828C187.946 113.916 188.115 113.986 188.294 114.038C188.476 114.087 188.654 114.111 188.826 114.111C189.057 114.111 189.243 114.064 189.383 113.97C189.523 113.872 189.593 113.745 189.593 113.589C189.593 113.465 189.55 113.363 189.466 113.281C189.381 113.197 189.271 113.123 189.134 113.062C188.997 112.996 188.847 112.933 188.685 112.871C188.47 112.793 188.252 112.7 188.03 112.593C187.809 112.482 187.623 112.337 187.474 112.158C187.327 111.976 187.254 111.735 187.254 111.436C187.254 111.146 187.327 110.895 187.474 110.684C187.623 110.472 187.832 110.309 188.099 110.195C188.366 110.078 188.676 110.02 189.031 110.02C189.591 110.02 190.149 110.16 190.706 110.439L190.359 111.426C190.255 111.348 190.128 111.276 189.979 111.211C189.829 111.146 189.676 111.094 189.52 111.055C189.363 111.016 189.222 110.996 189.095 110.996C188.909 110.996 188.761 111.037 188.65 111.118C188.54 111.2 188.484 111.307 188.484 111.44C188.484 111.532 188.515 111.615 188.577 111.689C188.639 111.761 188.735 111.831 188.865 111.899C188.995 111.968 189.163 112.044 189.368 112.129C189.59 112.214 189.811 112.313 190.032 112.427C190.257 112.537 190.444 112.686 190.594 112.871C190.747 113.053 190.823 113.296 190.823 113.599C190.823 113.898 190.742 114.16 190.579 114.385C190.42 114.609 190.195 114.785 189.905 114.912C189.619 115.036 189.284 115.098 188.899 115.098C188.261 115.098 187.666 114.925 187.112 114.58ZM196.209 114.434C195.6 114.876 194.935 115.098 194.212 115.098C193.688 115.098 193.217 114.984 192.801 114.756C192.384 114.528 192.054 114.217 191.81 113.823C191.569 113.426 191.448 112.98 191.448 112.485C191.448 112.013 191.557 111.592 191.775 111.221C191.997 110.85 192.298 110.557 192.679 110.342C193.063 110.127 193.496 110.02 193.978 110.02C194.479 110.02 194.918 110.138 195.296 110.376C195.677 110.61 195.973 110.938 196.185 111.357C196.396 111.774 196.502 112.259 196.502 112.812V112.969H192.742C192.801 113.19 192.903 113.385 193.05 113.555C193.2 113.724 193.385 113.856 193.606 113.95C193.828 114.045 194.077 114.092 194.354 114.092C194.874 114.092 195.356 113.923 195.799 113.584L196.209 114.434ZM192.693 112.266H195.389C195.363 112.021 195.288 111.808 195.164 111.626C195.044 111.444 194.886 111.302 194.69 111.201C194.498 111.097 194.282 111.045 194.041 111.045C193.797 111.045 193.579 111.097 193.387 111.201C193.195 111.305 193.038 111.45 192.918 111.636C192.798 111.818 192.723 112.028 192.693 112.266ZM198.675 115H197.474V110.117H198.519L198.562 111.006C198.732 110.693 198.96 110.451 199.246 110.278C199.536 110.106 199.868 110.02 200.242 110.02C200.34 110.02 200.439 110.026 200.54 110.039C200.644 110.052 200.747 110.072 200.848 110.098L200.701 111.182C200.499 111.123 200.304 111.094 200.115 111.094C199.829 111.094 199.576 111.16 199.358 111.294C199.144 111.427 198.976 111.613 198.855 111.851C198.735 112.085 198.675 112.358 198.675 112.671V115ZM202.757 115H201.556V110.117H202.601L202.645 111.006C202.814 110.693 203.042 110.451 203.328 110.278C203.618 110.106 203.95 110.02 204.324 110.02C204.422 110.02 204.521 110.026 204.622 110.039C204.726 110.052 204.829 110.072 204.93 110.098L204.783 111.182C204.581 111.123 204.386 111.094 204.197 111.094C203.911 111.094 203.659 111.16 203.44 111.294C203.226 111.427 203.058 111.613 202.938 111.851C202.817 112.085 202.757 112.358 202.757 112.671V115ZM209.71 115H208.665L208.597 114.399C208.418 114.621 208.195 114.793 207.928 114.917C207.661 115.037 207.365 115.098 207.039 115.098C206.694 115.098 206.386 115.031 206.116 114.897C205.846 114.761 205.633 114.575 205.477 114.341C205.324 114.106 205.247 113.84 205.247 113.54C205.247 113.224 205.33 112.948 205.496 112.71C205.665 112.469 205.895 112.28 206.185 112.144C206.478 112.007 206.811 111.938 207.186 111.938C207.413 111.938 207.641 111.965 207.869 112.017C208.1 112.069 208.313 112.142 208.509 112.236V112.08C208.509 111.865 208.45 111.68 208.333 111.523C208.216 111.367 208.058 111.247 207.859 111.162C207.661 111.074 207.438 111.03 207.19 111.03C206.966 111.03 206.741 111.069 206.517 111.147C206.292 111.222 206.082 111.335 205.887 111.484L205.545 110.542C205.857 110.369 206.176 110.239 206.502 110.151C206.831 110.063 207.151 110.02 207.464 110.02C207.923 110.02 208.32 110.111 208.655 110.293C208.991 110.472 209.249 110.729 209.432 111.064C209.617 111.396 209.71 111.789 209.71 112.241V115ZM207.288 114.131C207.5 114.131 207.695 114.087 207.874 113.999C208.056 113.911 208.204 113.789 208.318 113.633C208.436 113.473 208.497 113.291 208.504 113.086V113.032C208.351 112.922 208.178 112.837 207.986 112.778C207.794 112.716 207.601 112.686 207.405 112.686C207.106 112.686 206.86 112.754 206.668 112.891C206.476 113.024 206.38 113.2 206.38 113.418C206.38 113.551 206.419 113.674 206.497 113.784C206.575 113.892 206.683 113.976 206.819 114.038C206.959 114.1 207.116 114.131 207.288 114.131ZM213.982 114.873C213.624 115.023 213.278 115.098 212.942 115.098C212.601 115.098 212.299 115.024 212.039 114.878C211.782 114.731 211.58 114.528 211.434 114.268C211.29 114.004 211.219 113.698 211.219 113.35V111.191H210.364V110.117H211.282V108.896H212.42V110.117H213.812V111.191H212.42V113.13C212.42 113.407 212.495 113.625 212.645 113.784C212.798 113.944 212.988 114.023 213.216 114.023C213.418 114.023 213.618 113.962 213.816 113.838L213.982 114.873Z" fill="#A9A9A9"/>
<path d="M171.996 130H170.449V123.408L168.006 128.523H166.758L164.326 123.438V130H162.779V121.211H164.748L167.385 126.83L170.016 121.211H171.996V130ZM178.875 129.32C178.145 129.852 177.346 130.117 176.479 130.117C175.85 130.117 175.285 129.98 174.785 129.707C174.285 129.434 173.889 129.061 173.596 128.588C173.307 128.111 173.162 127.576 173.162 126.982C173.162 126.416 173.293 125.91 173.555 125.465C173.82 125.02 174.182 124.668 174.639 124.41C175.1 124.152 175.619 124.023 176.197 124.023C176.799 124.023 177.326 124.166 177.779 124.451C178.236 124.732 178.592 125.125 178.846 125.629C179.1 126.129 179.227 126.711 179.227 127.375V127.562H174.715C174.785 127.828 174.908 128.062 175.084 128.266C175.264 128.469 175.486 128.627 175.752 128.74C176.018 128.854 176.316 128.91 176.648 128.91C177.273 128.91 177.852 128.707 178.383 128.301L178.875 129.32ZM174.656 126.719H177.891C177.859 126.426 177.77 126.17 177.621 125.951C177.477 125.732 177.287 125.562 177.053 125.441C176.822 125.316 176.562 125.254 176.273 125.254C175.98 125.254 175.719 125.316 175.488 125.441C175.258 125.566 175.07 125.74 174.926 125.963C174.781 126.182 174.691 126.434 174.656 126.719ZM186.322 130H185.051L184.975 129.18C184.721 129.473 184.412 129.703 184.049 129.871C183.686 130.035 183.291 130.117 182.865 130.117C182.314 130.117 181.822 129.984 181.389 129.719C180.955 129.453 180.613 129.092 180.363 128.635C180.117 128.174 179.994 127.652 179.994 127.07C179.994 126.488 180.117 125.969 180.363 125.512C180.613 125.051 180.955 124.688 181.389 124.422C181.822 124.156 182.314 124.023 182.865 124.023C183.268 124.023 183.641 124.096 183.984 124.24C184.328 124.385 184.627 124.588 184.881 124.85V121.211H186.322V130ZM183.182 128.822C183.494 128.822 183.779 128.752 184.037 128.611C184.295 128.467 184.5 128.27 184.652 128.02C184.805 127.77 184.881 127.484 184.881 127.164V126.959C184.881 126.643 184.805 126.361 184.652 126.115C184.5 125.865 184.295 125.67 184.037 125.529C183.779 125.385 183.494 125.312 183.182 125.312C182.854 125.312 182.561 125.391 182.303 125.547C182.045 125.699 181.842 125.908 181.693 126.174C181.545 126.436 181.471 126.732 181.471 127.064C181.471 127.4 181.545 127.701 181.693 127.967C181.842 128.232 182.045 128.441 182.303 128.594C182.561 128.746 182.854 128.822 183.182 128.822ZM188.613 122.588C188.41 122.588 188.238 122.518 188.098 122.377C187.961 122.232 187.893 122.059 187.893 121.855C187.893 121.656 187.961 121.486 188.098 121.346C188.238 121.201 188.41 121.129 188.613 121.129C188.82 121.129 188.994 121.201 189.135 121.346C189.275 121.486 189.346 121.656 189.346 121.855C189.346 122.059 189.275 122.232 189.135 122.377C188.994 122.518 188.82 122.588 188.613 122.588ZM189.334 130H187.893V124.141H189.334V130ZM196.523 130H195.334L195.287 129.057C195.076 129.4 194.799 129.664 194.455 129.848C194.111 130.027 193.705 130.117 193.236 130.117C192.482 130.117 191.887 129.887 191.449 129.426C191.016 128.961 190.799 128.322 190.799 127.51V124.141H192.24V127.234C192.24 127.723 192.363 128.109 192.609 128.395C192.859 128.676 193.197 128.816 193.623 128.816C194.064 128.816 194.418 128.666 194.684 128.365C194.949 128.064 195.082 127.664 195.082 127.164V124.141H196.523V130ZM207.539 130H206.098V126.994C206.098 126.463 205.986 126.051 205.764 125.758C205.545 125.461 205.234 125.312 204.832 125.312C204.426 125.312 204.107 125.461 203.877 125.758C203.65 126.055 203.537 126.467 203.537 126.994V130H202.096V126.994C202.096 126.463 201.984 126.051 201.762 125.758C201.539 125.461 201.229 125.312 200.83 125.312C200.42 125.312 200.1 125.461 199.869 125.758C199.643 126.055 199.529 126.467 199.529 126.994V130H198.088V124.141H199.242L199.295 125.137C199.494 124.773 199.758 124.498 200.086 124.311C200.418 124.119 200.809 124.023 201.258 124.023C201.723 124.023 202.123 124.125 202.459 124.328C202.799 124.527 203.059 124.814 203.238 125.189C203.434 124.807 203.701 124.518 204.041 124.322C204.381 124.123 204.781 124.023 205.242 124.023C205.965 124.023 206.527 124.254 206.93 124.715C207.336 125.172 207.539 125.809 207.539 126.625V130Z" fill="#707070"/>
<path d="M92.964 132L104.376 106.8H107.94L119.388 132H115.608L105.42 108.816H106.86L96.672 132H92.964ZM97.824 125.7L98.796 122.82H112.98L114.024 125.7H97.824ZM134.487 132V127.968L134.307 127.212V120.336C134.307 118.872 133.875 117.744 133.011 116.952C132.171 116.136 130.899 115.728 129.195 115.728C128.067 115.728 126.963 115.92 125.883 116.304C124.803 116.664 123.891 117.156 123.147 117.78L121.707 115.188C122.691 114.396 123.867 113.796 125.235 113.388C126.627 112.956 128.079 112.74 129.591 112.74C132.207 112.74 134.223 113.376 135.639 114.648C137.055 115.92 137.763 117.864 137.763 120.48V132H134.487ZM128.223 132.216C126.807 132.216 125.559 131.976 124.479 131.496C123.423 131.016 122.607 130.356 122.031 129.516C121.455 128.652 121.167 127.68 121.167 126.6C121.167 125.568 121.407 124.632 121.887 123.792C122.391 122.952 123.195 122.28 124.299 121.776C125.427 121.272 126.939 121.02 128.835 121.02H134.883V123.504H128.979C127.251 123.504 126.087 123.792 125.487 124.368C124.887 124.944 124.587 125.64 124.587 126.456C124.587 127.392 124.959 128.148 125.703 128.724C126.447 129.276 127.479 129.552 128.799 129.552C130.095 129.552 131.223 129.264 132.183 128.688C133.167 128.112 133.875 127.272 134.307 126.168L134.991 128.544C134.535 129.672 133.731 130.572 132.579 131.244C131.427 131.892 129.975 132.216 128.223 132.216Z" fill="black"/>
<g filter="url(#filter1_d_3_70)">
<rect x="6" y="5" width="162" height="66" rx="5" fill="white"/>
</g>
<path d="M102.33 32H101.041V26.5068L99.0049 30.7695H97.9648L95.9385 26.5312V32H94.6494V24.6758H96.29L98.4873 29.3584L100.68 24.6758H102.33V32ZM105.904 32.0977C105.406 32.0977 104.96 31.987 104.566 31.7656C104.176 31.5443 103.867 31.2432 103.639 30.8623C103.414 30.4782 103.302 30.0436 103.302 29.5586C103.302 29.0736 103.414 28.6406 103.639 28.2598C103.867 27.8757 104.176 27.5729 104.566 27.3516C104.96 27.1302 105.406 27.0195 105.904 27.0195C106.399 27.0195 106.842 27.1302 107.232 27.3516C107.623 27.5729 107.929 27.8757 108.15 28.2598C108.375 28.6406 108.487 29.0736 108.487 29.5586C108.487 30.0436 108.375 30.4782 108.15 30.8623C107.929 31.2432 107.623 31.5443 107.232 31.7656C106.842 31.987 106.399 32.0977 105.904 32.0977ZM105.895 31.0186C106.155 31.0186 106.388 30.9551 106.593 30.8281C106.798 30.7012 106.959 30.527 107.076 30.3057C107.197 30.0843 107.257 29.8337 107.257 29.5537C107.257 29.277 107.197 29.0296 107.076 28.8115C106.959 28.5902 106.798 28.416 106.593 28.2891C106.388 28.1621 106.155 28.0986 105.895 28.0986C105.637 28.0986 105.405 28.1621 105.196 28.2891C104.991 28.416 104.828 28.5902 104.708 28.8115C104.591 29.0296 104.532 29.277 104.532 29.5537C104.532 29.8337 104.591 30.0843 104.708 30.3057C104.828 30.527 104.991 30.7012 105.196 30.8281C105.405 30.9551 105.637 31.0186 105.895 31.0186ZM114.225 32H113.023V29.4219C113.023 29.015 112.919 28.6943 112.711 28.46C112.503 28.2223 112.221 28.1035 111.866 28.1035C111.502 28.1035 111.209 28.2288 110.987 28.4795C110.766 28.7269 110.655 29.0605 110.655 29.4805V32H109.454V27.1172H110.445L110.484 27.9033C110.66 27.6169 110.891 27.3988 111.178 27.249C111.467 27.096 111.806 27.0195 112.193 27.0195C112.825 27.0195 113.321 27.2116 113.683 27.5957C114.044 27.9798 114.225 28.5104 114.225 29.1875V32ZM118.551 31.873C118.193 32.0228 117.846 32.0977 117.511 32.0977C117.169 32.0977 116.868 32.0244 116.607 31.8779C116.35 31.7314 116.148 31.528 116.002 31.2676C115.859 31.0039 115.787 30.6979 115.787 30.3496V28.1914H114.933V27.1172H115.851V25.8965H116.988V27.1172H118.38V28.1914H116.988V30.1299C116.988 30.4066 117.063 30.6247 117.213 30.7842C117.366 30.9437 117.556 31.0234 117.784 31.0234C117.986 31.0234 118.186 30.9616 118.385 30.8379L118.551 31.873ZM119.112 31.5801L119.386 30.5352C119.493 30.6426 119.627 30.7402 119.786 30.8281C119.946 30.916 120.115 30.986 120.294 31.0381C120.476 31.0869 120.654 31.1113 120.826 31.1113C121.057 31.1113 121.243 31.0641 121.383 30.9697C121.523 30.8721 121.593 30.7451 121.593 30.5889C121.593 30.4652 121.55 30.3626 121.466 30.2812C121.381 30.1966 121.271 30.1234 121.134 30.0615C120.997 29.9964 120.847 29.9329 120.685 29.8711C120.47 29.793 120.252 29.7002 120.03 29.5928C119.809 29.4821 119.623 29.3372 119.474 29.1582C119.327 28.9759 119.254 28.735 119.254 28.4355C119.254 28.1458 119.327 27.8952 119.474 27.6836C119.623 27.472 119.832 27.3092 120.099 27.1953C120.366 27.0781 120.676 27.0195 121.031 27.0195C121.591 27.0195 122.149 27.1595 122.706 27.4395L122.359 28.4258C122.255 28.3477 122.128 28.276 121.979 28.2109C121.829 28.1458 121.676 28.0938 121.52 28.0547C121.363 28.0156 121.222 27.9961 121.095 27.9961C120.909 27.9961 120.761 28.0368 120.65 28.1182C120.54 28.1995 120.484 28.307 120.484 28.4404C120.484 28.5316 120.515 28.6146 120.577 28.6895C120.639 28.7611 120.735 28.8311 120.865 28.8994C120.995 28.9678 121.163 29.0443 121.368 29.1289C121.59 29.2135 121.811 29.3128 122.032 29.4268C122.257 29.5374 122.444 29.6855 122.594 29.8711C122.747 30.0534 122.823 30.2959 122.823 30.5986C122.823 30.8981 122.742 31.1602 122.579 31.3848C122.42 31.6094 122.195 31.7852 121.905 31.9121C121.619 32.0358 121.284 32.0977 120.899 32.0977C120.261 32.0977 119.666 31.9251 119.112 31.5801ZM128.209 31.4336C127.6 31.8763 126.935 32.0977 126.212 32.0977C125.688 32.0977 125.217 31.9837 124.801 31.7559C124.384 31.528 124.054 31.2171 123.81 30.8232C123.569 30.4261 123.448 29.9801 123.448 29.4854C123.448 29.0133 123.557 28.5918 123.775 28.2207C123.997 27.8496 124.298 27.5566 124.679 27.3418C125.063 27.127 125.496 27.0195 125.978 27.0195C126.479 27.0195 126.918 27.1383 127.296 27.376C127.677 27.6104 127.973 27.9375 128.185 28.3574C128.396 28.7741 128.502 29.2591 128.502 29.8125V29.9688H124.742C124.801 30.1901 124.903 30.3854 125.05 30.5547C125.2 30.724 125.385 30.8558 125.606 30.9502C125.828 31.0446 126.077 31.0918 126.354 31.0918C126.874 31.0918 127.356 30.9225 127.799 30.584L128.209 31.4336ZM124.693 29.2656H127.389C127.363 29.0215 127.288 28.8083 127.164 28.626C127.044 28.4437 126.886 28.3021 126.69 28.2012C126.498 28.097 126.282 28.0449 126.041 28.0449C125.797 28.0449 125.579 28.097 125.387 28.2012C125.195 28.3053 125.038 28.4502 124.918 28.6357C124.798 28.818 124.723 29.028 124.693 29.2656ZM130.675 32H129.474V27.1172H130.519L130.562 28.0059C130.732 27.6934 130.96 27.4508 131.246 27.2783C131.536 27.1058 131.868 27.0195 132.242 27.0195C132.34 27.0195 132.439 27.026 132.54 27.0391C132.644 27.0521 132.747 27.0716 132.848 27.0977L132.701 28.1816C132.499 28.123 132.304 28.0938 132.115 28.0938C131.829 28.0938 131.576 28.1605 131.358 28.2939C131.144 28.4274 130.976 28.613 130.855 28.8506C130.735 29.085 130.675 29.3584 130.675 29.6709V32ZM134.757 32H133.556V27.1172H134.601L134.645 28.0059C134.814 27.6934 135.042 27.4508 135.328 27.2783C135.618 27.1058 135.95 27.0195 136.324 27.0195C136.422 27.0195 136.521 27.026 136.622 27.0391C136.726 27.0521 136.829 27.0716 136.93 27.0977L136.783 28.1816C136.581 28.123 136.386 28.0938 136.197 28.0938C135.911 28.0938 135.659 28.1605 135.44 28.2939C135.226 28.4274 135.058 28.613 134.938 28.8506C134.817 29.085 134.757 29.3584 134.757 29.6709V32ZM141.71 32H140.665L140.597 31.3994C140.418 31.6208 140.195 31.7933 139.928 31.917C139.661 32.0374 139.365 32.0977 139.039 32.0977C138.694 32.0977 138.386 32.0309 138.116 31.8975C137.846 31.7607 137.633 31.5752 137.477 31.3408C137.324 31.1064 137.247 30.8395 137.247 30.54C137.247 30.2243 137.33 29.9476 137.496 29.71C137.665 29.4691 137.895 29.2803 138.185 29.1436C138.478 29.0068 138.811 28.9385 139.186 28.9385C139.413 28.9385 139.641 28.9645 139.869 29.0166C140.1 29.0687 140.313 29.1419 140.509 29.2363V29.0801C140.509 28.8652 140.45 28.6797 140.333 28.5234C140.216 28.3672 140.058 28.2467 139.859 28.1621C139.661 28.0742 139.438 28.0303 139.19 28.0303C138.966 28.0303 138.741 28.0693 138.517 28.1475C138.292 28.2223 138.082 28.3346 137.887 28.4844L137.545 27.542C137.857 27.3695 138.176 27.2393 138.502 27.1514C138.831 27.0635 139.151 27.0195 139.464 27.0195C139.923 27.0195 140.32 27.1107 140.655 27.293C140.991 27.472 141.249 27.7292 141.432 28.0645C141.617 28.3965 141.71 28.7887 141.71 29.2412V32ZM139.288 31.1309C139.5 31.1309 139.695 31.0869 139.874 30.999C140.056 30.9111 140.204 30.7891 140.318 30.6328C140.436 30.4733 140.497 30.291 140.504 30.0859V30.0322C140.351 29.9215 140.178 29.8369 139.986 29.7783C139.794 29.7165 139.601 29.6855 139.405 29.6855C139.106 29.6855 138.86 29.7539 138.668 29.8906C138.476 30.0241 138.38 30.1999 138.38 30.418C138.38 30.5514 138.419 30.6735 138.497 30.7842C138.575 30.8916 138.683 30.9762 138.819 31.0381C138.959 31.0999 139.116 31.1309 139.288 31.1309ZM145.982 31.873C145.624 32.0228 145.278 32.0977 144.942 32.0977C144.601 32.0977 144.299 32.0244 144.039 31.8779C143.782 31.7314 143.58 31.528 143.434 31.2676C143.29 31.0039 143.219 30.6979 143.219 30.3496V28.1914H142.364V27.1172H143.282V25.8965H144.42V27.1172H145.812V28.1914H144.42V30.1299C144.42 30.4066 144.495 30.6247 144.645 30.7842C144.798 30.9437 144.988 31.0234 145.216 31.0234C145.418 31.0234 145.618 30.9616 145.816 30.8379L145.982 31.873Z" fill="#A9A9A9"/>
<path d="M94.7793 47V38.2109H97.9902C98.8965 38.2109 99.6035 38.4102 100.111 38.8086C100.623 39.2031 100.879 39.752 100.879 40.4551C100.879 40.9121 100.77 41.3145 100.551 41.6621C100.332 42.0059 100.039 42.2617 99.6719 42.4297C100.184 42.5703 100.584 42.8242 100.873 43.1914C101.162 43.5586 101.307 44.0098 101.307 44.5449C101.307 45.0371 101.186 45.4688 100.943 45.8398C100.701 46.207 100.359 46.4922 99.918 46.6953C99.4805 46.8984 98.9648 47 98.3711 47H94.7793ZM96.3262 41.9551H97.9082C98.3535 41.9551 98.7051 41.8477 98.9629 41.6328C99.2207 41.4141 99.3496 41.1191 99.3496 40.748C99.3496 40.3848 99.2168 40.0977 98.9512 39.8867C98.6895 39.6758 98.3301 39.5703 97.873 39.5703H96.3262V41.9551ZM96.3262 45.6406H97.9961C98.3477 45.6406 98.6523 45.5879 98.9102 45.4824C99.168 45.373 99.3672 45.2227 99.5078 45.0312C99.6523 44.8359 99.7246 44.6074 99.7246 44.3457C99.7246 44.0918 99.6582 43.873 99.5254 43.6895C99.3926 43.502 99.2051 43.3594 98.9629 43.2617C98.7207 43.1602 98.4316 43.1094 98.0957 43.1094H96.3262V45.6406ZM105.227 47.1172C104.629 47.1172 104.094 46.9844 103.621 46.7188C103.152 46.4531 102.781 46.0918 102.508 45.6348C102.238 45.1738 102.104 44.6523 102.104 44.0703C102.104 43.4883 102.238 42.9688 102.508 42.5117C102.781 42.0508 103.152 41.6875 103.621 41.4219C104.094 41.1562 104.629 41.0234 105.227 41.0234C105.82 41.0234 106.352 41.1562 106.82 41.4219C107.289 41.6875 107.656 42.0508 107.922 42.5117C108.191 42.9688 108.326 43.4883 108.326 44.0703C108.326 44.6523 108.191 45.1738 107.922 45.6348C107.656 46.0918 107.289 46.4531 106.82 46.7188C106.352 46.9844 105.82 47.1172 105.227 47.1172ZM105.215 45.8223C105.527 45.8223 105.807 45.7461 106.053 45.5938C106.299 45.4414 106.492 45.2324 106.633 44.9668C106.777 44.7012 106.85 44.4004 106.85 44.0645C106.85 43.7324 106.777 43.4355 106.633 43.1738C106.492 42.9082 106.299 42.6992 106.053 42.5469C105.807 42.3945 105.527 42.3184 105.215 42.3184C104.906 42.3184 104.627 42.3945 104.377 42.5469C104.131 42.6992 103.936 42.9082 103.791 43.1738C103.65 43.4355 103.58 43.7324 103.58 44.0645C103.58 44.4004 103.65 44.7012 103.791 44.9668C103.936 45.2324 104.131 45.4414 104.377 45.5938C104.627 45.7461 104.906 45.8223 105.215 45.8223ZM111.027 47H109.486V37.9766H111.027V47ZM118.521 47H117.25L117.174 46.1797C116.92 46.4727 116.611 46.7031 116.248 46.8711C115.885 47.0352 115.49 47.1172 115.064 47.1172C114.514 47.1172 114.021 46.9844 113.588 46.7188C113.154 46.4531 112.812 46.0918 112.562 45.6348C112.316 45.1738 112.193 44.6523 112.193 44.0703C112.193 43.4883 112.316 42.9688 112.562 42.5117C112.812 42.0508 113.154 41.6875 113.588 41.4219C114.021 41.1562 114.514 41.0234 115.064 41.0234C115.467 41.0234 115.84 41.0957 116.184 41.2402C116.527 41.3848 116.826 41.5879 117.08 41.8496V38.2109H118.521V47ZM115.381 45.8223C115.693 45.8223 115.979 45.752 116.236 45.6113C116.494 45.4668 116.699 45.2695 116.852 45.0195C117.004 44.7695 117.08 44.4844 117.08 44.1641V43.959C117.08 43.6426 117.004 43.3613 116.852 43.1152C116.699 42.8652 116.494 42.6699 116.236 42.5293C115.979 42.3848 115.693 42.3125 115.381 42.3125C115.053 42.3125 114.76 42.3906 114.502 42.5469C114.244 42.6992 114.041 42.9082 113.893 43.1738C113.744 43.4355 113.67 43.7324 113.67 44.0645C113.67 44.4004 113.744 44.7012 113.893 44.9668C114.041 45.2324 114.244 45.4414 114.502 45.5938C114.76 45.7461 115.053 45.8223 115.381 45.8223Z" fill="#707070"/>
<path d="M24.676 49L35.908 23.8H41.668L52.936 49H46.816L37.6 26.752H39.904L30.652 49H24.676ZM30.292 43.6L31.84 39.172H44.8L46.384 43.6H30.292ZM67.0345 49V45.22L66.6745 44.392V37.624C66.6745 36.424 66.3025 35.488 65.5585 34.816C64.8385 34.144 63.7225 33.808 62.2105 33.808C61.1785 33.808 60.1585 33.976 59.1505 34.312C58.1665 34.624 57.3265 35.056 56.6305 35.608L54.6145 31.684C55.6705 30.94 56.9425 30.364 58.4305 29.956C59.9185 29.548 61.4305 29.344 62.9665 29.344C65.9185 29.344 68.2105 30.04 69.8425 31.432C71.4745 32.824 72.2905 34.996 72.2905 37.948V49H67.0345ZM61.1305 49.288C59.6185 49.288 58.3225 49.036 57.2425 48.532C56.1625 48.004 55.3345 47.296 54.7585 46.408C54.1825 45.52 53.8945 44.524 53.8945 43.42C53.8945 42.268 54.1705 41.26 54.7225 40.396C55.2985 39.532 56.1985 38.86 57.4225 38.38C58.6465 37.876 60.2425 37.624 62.2105 37.624H67.3585V40.9H62.8225C61.5025 40.9 60.5905 41.116 60.0865 41.548C59.6065 41.98 59.3665 42.52 59.3665 43.168C59.3665 43.888 59.6425 44.464 60.1945 44.896C60.7705 45.304 61.5505 45.508 62.5345 45.508C63.4705 45.508 64.3105 45.292 65.0545 44.86C65.7985 44.404 66.3385 43.744 66.6745 42.88L67.5385 45.472C67.1305 46.72 66.3865 47.668 65.3065 48.316C64.2265 48.964 62.8345 49.288 61.1305 49.288Z" fill="black"/>
<defs>
<filter id="filter0_d_3_70" x="68" y="83" width="174" height="78" filterUnits="userSpaceOnUse" color-interpolation-filters="sRGB">
<feFlood flood-opacity="0" result="BackgroundImageFix"/>
<feColorMatrix in="SourceAlpha" type="matrix" values="0 0 0 0 0 0 0 0 0 0 0 0 0 0 0 0 0 0 127 0" result="hardAlpha"/>
<feMorphology radius="1" operator="dilate" in="SourceAlpha" result="effect1_dropShadow_3_70"/>
<feOffset dy="1"/>
<feGaussianBlur stdDeviation="2.5"/>
<feComposite in2="hardAlpha" operator="out"/>
<feColorMatrix type="matrix" values="0 0 0 0 0 0 0 0 0 0 0 0 0 0 0 0 0 0 0.1 0"/>
<feBlend mode="normal" in2="BackgroundImageFix" result="effect1_dropShadow_3_70"/>
<feBlend mode="normal" in="SourceGraphic" in2="effect1_dropShadow_3_70" result="shape"/>
</filter>
<filter id="filter1_d_3_70" x="0" y="0" width="174" height="78" filterUnits="userSpaceOnUse" color-interpolation-filters="sRGB">
<feFlood flood-opacity="0" result="BackgroundImageFix"/>
<feColorMatrix in="SourceAlpha" type="matrix" values="0 0 0 0 0 0 0 0 0 0 0 0 0 0 0 0 0 0 127 0" result="hardAlpha"/>
<feMorphology radius="1" operator="dilate" in="SourceAlpha" result="effect1_dropShadow_3_70"/>
<feOffset dy="1"/>
<feGaussianBlur stdDeviation="2.5"/>
<feComposite in2="hardAlpha" operator="out"/>
<feColorMatrix type="matrix" values="0 0 0 0 0 0 0 0 0 0 0 0 0 0 0 0 0 0 0.1 0"/>
<feBlend mode="normal" in2="BackgroundImageFix" result="effect1_dropShadow_3_70"/>
<feBlend mode="normal" in="SourceGraphic" in2="effect1_dropShadow_3_70" result="shape"/>
</filter>
</defs>
</svg>
